%TF.GenerationSoftware,KiCad,Pcbnew,8.0.0*%
%TF.CreationDate,2024-05-14T19:01:21+09:00*%
%TF.ProjectId,TINY202_PROG.kicad_240514_single_pcb,54494e59-3230-4325-9f50-524f472e6b69,rev?*%
%TF.SameCoordinates,Original*%
%TF.FileFunction,Paste,Top*%
%TF.FilePolarity,Positive*%
%FSLAX46Y46*%
G04 Gerber Fmt 4.6, Leading zero omitted, Abs format (unit mm)*
G04 Created by KiCad (PCBNEW 8.0.0) date 2024-05-14 19:01:21*
%MOMM*%
%LPD*%
G01*
G04 APERTURE LIST*
G04 Aperture macros list*
%AMRoundRect*
0 Rectangle with rounded corners*
0 $1 Rounding radius*
0 $2 $3 $4 $5 $6 $7 $8 $9 X,Y pos of 4 corners*
0 Add a 4 corners polygon primitive as box body*
4,1,4,$2,$3,$4,$5,$6,$7,$8,$9,$2,$3,0*
0 Add four circle primitives for the rounded corners*
1,1,$1+$1,$2,$3*
1,1,$1+$1,$4,$5*
1,1,$1+$1,$6,$7*
1,1,$1+$1,$8,$9*
0 Add four rect primitives between the rounded corners*
20,1,$1+$1,$2,$3,$4,$5,0*
20,1,$1+$1,$4,$5,$6,$7,0*
20,1,$1+$1,$6,$7,$8,$9,0*
20,1,$1+$1,$8,$9,$2,$3,0*%
G04 Aperture macros list end*
%ADD10RoundRect,0.237500X-0.250000X-0.237500X0.250000X-0.237500X0.250000X0.237500X-0.250000X0.237500X0*%
%ADD11RoundRect,0.237500X-0.237500X0.300000X-0.237500X-0.300000X0.237500X-0.300000X0.237500X0.300000X0*%
%ADD12RoundRect,0.150000X0.512500X0.150000X-0.512500X0.150000X-0.512500X-0.150000X0.512500X-0.150000X0*%
%ADD13RoundRect,0.250000X0.475000X-0.250000X0.475000X0.250000X-0.475000X0.250000X-0.475000X-0.250000X0*%
%ADD14R,1.200000X1.200000*%
%ADD15RoundRect,0.237500X0.250000X0.237500X-0.250000X0.237500X-0.250000X-0.237500X0.250000X-0.237500X0*%
%ADD16RoundRect,0.237500X-0.287500X-0.237500X0.287500X-0.237500X0.287500X0.237500X-0.287500X0.237500X0*%
%ADD17RoundRect,0.150000X-0.587500X-0.150000X0.587500X-0.150000X0.587500X0.150000X-0.587500X0.150000X0*%
%ADD18RoundRect,0.237500X-0.237500X0.250000X-0.237500X-0.250000X0.237500X-0.250000X0.237500X0.250000X0*%
%ADD19RoundRect,0.237500X0.237500X-0.300000X0.237500X0.300000X-0.237500X0.300000X-0.237500X-0.300000X0*%
%ADD20RoundRect,0.237500X-0.300000X-0.237500X0.300000X-0.237500X0.300000X0.237500X-0.300000X0.237500X0*%
%ADD21RoundRect,0.237500X0.300000X0.237500X-0.300000X0.237500X-0.300000X-0.237500X0.300000X-0.237500X0*%
%ADD22RoundRect,0.237500X0.237500X-0.250000X0.237500X0.250000X-0.237500X0.250000X-0.237500X-0.250000X0*%
%ADD23R,1.500000X3.600000*%
G04 APERTURE END LIST*
D10*
%TO.C,R4*%
X121337500Y-104500000D03*
X123162500Y-104500000D03*
%TD*%
D11*
%TO.C,C3*%
X125000000Y-112637500D03*
X125000000Y-114362500D03*
%TD*%
D12*
%TO.C,U1*%
X111200000Y-104625000D03*
X111200000Y-103675000D03*
X111200000Y-102725000D03*
X108925000Y-102725000D03*
X108925000Y-103675000D03*
X108925000Y-104625000D03*
%TD*%
D11*
%TO.C,C1*%
X121500000Y-123137500D03*
X121500000Y-124862500D03*
%TD*%
D13*
%TO.C,C6*%
X105200000Y-104512500D03*
X105200000Y-102612500D03*
%TD*%
D14*
%TO.C,D3*%
X109350000Y-121750000D03*
X112150000Y-121750000D03*
%TD*%
D15*
%TO.C,R1*%
X116412500Y-126687500D03*
X114587500Y-126687500D03*
%TD*%
D16*
%TO.C,D5*%
X106375000Y-114000000D03*
X108125000Y-114000000D03*
%TD*%
D17*
%TO.C,Q4*%
X124812500Y-107550000D03*
X124812500Y-109450000D03*
X126687500Y-108500000D03*
%TD*%
D18*
%TO.C,R9*%
X118500000Y-123087500D03*
X118500000Y-124912500D03*
%TD*%
D19*
%TO.C,C2*%
X108200000Y-119525000D03*
X108200000Y-117800000D03*
%TD*%
D18*
%TO.C,R7*%
X115500000Y-106087500D03*
X115500000Y-107912500D03*
%TD*%
%TO.C,R10*%
X122000000Y-112587500D03*
X122000000Y-114412500D03*
%TD*%
D20*
%TO.C,C8*%
X125137500Y-104500000D03*
X126862500Y-104500000D03*
%TD*%
D21*
%TO.C,C5*%
X129112500Y-113750000D03*
X127387500Y-113750000D03*
%TD*%
D17*
%TO.C,Q2*%
X123812500Y-123050000D03*
X123812500Y-124950000D03*
X125687500Y-124000000D03*
%TD*%
D22*
%TO.C,R2*%
X122000000Y-110412500D03*
X122000000Y-108587500D03*
%TD*%
D10*
%TO.C,R11*%
X110337500Y-114000000D03*
X112162500Y-114000000D03*
%TD*%
%TO.C,R8*%
X113587500Y-103687500D03*
X115412500Y-103687500D03*
%TD*%
D13*
%TO.C,C7*%
X118000000Y-106200000D03*
X118000000Y-104300000D03*
%TD*%
D14*
%TO.C,D1*%
X109000000Y-126600000D03*
X111800000Y-126600000D03*
%TD*%
D23*
%TO.C,L1*%
X105225000Y-109250000D03*
X108275000Y-109250000D03*
%TD*%
D18*
%TO.C,R3*%
X111500000Y-116337500D03*
X111500000Y-118162500D03*
%TD*%
%TO.C,R5*%
X122500000Y-118287500D03*
X122500000Y-120112500D03*
%TD*%
%TO.C,R6*%
X129500000Y-126837500D03*
X129500000Y-128662500D03*
%TD*%
D19*
%TO.C,C4*%
X118500000Y-119362500D03*
X118500000Y-117637500D03*
%TD*%
D14*
%TO.C,D4*%
X114900000Y-110750000D03*
X112100000Y-110750000D03*
%TD*%
D17*
%TO.C,Q1*%
X114312500Y-118300000D03*
X114312500Y-120200000D03*
X116187500Y-119250000D03*
%TD*%
M02*
