%TF.GenerationSoftware,KiCad,Pcbnew,8.0.0*%
%TF.CreationDate,2024-05-14T19:01:21+09:00*%
%TF.ProjectId,TINY202_PROG.kicad_240514_single_pcb,54494e59-3230-4325-9f50-524f472e6b69,rev?*%
%TF.SameCoordinates,Original*%
%TF.FileFunction,Copper,L1,Top*%
%TF.FilePolarity,Positive*%
%FSLAX46Y46*%
G04 Gerber Fmt 4.6, Leading zero omitted, Abs format (unit mm)*
G04 Created by KiCad (PCBNEW 8.0.0) date 2024-05-14 19:01:21*
%MOMM*%
%LPD*%
G01*
G04 APERTURE LIST*
G04 Aperture macros list*
%AMRoundRect*
0 Rectangle with rounded corners*
0 $1 Rounding radius*
0 $2 $3 $4 $5 $6 $7 $8 $9 X,Y pos of 4 corners*
0 Add a 4 corners polygon primitive as box body*
4,1,4,$2,$3,$4,$5,$6,$7,$8,$9,$2,$3,0*
0 Add four circle primitives for the rounded corners*
1,1,$1+$1,$2,$3*
1,1,$1+$1,$4,$5*
1,1,$1+$1,$6,$7*
1,1,$1+$1,$8,$9*
0 Add four rect primitives between the rounded corners*
20,1,$1+$1,$2,$3,$4,$5,0*
20,1,$1+$1,$4,$5,$6,$7,0*
20,1,$1+$1,$6,$7,$8,$9,0*
20,1,$1+$1,$8,$9,$2,$3,0*%
G04 Aperture macros list end*
%TA.AperFunction,Conductor*%
%ADD10C,0.200000*%
%TD*%
%TA.AperFunction,Conductor*%
%ADD11C,0.300000*%
%TD*%
%TA.AperFunction,SMDPad,CuDef*%
%ADD12RoundRect,0.237500X-0.250000X-0.237500X0.250000X-0.237500X0.250000X0.237500X-0.250000X0.237500X0*%
%TD*%
%TA.AperFunction,ComponentPad*%
%ADD13R,1.700000X1.700000*%
%TD*%
%TA.AperFunction,ComponentPad*%
%ADD14O,1.700000X1.700000*%
%TD*%
%TA.AperFunction,SMDPad,CuDef*%
%ADD15RoundRect,0.237500X-0.237500X0.300000X-0.237500X-0.300000X0.237500X-0.300000X0.237500X0.300000X0*%
%TD*%
%TA.AperFunction,SMDPad,CuDef*%
%ADD16RoundRect,0.150000X0.512500X0.150000X-0.512500X0.150000X-0.512500X-0.150000X0.512500X-0.150000X0*%
%TD*%
%TA.AperFunction,ComponentPad*%
%ADD17C,2.000000*%
%TD*%
%TA.AperFunction,SMDPad,CuDef*%
%ADD18RoundRect,0.250000X0.475000X-0.250000X0.475000X0.250000X-0.475000X0.250000X-0.475000X-0.250000X0*%
%TD*%
%TA.AperFunction,SMDPad,CuDef*%
%ADD19R,1.200000X1.200000*%
%TD*%
%TA.AperFunction,SMDPad,CuDef*%
%ADD20RoundRect,0.237500X0.250000X0.237500X-0.250000X0.237500X-0.250000X-0.237500X0.250000X-0.237500X0*%
%TD*%
%TA.AperFunction,SMDPad,CuDef*%
%ADD21RoundRect,0.237500X-0.287500X-0.237500X0.287500X-0.237500X0.287500X0.237500X-0.287500X0.237500X0*%
%TD*%
%TA.AperFunction,SMDPad,CuDef*%
%ADD22RoundRect,0.150000X-0.587500X-0.150000X0.587500X-0.150000X0.587500X0.150000X-0.587500X0.150000X0*%
%TD*%
%TA.AperFunction,SMDPad,CuDef*%
%ADD23RoundRect,0.237500X-0.237500X0.250000X-0.237500X-0.250000X0.237500X-0.250000X0.237500X0.250000X0*%
%TD*%
%TA.AperFunction,SMDPad,CuDef*%
%ADD24RoundRect,0.237500X0.237500X-0.300000X0.237500X0.300000X-0.237500X0.300000X-0.237500X-0.300000X0*%
%TD*%
%TA.AperFunction,SMDPad,CuDef*%
%ADD25RoundRect,0.237500X-0.300000X-0.237500X0.300000X-0.237500X0.300000X0.237500X-0.300000X0.237500X0*%
%TD*%
%TA.AperFunction,SMDPad,CuDef*%
%ADD26RoundRect,0.237500X0.300000X0.237500X-0.300000X0.237500X-0.300000X-0.237500X0.300000X-0.237500X0*%
%TD*%
%TA.AperFunction,SMDPad,CuDef*%
%ADD27RoundRect,0.237500X0.237500X-0.250000X0.237500X0.250000X-0.237500X0.250000X-0.237500X-0.250000X0*%
%TD*%
%TA.AperFunction,SMDPad,CuDef*%
%ADD28R,1.500000X3.600000*%
%TD*%
%TA.AperFunction,ViaPad*%
%ADD29C,0.600000*%
%TD*%
%TA.AperFunction,Conductor*%
%ADD30C,0.500000*%
%TD*%
G04 APERTURE END LIST*
D10*
%TO.N,Net-(Q4-G)*%
X125500000Y-104500000D02*
X124375000Y-104500000D01*
X125250000Y-107500000D02*
X124000000Y-107500000D01*
%TO.N,Net-(D4-A)*%
X113000000Y-107000000D02*
X112750000Y-107500000D01*
%TO.N,GND*%
X102500000Y-115000000D02*
X102500000Y-114500000D01*
D11*
%TO.N,Net-(Q4-G)*%
X123250000Y-104500000D02*
X125500000Y-104500000D01*
%TD*%
D12*
%TO.P,R4,1*%
%TO.N,Net-(C3-Pad1)*%
X121337500Y-104500000D03*
%TO.P,R4,2*%
%TO.N,Net-(Q4-G)*%
X123162500Y-104500000D03*
%TD*%
D13*
%TO.P,J1,1,Pin_1*%
%TO.N,GND*%
X104400000Y-117875000D03*
D14*
%TO.P,J1,2,Pin_2*%
%TO.N,/DTS*%
X104400000Y-120415000D03*
%TO.P,J1,3,Pin_3*%
%TO.N,+3.3{slash}5V*%
X104400000Y-122955000D03*
%TO.P,J1,4,Pin_4*%
%TO.N,/TX*%
X104400000Y-125495000D03*
%TO.P,J1,5,Pin_5*%
%TO.N,/RX*%
X104400000Y-128035000D03*
%TO.P,J1,6,Pin_6*%
%TO.N,/DTR*%
X104400000Y-130575000D03*
%TD*%
D15*
%TO.P,C3,1*%
%TO.N,Net-(C3-Pad1)*%
X125000000Y-112637500D03*
%TO.P,C3,2*%
%TO.N,Net-(Q2-D)*%
X125000000Y-114362500D03*
%TD*%
D16*
%TO.P,U1,1,SW*%
%TO.N,Net-(D4-A)*%
X111200000Y-104625000D03*
%TO.P,U1,2,GND*%
%TO.N,GND*%
X111200000Y-103675000D03*
%TO.P,U1,3,FB*%
%TO.N,Net-(U1-FB)*%
X111200000Y-102725000D03*
%TO.P,U1,4,EN*%
%TO.N,+3.3{slash}5V*%
X108925000Y-102725000D03*
%TO.P,U1,5,IN*%
X108925000Y-103675000D03*
%TO.P,U1,6,NC*%
%TO.N,unconnected-(U1-NC-Pad6)*%
X108925000Y-104625000D03*
%TD*%
D15*
%TO.P,C1,1*%
%TO.N,Net-(Q2-G)*%
X121500000Y-123137500D03*
%TO.P,C1,2*%
%TO.N,GND*%
X121500000Y-124862500D03*
%TD*%
D17*
%TO.P,SW1,1,1*%
%TO.N,+3.3{slash}5V*%
X109250000Y-131750000D03*
X115750000Y-131750000D03*
%TO.P,SW1,2,2*%
%TO.N,Net-(Q1-G)*%
X109250000Y-136250000D03*
X115750000Y-136250000D03*
%TD*%
D18*
%TO.P,C6,1*%
%TO.N,+3.3{slash}5V*%
X105200000Y-104512500D03*
%TO.P,C6,2*%
%TO.N,GND*%
X105200000Y-102612500D03*
%TD*%
D19*
%TO.P,D3,1,K*%
%TO.N,+3.3{slash}5V*%
X109350000Y-121750000D03*
%TO.P,D3,2,A*%
%TO.N,/RX*%
X112150000Y-121750000D03*
%TD*%
D20*
%TO.P,R1,1*%
%TO.N,/UPDI*%
X116412500Y-126687500D03*
%TO.P,R1,2*%
%TO.N,/RX*%
X114587500Y-126687500D03*
%TD*%
D21*
%TO.P,D5,1,K*%
%TO.N,GND*%
X106375000Y-114000000D03*
%TO.P,D5,2,A*%
%TO.N,Net-(D5-A)*%
X108125000Y-114000000D03*
%TD*%
D22*
%TO.P,Q4,1,G*%
%TO.N,Net-(Q4-G)*%
X124812500Y-107550000D03*
%TO.P,Q4,2,S*%
%TO.N,+12V*%
X124812500Y-109450000D03*
%TO.P,Q4,3,D*%
%TO.N,Net-(Q4-D)*%
X126687500Y-108500000D03*
%TD*%
D23*
%TO.P,R9,1*%
%TO.N,TG_Vdd*%
X118500000Y-123087500D03*
%TO.P,R9,2*%
%TO.N,GND*%
X118500000Y-124912500D03*
%TD*%
D24*
%TO.P,C2,1*%
%TO.N,+3.3{slash}5V*%
X108200000Y-119525000D03*
%TO.P,C2,2*%
%TO.N,GND*%
X108200000Y-117800000D03*
%TD*%
D23*
%TO.P,R7,1*%
%TO.N,Net-(U1-FB)*%
X115500000Y-106087500D03*
%TO.P,R7,2*%
%TO.N,+12V*%
X115500000Y-107912500D03*
%TD*%
%TO.P,R10,1*%
%TO.N,+12V*%
X122000000Y-112587500D03*
%TO.P,R10,2*%
%TO.N,Net-(Q2-D)*%
X122000000Y-114412500D03*
%TD*%
D25*
%TO.P,C8,1*%
%TO.N,Net-(Q4-G)*%
X125137500Y-104500000D03*
%TO.P,C8,2*%
%TO.N,Net-(Q4-D)*%
X126862500Y-104500000D03*
%TD*%
D26*
%TO.P,C5,1*%
%TO.N,TG_Vdd*%
X129112500Y-113750000D03*
%TO.P,C5,2*%
%TO.N,GND*%
X127387500Y-113750000D03*
%TD*%
D22*
%TO.P,Q2,1,G*%
%TO.N,Net-(Q2-G)*%
X123812500Y-123050000D03*
%TO.P,Q2,2,S*%
%TO.N,GND*%
X123812500Y-124950000D03*
%TO.P,Q2,3,D*%
%TO.N,Net-(Q2-D)*%
X125687500Y-124000000D03*
%TD*%
D27*
%TO.P,R2,1*%
%TO.N,+12V*%
X122000000Y-110412500D03*
%TO.P,R2,2*%
%TO.N,Net-(Q4-G)*%
X122000000Y-108587500D03*
%TD*%
D12*
%TO.P,R11,1*%
%TO.N,Net-(D5-A)*%
X110337500Y-114000000D03*
%TO.P,R11,2*%
%TO.N,+3.3{slash}5V*%
X112162500Y-114000000D03*
%TD*%
%TO.P,R8,1*%
%TO.N,GND*%
X113587500Y-103687500D03*
%TO.P,R8,2*%
%TO.N,Net-(U1-FB)*%
X115412500Y-103687500D03*
%TD*%
D18*
%TO.P,C7,1*%
%TO.N,+12V*%
X118000000Y-106200000D03*
%TO.P,C7,2*%
%TO.N,GND*%
X118000000Y-104300000D03*
%TD*%
D19*
%TO.P,D1,1,K*%
%TO.N,/TX*%
X109000000Y-126600000D03*
%TO.P,D1,2,A*%
%TO.N,/RX*%
X111800000Y-126600000D03*
%TD*%
D28*
%TO.P,L1,1*%
%TO.N,+3.3{slash}5V*%
X105225000Y-109250000D03*
%TO.P,L1,2*%
%TO.N,Net-(D4-A)*%
X108275000Y-109250000D03*
%TD*%
D23*
%TO.P,R3,1*%
%TO.N,GND*%
X111500000Y-116337500D03*
%TO.P,R3,2*%
%TO.N,Net-(Q1-G)*%
X111500000Y-118162500D03*
%TD*%
%TO.P,R5,1*%
%TO.N,TG_Vdd*%
X122500000Y-118287500D03*
%TO.P,R5,2*%
%TO.N,Net-(Q2-G)*%
X122500000Y-120112500D03*
%TD*%
%TO.P,R6,1*%
%TO.N,/UPDI*%
X129500000Y-126837500D03*
%TO.P,R6,2*%
%TO.N,Net-(R6-Pad2)*%
X129500000Y-128662500D03*
%TD*%
D24*
%TO.P,C4,1*%
%TO.N,TG_Vdd*%
X118500000Y-119362500D03*
%TO.P,C4,2*%
%TO.N,Net-(Q1-G)*%
X118500000Y-117637500D03*
%TD*%
D19*
%TO.P,D4,1,K*%
%TO.N,+12V*%
X114900000Y-110750000D03*
%TO.P,D4,2,A*%
%TO.N,Net-(D4-A)*%
X112100000Y-110750000D03*
%TD*%
D22*
%TO.P,Q1,1,G*%
%TO.N,Net-(Q1-G)*%
X114312500Y-118300000D03*
%TO.P,Q1,2,S*%
%TO.N,+3.3{slash}5V*%
X114312500Y-120200000D03*
%TO.P,Q1,3,D*%
%TO.N,TG_Vdd*%
X116187500Y-119250000D03*
%TD*%
D13*
%TO.P,J3,1,Pin_1*%
%TO.N,/UPDI*%
X128725000Y-122775000D03*
D14*
%TO.P,J3,2,Pin_2*%
%TO.N,TG_Vdd*%
X128725000Y-120235000D03*
%TO.P,J3,3,Pin_3*%
%TO.N,GND*%
X128725000Y-117695000D03*
%TD*%
D17*
%TO.P,SW2,1,1*%
%TO.N,Net-(Q4-D)*%
X120750000Y-131750000D03*
X127250000Y-131750000D03*
%TO.P,SW2,2,2*%
%TO.N,Net-(R6-Pad2)*%
X120750000Y-136250000D03*
X127250000Y-136250000D03*
%TD*%
D29*
%TO.N,GND*%
X119750000Y-109800000D03*
X102250000Y-105000000D03*
X102500000Y-111750000D03*
X121125000Y-126375000D03*
X120100000Y-115600000D03*
X112500000Y-102250000D03*
X102500000Y-113750000D03*
X112500000Y-103675000D03*
X107000000Y-101250000D03*
X102500000Y-110750000D03*
X121750000Y-127000000D03*
X121125000Y-116625000D03*
X119750000Y-104000000D03*
X117600000Y-115600000D03*
%TO.N,Net-(C3-Pad1)*%
X121250000Y-107000000D03*
X125000000Y-111400000D03*
%TO.N,Net-(Q2-D)*%
X125000000Y-120000000D03*
X125000000Y-116000000D03*
%TO.N,Net-(Q1-G)*%
X116500000Y-117637500D03*
%TO.N,Net-(Q4-D)*%
X127750000Y-111250000D03*
%TD*%
D30*
%TO.N,GND*%
X112500000Y-103675000D02*
X112500000Y-102250000D01*
X127500000Y-117000000D02*
X121500000Y-117000000D01*
X102250000Y-103000000D02*
X102637500Y-102612500D01*
X102637500Y-102612500D02*
X105200000Y-102612500D01*
X103125000Y-117875000D02*
X104400000Y-117875000D01*
X120250000Y-125500000D02*
X121750000Y-127000000D01*
X120250000Y-125025000D02*
X120250000Y-125500000D01*
X105200000Y-101550000D02*
X105500000Y-101250000D01*
X119750000Y-104550000D02*
X119750000Y-104000000D01*
X110200000Y-116400000D02*
X110262500Y-116337500D01*
X127500000Y-116500000D02*
X127500000Y-117000000D01*
X108125000Y-117875000D02*
X108200000Y-117800000D01*
X118612500Y-125025000D02*
X120250000Y-125025000D01*
X114600000Y-115600000D02*
X117600000Y-115600000D01*
X127500000Y-117000000D02*
X128030000Y-117000000D01*
X102500000Y-113750000D02*
X102500000Y-117250000D01*
X128030000Y-117000000D02*
X128725000Y-117695000D01*
X118500000Y-124912500D02*
X118612500Y-125025000D01*
D11*
X102500000Y-113750000D02*
X102750000Y-114000000D01*
D30*
X121500000Y-117000000D02*
X120100000Y-115600000D01*
X120250000Y-125025000D02*
X121400000Y-125025000D01*
X102250000Y-105000000D02*
X102250000Y-103000000D01*
X104400000Y-117875000D02*
X108125000Y-117875000D01*
X119750000Y-109800000D02*
X119750000Y-104550000D01*
X110262500Y-116337500D02*
X111500000Y-116337500D01*
X113862500Y-116337500D02*
X114600000Y-115600000D01*
X102500000Y-117250000D02*
X103125000Y-117875000D01*
X127387500Y-116387500D02*
X127500000Y-116500000D01*
X127387500Y-113750000D02*
X127387500Y-116387500D01*
X111500000Y-116337500D02*
X113862500Y-116337500D01*
X121500000Y-124925000D02*
X123787500Y-124925000D01*
X111200000Y-103675000D02*
X113575000Y-103675000D01*
X113575000Y-103675000D02*
X113587500Y-103687500D01*
X109600000Y-116400000D02*
X110200000Y-116400000D01*
X123787500Y-124925000D02*
X123812500Y-124950000D01*
X117600000Y-115600000D02*
X120100000Y-115600000D01*
X121400000Y-125025000D02*
X121500000Y-124925000D01*
X105500000Y-101250000D02*
X107000000Y-101250000D01*
X102500000Y-113750000D02*
X102500000Y-110750000D01*
D11*
X102750000Y-114000000D02*
X106375000Y-114000000D01*
D30*
X105200000Y-102612500D02*
X105200000Y-101550000D01*
X108200000Y-117800000D02*
X109600000Y-116400000D01*
D11*
%TO.N,Net-(Q2-G)*%
X122500000Y-120112500D02*
X122500000Y-123050000D01*
X121650000Y-123050000D02*
X121500000Y-123200000D01*
X123812500Y-123050000D02*
X121650000Y-123050000D01*
D30*
%TO.N,+3.3{slash}5V*%
X111000000Y-130000000D02*
X112750000Y-130000000D01*
D11*
X111750000Y-112250000D02*
X112250000Y-112750000D01*
X104000000Y-112250000D02*
X111750000Y-112250000D01*
D30*
X102000000Y-123000000D02*
X103110000Y-123000000D01*
X108200000Y-121400000D02*
X106645000Y-122955000D01*
D11*
X103500000Y-111750000D02*
X104000000Y-112250000D01*
D30*
X108925000Y-102725000D02*
X107475000Y-102725000D01*
X102000000Y-133400000D02*
X102800000Y-134200000D01*
X108550000Y-121750000D02*
X109350000Y-121750000D01*
X103155000Y-122955000D02*
X104400000Y-122955000D01*
X102000000Y-124200000D02*
X102000000Y-133400000D01*
X101250000Y-122250000D02*
X102000000Y-123000000D01*
X103110000Y-123000000D02*
X103155000Y-122955000D01*
X106550000Y-104600000D02*
X105200000Y-104600000D01*
X105225000Y-109250000D02*
X103500000Y-109250000D01*
X105225000Y-106075000D02*
X105225000Y-109250000D01*
X107400000Y-102800000D02*
X107400000Y-103600000D01*
X108200000Y-121400000D02*
X108550000Y-121750000D01*
X107475000Y-103675000D02*
X108925000Y-103675000D01*
X101250000Y-110250000D02*
X101250000Y-122250000D01*
X111400000Y-120200000D02*
X114312500Y-120200000D01*
X103155000Y-122955000D02*
X103155000Y-123045000D01*
X109350000Y-121750000D02*
X109850000Y-121750000D01*
X107475000Y-102725000D02*
X107400000Y-102800000D01*
X107475000Y-103675000D02*
X106550000Y-104600000D01*
X103155000Y-123045000D02*
X102000000Y-124200000D01*
X105200000Y-106050000D02*
X105225000Y-106075000D01*
X109250000Y-131750000D02*
X111000000Y-130000000D01*
X102800000Y-134200000D02*
X107300000Y-134200000D01*
X103500000Y-109250000D02*
X102250000Y-109250000D01*
X108200000Y-119525000D02*
X108200000Y-121400000D01*
D11*
X112250000Y-113912500D02*
X112162500Y-114000000D01*
D30*
X109250000Y-132250000D02*
X109250000Y-131750000D01*
X106645000Y-122955000D02*
X104400000Y-122955000D01*
X102250000Y-109250000D02*
X101250000Y-110250000D01*
X114000000Y-130000000D02*
X115750000Y-131750000D01*
X107300000Y-134200000D02*
X109250000Y-132250000D01*
D11*
X112250000Y-112750000D02*
X112250000Y-113912500D01*
D30*
X112750000Y-130000000D02*
X114000000Y-130000000D01*
X105200000Y-104600000D02*
X105200000Y-106050000D01*
X107400000Y-103600000D02*
X107475000Y-103675000D01*
D11*
X103500000Y-109250000D02*
X103500000Y-111750000D01*
D30*
X109850000Y-121750000D02*
X111400000Y-120200000D01*
D11*
%TO.N,Net-(C3-Pad1)*%
X125000000Y-111400000D02*
X125000000Y-112637500D01*
X121250000Y-107000000D02*
X121337500Y-106912500D01*
X121337500Y-106912500D02*
X121337500Y-104500000D01*
%TO.N,Net-(Q2-D)*%
X122500000Y-114912500D02*
X124450000Y-114912500D01*
X125000000Y-116000000D02*
X125000000Y-114362500D01*
X125000000Y-120000000D02*
X125687500Y-120687500D01*
X125687500Y-120687500D02*
X125687500Y-124000000D01*
X122000000Y-114412500D02*
X122500000Y-114912500D01*
X124450000Y-114912500D02*
X125000000Y-114362500D01*
%TO.N,Net-(Q1-G)*%
X111500000Y-118162500D02*
X114175000Y-118162500D01*
X118500000Y-117637500D02*
X114975000Y-117637500D01*
X114975000Y-117637500D02*
X114312500Y-118300000D01*
X114175000Y-118162500D02*
X114312500Y-118300000D01*
D30*
%TO.N,TG_Vdd*%
X118250000Y-119250000D02*
X118362500Y-119362500D01*
X122500000Y-118287500D02*
X121912500Y-118287500D01*
X116187500Y-119250000D02*
X118250000Y-119250000D01*
X119137500Y-120000000D02*
X118500000Y-119362500D01*
X118500000Y-119362500D02*
X118500000Y-123087500D01*
X120200000Y-120000000D02*
X119137500Y-120000000D01*
X121912500Y-118287500D02*
X120200000Y-120000000D01*
X122700000Y-118087500D02*
X126577500Y-118087500D01*
X118362500Y-119362500D02*
X118500000Y-119362500D01*
X128725000Y-120235000D02*
X129265000Y-120235000D01*
X122500000Y-118287500D02*
X122700000Y-118087500D01*
X129112500Y-113750000D02*
X131250000Y-115887500D01*
X131250000Y-115887500D02*
X131250000Y-118250000D01*
X129265000Y-120235000D02*
X131250000Y-118250000D01*
X126577500Y-118087500D02*
X128725000Y-120235000D01*
%TO.N,+12V*%
X118000000Y-106537500D02*
X118000000Y-111000000D01*
X121912500Y-112500000D02*
X122000000Y-112587500D01*
X117750000Y-106287500D02*
X118000000Y-106537500D01*
D11*
X115500000Y-108375000D02*
X114900000Y-108975000D01*
D30*
X121900000Y-112500000D02*
X121912500Y-112500000D01*
X122000000Y-111500000D02*
X118500000Y-111500000D01*
X122000000Y-110412500D02*
X122000000Y-111500000D01*
D11*
X115500000Y-107912500D02*
X115500000Y-108375000D01*
D30*
X122000000Y-111500000D02*
X122000000Y-112587500D01*
X117750000Y-110750000D02*
X114900000Y-110750000D01*
X118500000Y-111500000D02*
X117750000Y-110750000D01*
D11*
X114900000Y-108975000D02*
X114900000Y-110750000D01*
D30*
X123850000Y-110412500D02*
X122000000Y-110412500D01*
X124812500Y-109450000D02*
X123850000Y-110412500D01*
D11*
%TO.N,Net-(Q4-D)*%
X126687500Y-110187500D02*
X126687500Y-108500000D01*
X127750000Y-111250000D02*
X126687500Y-110187500D01*
%TO.N,Net-(Q4-G)*%
X122000000Y-108587500D02*
X122912500Y-108587500D01*
X125312500Y-107687500D02*
X124950000Y-107687500D01*
X124000000Y-107500000D02*
X123162500Y-106662500D01*
X124950000Y-107687500D02*
X124812500Y-107550000D01*
X123162500Y-106662500D02*
X123162500Y-104500000D01*
X122912500Y-108587500D02*
X124000000Y-107500000D01*
%TO.N,/RX*%
X114500000Y-126600000D02*
X114587500Y-126687500D01*
X112800000Y-126600000D02*
X114500000Y-126600000D01*
X112150000Y-121750000D02*
X113200000Y-122800000D01*
X111800000Y-128400000D02*
X111800000Y-126600000D01*
X104400000Y-128035000D02*
X105365000Y-129000000D01*
X105365000Y-129000000D02*
X111200000Y-129000000D01*
X111800000Y-126600000D02*
X112800000Y-126600000D01*
X113200000Y-126200000D02*
X112800000Y-126600000D01*
X111200000Y-129000000D02*
X111800000Y-128400000D01*
X113200000Y-122800000D02*
X113200000Y-126200000D01*
%TO.N,/TX*%
X105895000Y-125495000D02*
X107000000Y-126600000D01*
X104400000Y-125495000D02*
X105895000Y-125495000D01*
X107000000Y-126600000D02*
X109000000Y-126600000D01*
D30*
%TO.N,Net-(D4-A)*%
X112425000Y-104625000D02*
X112800000Y-105000000D01*
X111200000Y-104625000D02*
X112425000Y-104625000D01*
X108275000Y-109250000D02*
X110550000Y-109250000D01*
X110750000Y-109450000D02*
X110800000Y-109450000D01*
X110800000Y-109450000D02*
X112100000Y-110750000D01*
X112800000Y-107450000D02*
X110800000Y-109450000D01*
X110550000Y-109250000D02*
X110750000Y-109450000D01*
X112800000Y-105000000D02*
X112800000Y-107450000D01*
D11*
%TO.N,/UPDI*%
X116412500Y-126687500D02*
X120087500Y-126687500D01*
X125350000Y-128400000D02*
X128725000Y-125025000D01*
X120087500Y-126687500D02*
X121800000Y-128400000D01*
X129500000Y-126837500D02*
X129500000Y-125800000D01*
X129500000Y-125800000D02*
X128725000Y-125025000D01*
X121800000Y-128400000D02*
X125350000Y-128400000D01*
X128725000Y-125025000D02*
X128725000Y-122775000D01*
%TO.N,Net-(R6-Pad2)*%
X129100000Y-136250000D02*
X127250000Y-136250000D01*
X129500000Y-135850000D02*
X129100000Y-136250000D01*
X129500000Y-128662500D02*
X129500000Y-135850000D01*
%TO.N,Net-(U1-FB)*%
X111200000Y-102725000D02*
X111200000Y-101800000D01*
X115000000Y-101500000D02*
X115412500Y-101912500D01*
X111500000Y-101500000D02*
X115000000Y-101500000D01*
X115500000Y-103775000D02*
X115412500Y-103687500D01*
X111200000Y-101800000D02*
X111500000Y-101500000D01*
X115412500Y-101912500D02*
X115412500Y-103687500D01*
X115500000Y-106087500D02*
X115500000Y-103775000D01*
%TO.N,Net-(D5-A)*%
X110337500Y-114000000D02*
X108125000Y-114000000D01*
%TD*%
%TA.AperFunction,Conductor*%
%TO.N,GND*%
G36*
X131808363Y-100520185D02*
G01*
X131829005Y-100536819D01*
X132463181Y-101170995D01*
X132496666Y-101232318D01*
X132499500Y-101258676D01*
X132499500Y-138741324D01*
X132479815Y-138808363D01*
X132463181Y-138829005D01*
X131829005Y-139463181D01*
X131767682Y-139496666D01*
X131741324Y-139499500D01*
X101258676Y-139499500D01*
X101191637Y-139479815D01*
X101170995Y-139463181D01*
X100536819Y-138829005D01*
X100503334Y-138767682D01*
X100500500Y-138741324D01*
X100500500Y-136250005D01*
X107744357Y-136250005D01*
X107764890Y-136497812D01*
X107764892Y-136497824D01*
X107825936Y-136738881D01*
X107925826Y-136966606D01*
X108061833Y-137174782D01*
X108061836Y-137174785D01*
X108230256Y-137357738D01*
X108426491Y-137510474D01*
X108645190Y-137628828D01*
X108880386Y-137709571D01*
X109125665Y-137750500D01*
X109374335Y-137750500D01*
X109619614Y-137709571D01*
X109854810Y-137628828D01*
X110073509Y-137510474D01*
X110269744Y-137357738D01*
X110438164Y-137174785D01*
X110574173Y-136966607D01*
X110674063Y-136738881D01*
X110735108Y-136497821D01*
X110754427Y-136264675D01*
X110755643Y-136250005D01*
X114244357Y-136250005D01*
X114264890Y-136497812D01*
X114264892Y-136497824D01*
X114325936Y-136738881D01*
X114425826Y-136966606D01*
X114561833Y-137174782D01*
X114561836Y-137174785D01*
X114730256Y-137357738D01*
X114926491Y-137510474D01*
X115145190Y-137628828D01*
X115380386Y-137709571D01*
X115625665Y-137750500D01*
X115874335Y-137750500D01*
X116119614Y-137709571D01*
X116354810Y-137628828D01*
X116573509Y-137510474D01*
X116769744Y-137357738D01*
X116938164Y-137174785D01*
X117074173Y-136966607D01*
X117174063Y-136738881D01*
X117235108Y-136497821D01*
X117254427Y-136264675D01*
X117255643Y-136250005D01*
X119244357Y-136250005D01*
X119264890Y-136497812D01*
X119264892Y-136497824D01*
X119325936Y-136738881D01*
X119425826Y-136966606D01*
X119561833Y-137174782D01*
X119561836Y-137174785D01*
X119730256Y-137357738D01*
X119926491Y-137510474D01*
X120145190Y-137628828D01*
X120380386Y-137709571D01*
X120625665Y-137750500D01*
X120874335Y-137750500D01*
X121119614Y-137709571D01*
X121354810Y-137628828D01*
X121573509Y-137510474D01*
X121769744Y-137357738D01*
X121938164Y-137174785D01*
X122074173Y-136966607D01*
X122174063Y-136738881D01*
X122235108Y-136497821D01*
X122254427Y-136264675D01*
X122255643Y-136250005D01*
X122255643Y-136249994D01*
X122235109Y-136002187D01*
X122235107Y-136002178D01*
X122212796Y-135914070D01*
X122174063Y-135761118D01*
X122074173Y-135533393D01*
X121938166Y-135325217D01*
X121916557Y-135301744D01*
X121769744Y-135142262D01*
X121573509Y-134989526D01*
X121573507Y-134989525D01*
X121573506Y-134989524D01*
X121354811Y-134871172D01*
X121354802Y-134871169D01*
X121119616Y-134790429D01*
X120874335Y-134749500D01*
X120625665Y-134749500D01*
X120380383Y-134790429D01*
X120145197Y-134871169D01*
X120145188Y-134871172D01*
X119926493Y-134989524D01*
X119730257Y-135142261D01*
X119561833Y-135325217D01*
X119425826Y-135533393D01*
X119325936Y-135761118D01*
X119264892Y-136002175D01*
X119264890Y-136002187D01*
X119244357Y-136249994D01*
X119244357Y-136250005D01*
X117255643Y-136250005D01*
X117255643Y-136249994D01*
X117235109Y-136002187D01*
X117235107Y-136002178D01*
X117212796Y-135914070D01*
X117174063Y-135761118D01*
X117074173Y-135533393D01*
X116938166Y-135325217D01*
X116916557Y-135301744D01*
X116769744Y-135142262D01*
X116573509Y-134989526D01*
X116573507Y-134989525D01*
X116573506Y-134989524D01*
X116354811Y-134871172D01*
X116354802Y-134871169D01*
X116119616Y-134790429D01*
X115874335Y-134749500D01*
X115625665Y-134749500D01*
X115380383Y-134790429D01*
X115145197Y-134871169D01*
X115145188Y-134871172D01*
X114926493Y-134989524D01*
X114730257Y-135142261D01*
X114561833Y-135325217D01*
X114425826Y-135533393D01*
X114325936Y-135761118D01*
X114264892Y-136002175D01*
X114264890Y-136002187D01*
X114244357Y-136249994D01*
X114244357Y-136250005D01*
X110755643Y-136250005D01*
X110755643Y-136249994D01*
X110735109Y-136002187D01*
X110735107Y-136002178D01*
X110712796Y-135914070D01*
X110674063Y-135761118D01*
X110574173Y-135533393D01*
X110438166Y-135325217D01*
X110416557Y-135301744D01*
X110269744Y-135142262D01*
X110073509Y-134989526D01*
X110073507Y-134989525D01*
X110073506Y-134989524D01*
X109854811Y-134871172D01*
X109854802Y-134871169D01*
X109619616Y-134790429D01*
X109374335Y-134749500D01*
X109125665Y-134749500D01*
X108880383Y-134790429D01*
X108645197Y-134871169D01*
X108645188Y-134871172D01*
X108426493Y-134989524D01*
X108230257Y-135142261D01*
X108061833Y-135325217D01*
X107925826Y-135533393D01*
X107825936Y-135761118D01*
X107764892Y-136002175D01*
X107764890Y-136002187D01*
X107744357Y-136249994D01*
X107744357Y-136250005D01*
X100500500Y-136250005D01*
X100500500Y-122861230D01*
X100520185Y-122794191D01*
X100572989Y-122748436D01*
X100642147Y-122738492D01*
X100705703Y-122767517D01*
X100712181Y-122773549D01*
X101450950Y-123512318D01*
X101484435Y-123573641D01*
X101479451Y-123643333D01*
X101450953Y-123687678D01*
X101417047Y-123721585D01*
X101367812Y-123795271D01*
X101334921Y-123844496D01*
X101334914Y-123844508D01*
X101278342Y-123981086D01*
X101278340Y-123981092D01*
X101249500Y-124126079D01*
X101249500Y-124126082D01*
X101249500Y-133473918D01*
X101249500Y-133473920D01*
X101249499Y-133473920D01*
X101278340Y-133618907D01*
X101278343Y-133618917D01*
X101334914Y-133755492D01*
X101367812Y-133804727D01*
X101367813Y-133804730D01*
X101417046Y-133878414D01*
X101417052Y-133878421D01*
X102321584Y-134782952D01*
X102321586Y-134782954D01*
X102332774Y-134790429D01*
X102395270Y-134832186D01*
X102444505Y-134865084D01*
X102444506Y-134865084D01*
X102444507Y-134865085D01*
X102444509Y-134865086D01*
X102581082Y-134921656D01*
X102581087Y-134921658D01*
X102581091Y-134921658D01*
X102581092Y-134921659D01*
X102726079Y-134950500D01*
X102726082Y-134950500D01*
X107373920Y-134950500D01*
X107471462Y-134931096D01*
X107518913Y-134921658D01*
X107655495Y-134865084D01*
X107704729Y-134832186D01*
X107704734Y-134832183D01*
X107767225Y-134790429D01*
X107778416Y-134782952D01*
X109274548Y-133286818D01*
X109335871Y-133253334D01*
X109362229Y-133250500D01*
X109374335Y-133250500D01*
X109619614Y-133209571D01*
X109854810Y-133128828D01*
X110073509Y-133010474D01*
X110269744Y-132857738D01*
X110438164Y-132674785D01*
X110574173Y-132466607D01*
X110674063Y-132238881D01*
X110735108Y-131997821D01*
X110755643Y-131750000D01*
X110755563Y-131749035D01*
X110735109Y-131502187D01*
X110735106Y-131502170D01*
X110716857Y-131430109D01*
X110719481Y-131360288D01*
X110749381Y-131311986D01*
X111274549Y-130786819D01*
X111335872Y-130753334D01*
X111362230Y-130750500D01*
X112676082Y-130750500D01*
X113637770Y-130750500D01*
X113704809Y-130770185D01*
X113725451Y-130786819D01*
X114250618Y-131311986D01*
X114284103Y-131373309D01*
X114283143Y-131430107D01*
X114264891Y-131502182D01*
X114244357Y-131749994D01*
X114244357Y-131750005D01*
X114264890Y-131997812D01*
X114264892Y-131997824D01*
X114325936Y-132238881D01*
X114425826Y-132466606D01*
X114561833Y-132674782D01*
X114561836Y-132674785D01*
X114730256Y-132857738D01*
X114926491Y-133010474D01*
X115145190Y-133128828D01*
X115380386Y-133209571D01*
X115625665Y-133250500D01*
X115874335Y-133250500D01*
X116119614Y-133209571D01*
X116354810Y-133128828D01*
X116573509Y-133010474D01*
X116769744Y-132857738D01*
X116938164Y-132674785D01*
X117074173Y-132466607D01*
X117174063Y-132238881D01*
X117235108Y-131997821D01*
X117255643Y-131750005D01*
X119244357Y-131750005D01*
X119264890Y-131997812D01*
X119264892Y-131997824D01*
X119325936Y-132238881D01*
X119425826Y-132466606D01*
X119561833Y-132674782D01*
X119561836Y-132674785D01*
X119730256Y-132857738D01*
X119926491Y-133010474D01*
X120145190Y-133128828D01*
X120380386Y-133209571D01*
X120625665Y-133250500D01*
X120874335Y-133250500D01*
X121119614Y-133209571D01*
X121354810Y-133128828D01*
X121573509Y-133010474D01*
X121769744Y-132857738D01*
X121938164Y-132674785D01*
X122074173Y-132466607D01*
X122174063Y-132238881D01*
X122235108Y-131997821D01*
X122255643Y-131750000D01*
X122255563Y-131749035D01*
X122235109Y-131502187D01*
X122235107Y-131502175D01*
X122174063Y-131261118D01*
X122074173Y-131033393D01*
X121938166Y-130825217D01*
X121869384Y-130750500D01*
X121769744Y-130642262D01*
X121573509Y-130489526D01*
X121573507Y-130489525D01*
X121573506Y-130489524D01*
X121354811Y-130371172D01*
X121354802Y-130371169D01*
X121119616Y-130290429D01*
X120874335Y-130249500D01*
X120625665Y-130249500D01*
X120380383Y-130290429D01*
X120145197Y-130371169D01*
X120145188Y-130371172D01*
X119926493Y-130489524D01*
X119730257Y-130642261D01*
X119561833Y-130825217D01*
X119425826Y-131033393D01*
X119325936Y-131261118D01*
X119264892Y-131502175D01*
X119264890Y-131502187D01*
X119244357Y-131749994D01*
X119244357Y-131750005D01*
X117255643Y-131750005D01*
X117255643Y-131750000D01*
X117255563Y-131749035D01*
X117235109Y-131502187D01*
X117235107Y-131502175D01*
X117174063Y-131261118D01*
X117074173Y-131033393D01*
X116938166Y-130825217D01*
X116869384Y-130750500D01*
X116769744Y-130642262D01*
X116573509Y-130489526D01*
X116573507Y-130489525D01*
X116573506Y-130489524D01*
X116354811Y-130371172D01*
X116354802Y-130371169D01*
X116119616Y-130290429D01*
X115874335Y-130249500D01*
X115625665Y-130249500D01*
X115418841Y-130284011D01*
X115349476Y-130275629D01*
X115310751Y-130249383D01*
X114478421Y-129417052D01*
X114478414Y-129417046D01*
X114404729Y-129367812D01*
X114404729Y-129367813D01*
X114355491Y-129334913D01*
X114218917Y-129278343D01*
X114218907Y-129278340D01*
X114073920Y-129249500D01*
X114073918Y-129249500D01*
X112823918Y-129249500D01*
X112169808Y-129249500D01*
X112102769Y-129229815D01*
X112057014Y-129177011D01*
X112047070Y-129107853D01*
X112076095Y-129044297D01*
X112082127Y-129037819D01*
X112305273Y-128814672D01*
X112305272Y-128814672D01*
X112305276Y-128814669D01*
X112376465Y-128708127D01*
X112425501Y-128589744D01*
X112426379Y-128585331D01*
X112443619Y-128498664D01*
X112450500Y-128464071D01*
X112450500Y-127801439D01*
X112470185Y-127734400D01*
X112522989Y-127688645D01*
X112531168Y-127685257D01*
X112642326Y-127643798D01*
X112642326Y-127643797D01*
X112642331Y-127643796D01*
X112757546Y-127557546D01*
X112843796Y-127442331D01*
X112859020Y-127401513D01*
X112885258Y-127331167D01*
X112927129Y-127275233D01*
X112992593Y-127250816D01*
X113001440Y-127250500D01*
X113601968Y-127250500D01*
X113669007Y-127270185D01*
X113707506Y-127309403D01*
X113754657Y-127385846D01*
X113754660Y-127385850D01*
X113876650Y-127507840D01*
X114023484Y-127598408D01*
X114187247Y-127652674D01*
X114288323Y-127663000D01*
X114886676Y-127662999D01*
X114886684Y-127662998D01*
X114886687Y-127662998D01*
X114942030Y-127657344D01*
X114987753Y-127652674D01*
X115151516Y-127598408D01*
X115298350Y-127507840D01*
X115412319Y-127393871D01*
X115473642Y-127360386D01*
X115543334Y-127365370D01*
X115587681Y-127393871D01*
X115701650Y-127507840D01*
X115848484Y-127598408D01*
X116012247Y-127652674D01*
X116113323Y-127663000D01*
X116711676Y-127662999D01*
X116711684Y-127662998D01*
X116711687Y-127662998D01*
X116767030Y-127657344D01*
X116812753Y-127652674D01*
X116976516Y-127598408D01*
X117123350Y-127507840D01*
X117245340Y-127385850D01*
X117245341Y-127385847D01*
X117245344Y-127385845D01*
X117245945Y-127385086D01*
X117246489Y-127384700D01*
X117250447Y-127380743D01*
X117251123Y-127381419D01*
X117302968Y-127344711D01*
X117343208Y-127338000D01*
X119766692Y-127338000D01*
X119833731Y-127357685D01*
X119854373Y-127374319D01*
X121385325Y-128905272D01*
X121385332Y-128905278D01*
X121469740Y-128961677D01*
X121469741Y-128961677D01*
X121491873Y-128976465D01*
X121610256Y-129025501D01*
X121610260Y-129025501D01*
X121610261Y-129025502D01*
X121735928Y-129050500D01*
X121735931Y-129050500D01*
X125414071Y-129050500D01*
X125498615Y-129033682D01*
X125539744Y-129025501D01*
X125658127Y-128976465D01*
X125680259Y-128961677D01*
X125764669Y-128905277D01*
X128322742Y-126347203D01*
X128384063Y-126313720D01*
X128453755Y-126318704D01*
X128509688Y-126360576D01*
X128534105Y-126426040D01*
X128533779Y-126447488D01*
X128524500Y-126538313D01*
X128524500Y-127136669D01*
X128524501Y-127136687D01*
X128534825Y-127237752D01*
X128568045Y-127338000D01*
X128583899Y-127385846D01*
X128589092Y-127401515D01*
X128589093Y-127401518D01*
X128679661Y-127548351D01*
X128793629Y-127662319D01*
X128827114Y-127723642D01*
X128822130Y-127793334D01*
X128793629Y-127837681D01*
X128679661Y-127951648D01*
X128589093Y-128098481D01*
X128589092Y-128098484D01*
X128534826Y-128262247D01*
X128534826Y-128262248D01*
X128534825Y-128262248D01*
X128524500Y-128363315D01*
X128524500Y-128961669D01*
X128524501Y-128961677D01*
X128534825Y-129062752D01*
X128571109Y-129172249D01*
X128589092Y-129226516D01*
X128679660Y-129373350D01*
X128801650Y-129495340D01*
X128801656Y-129495343D01*
X128802405Y-129495936D01*
X128802790Y-129496480D01*
X128806757Y-129500447D01*
X128806079Y-129501124D01*
X128842785Y-129552956D01*
X128849500Y-129593207D01*
X128849500Y-131069691D01*
X128829815Y-131136730D01*
X128777011Y-131182485D01*
X128707853Y-131192429D01*
X128644297Y-131163404D01*
X128611944Y-131119501D01*
X128574173Y-131033393D01*
X128438166Y-130825217D01*
X128369384Y-130750500D01*
X128269744Y-130642262D01*
X128073509Y-130489526D01*
X128073507Y-130489525D01*
X128073506Y-130489524D01*
X127854811Y-130371172D01*
X127854802Y-130371169D01*
X127619616Y-130290429D01*
X127374335Y-130249500D01*
X127125665Y-130249500D01*
X126880383Y-130290429D01*
X126645197Y-130371169D01*
X126645188Y-130371172D01*
X126426493Y-130489524D01*
X126230257Y-130642261D01*
X126061833Y-130825217D01*
X125925826Y-131033393D01*
X125825936Y-131261118D01*
X125764892Y-131502175D01*
X125764890Y-131502187D01*
X125744357Y-131749994D01*
X125744357Y-131750005D01*
X125764890Y-131997812D01*
X125764892Y-131997824D01*
X125825936Y-132238881D01*
X125925826Y-132466606D01*
X126061833Y-132674782D01*
X126061836Y-132674785D01*
X126230256Y-132857738D01*
X126426491Y-133010474D01*
X126645190Y-133128828D01*
X126880386Y-133209571D01*
X127125665Y-133250500D01*
X127374335Y-133250500D01*
X127619614Y-133209571D01*
X127854810Y-133128828D01*
X128073509Y-133010474D01*
X128269744Y-132857738D01*
X128438164Y-132674785D01*
X128574173Y-132466607D01*
X128611944Y-132380498D01*
X128656900Y-132327012D01*
X128723636Y-132306322D01*
X128790964Y-132324997D01*
X128837507Y-132377107D01*
X128849500Y-132430308D01*
X128849500Y-135475500D01*
X128829815Y-135542539D01*
X128777011Y-135588294D01*
X128725500Y-135599500D01*
X128683837Y-135599500D01*
X128616798Y-135579815D01*
X128577438Y-135537384D01*
X128576978Y-135537686D01*
X128575214Y-135534987D01*
X128574786Y-135534525D01*
X128574173Y-135533393D01*
X128438166Y-135325217D01*
X128416557Y-135301744D01*
X128269744Y-135142262D01*
X128073509Y-134989526D01*
X128073507Y-134989525D01*
X128073506Y-134989524D01*
X127854811Y-134871172D01*
X127854802Y-134871169D01*
X127619616Y-134790429D01*
X127374335Y-134749500D01*
X127125665Y-134749500D01*
X126880383Y-134790429D01*
X126645197Y-134871169D01*
X126645188Y-134871172D01*
X126426493Y-134989524D01*
X126230257Y-135142261D01*
X126061833Y-135325217D01*
X125925826Y-135533393D01*
X125825936Y-135761118D01*
X125764892Y-136002175D01*
X125764890Y-136002187D01*
X125744357Y-136249994D01*
X125744357Y-136250005D01*
X125764890Y-136497812D01*
X125764892Y-136497824D01*
X125825936Y-136738881D01*
X125925826Y-136966606D01*
X126061833Y-137174782D01*
X126061836Y-137174785D01*
X126230256Y-137357738D01*
X126426491Y-137510474D01*
X126645190Y-137628828D01*
X126880386Y-137709571D01*
X127125665Y-137750500D01*
X127374335Y-137750500D01*
X127619614Y-137709571D01*
X127854810Y-137628828D01*
X128073509Y-137510474D01*
X128269744Y-137357738D01*
X128438164Y-137174785D01*
X128574173Y-136966607D01*
X128574175Y-136966601D01*
X128574786Y-136965475D01*
X128575157Y-136965101D01*
X128576978Y-136962314D01*
X128577551Y-136962688D01*
X128624009Y-136915888D01*
X128683837Y-136900500D01*
X129164071Y-136900500D01*
X129248615Y-136883682D01*
X129289744Y-136875501D01*
X129408127Y-136826465D01*
X129514669Y-136755277D01*
X130005276Y-136264670D01*
X130076465Y-136158127D01*
X130125501Y-136039744D01*
X130132973Y-136002179D01*
X130150500Y-135914069D01*
X130150500Y-129593207D01*
X130170185Y-129526168D01*
X130193380Y-129500584D01*
X130193243Y-129500447D01*
X130196050Y-129497639D01*
X130197595Y-129495936D01*
X130198339Y-129495346D01*
X130198350Y-129495340D01*
X130320340Y-129373350D01*
X130410908Y-129226516D01*
X130465174Y-129062753D01*
X130475500Y-128961677D01*
X130475499Y-128363324D01*
X130473797Y-128346666D01*
X130465174Y-128262247D01*
X130449416Y-128214693D01*
X130410908Y-128098484D01*
X130320340Y-127951650D01*
X130206371Y-127837681D01*
X130172886Y-127776358D01*
X130177870Y-127706666D01*
X130206371Y-127662319D01*
X130224897Y-127643793D01*
X130320340Y-127548350D01*
X130410908Y-127401516D01*
X130465174Y-127237753D01*
X130475500Y-127136677D01*
X130475499Y-126538324D01*
X130465174Y-126437247D01*
X130410908Y-126273484D01*
X130320340Y-126126650D01*
X130198350Y-126004660D01*
X130198349Y-126004659D01*
X130198347Y-126004657D01*
X130197593Y-126004061D01*
X130197209Y-126003519D01*
X130193243Y-125999553D01*
X130193920Y-125998875D01*
X130157214Y-125947041D01*
X130150500Y-125906792D01*
X130150500Y-125735928D01*
X130125502Y-125610261D01*
X130125501Y-125610260D01*
X130125501Y-125610256D01*
X130103111Y-125556202D01*
X130079625Y-125499500D01*
X130079623Y-125499497D01*
X130076465Y-125491872D01*
X130076462Y-125491868D01*
X130005278Y-125385332D01*
X130005272Y-125385325D01*
X129411819Y-124791872D01*
X129378334Y-124730549D01*
X129375500Y-124704191D01*
X129375500Y-124249499D01*
X129395185Y-124182460D01*
X129447989Y-124136705D01*
X129499500Y-124125499D01*
X129622871Y-124125499D01*
X129622872Y-124125499D01*
X129682483Y-124119091D01*
X129817331Y-124068796D01*
X129932546Y-123982546D01*
X130018796Y-123867331D01*
X130069091Y-123732483D01*
X130075500Y-123672873D01*
X130075499Y-121877128D01*
X130069091Y-121817517D01*
X130057550Y-121786575D01*
X130018797Y-121682671D01*
X130018793Y-121682664D01*
X129932547Y-121567455D01*
X129932544Y-121567452D01*
X129817335Y-121481206D01*
X129817328Y-121481202D01*
X129685917Y-121432189D01*
X129629983Y-121390318D01*
X129605566Y-121324853D01*
X129620418Y-121256580D01*
X129641563Y-121228332D01*
X129763495Y-121106401D01*
X129899035Y-120912830D01*
X129998903Y-120698663D01*
X130004838Y-120676515D01*
X130022553Y-120610398D01*
X130040155Y-120544705D01*
X130072246Y-120489120D01*
X131832952Y-118728416D01*
X131859620Y-118688504D01*
X131891458Y-118640855D01*
X131891460Y-118640850D01*
X131891466Y-118640842D01*
X131915084Y-118605495D01*
X131971658Y-118468913D01*
X131990339Y-118375000D01*
X132000500Y-118323920D01*
X132000500Y-115813579D01*
X131971659Y-115668592D01*
X131971658Y-115668591D01*
X131971658Y-115668587D01*
X131964157Y-115650477D01*
X131915087Y-115532011D01*
X131915080Y-115531998D01*
X131832952Y-115409085D01*
X131784186Y-115360319D01*
X131728416Y-115304549D01*
X130975167Y-114551300D01*
X130186818Y-113762950D01*
X130153333Y-113701627D01*
X130150499Y-113675269D01*
X130150499Y-113463330D01*
X130150498Y-113463313D01*
X130140174Y-113362247D01*
X130121786Y-113306757D01*
X130085908Y-113198484D01*
X129995340Y-113051650D01*
X129873350Y-112929660D01*
X129782129Y-112873395D01*
X129726518Y-112839093D01*
X129726513Y-112839091D01*
X129688398Y-112826461D01*
X129562753Y-112784826D01*
X129562751Y-112784825D01*
X129461678Y-112774500D01*
X128763330Y-112774500D01*
X128763312Y-112774501D01*
X128662247Y-112784825D01*
X128498484Y-112839092D01*
X128498481Y-112839093D01*
X128351648Y-112929661D01*
X128337325Y-112943984D01*
X128276001Y-112977468D01*
X128206309Y-112972482D01*
X128161965Y-112943982D01*
X128148038Y-112930055D01*
X128148034Y-112930052D01*
X128001311Y-112839551D01*
X128001300Y-112839546D01*
X127837652Y-112785319D01*
X127736654Y-112775000D01*
X127637500Y-112775000D01*
X127637500Y-114724999D01*
X127736640Y-114724999D01*
X127736654Y-114724998D01*
X127837652Y-114714680D01*
X128001300Y-114660453D01*
X128001311Y-114660448D01*
X128148035Y-114569947D01*
X128161960Y-114556021D01*
X128223282Y-114522533D01*
X128292973Y-114527514D01*
X128337327Y-114556017D01*
X128351650Y-114570340D01*
X128498484Y-114660908D01*
X128662247Y-114715174D01*
X128763323Y-114725500D01*
X128975268Y-114725499D01*
X129042308Y-114745183D01*
X129062950Y-114761818D01*
X130463181Y-116162048D01*
X130496666Y-116223371D01*
X130499500Y-116249729D01*
X130499500Y-117887769D01*
X130479815Y-117954808D01*
X130463181Y-117975450D01*
X130222549Y-118216082D01*
X130161226Y-118249567D01*
X130091534Y-118244583D01*
X130035601Y-118202711D01*
X130011184Y-118137247D01*
X130015093Y-118096307D01*
X130055636Y-117945000D01*
X129158012Y-117945000D01*
X129190925Y-117887993D01*
X129225000Y-117760826D01*
X129225000Y-117629174D01*
X129190925Y-117502007D01*
X129158012Y-117445000D01*
X130055636Y-117445000D01*
X130055635Y-117444999D01*
X129998432Y-117231513D01*
X129998429Y-117231507D01*
X129898600Y-117017422D01*
X129898599Y-117017420D01*
X129763113Y-116823926D01*
X129763108Y-116823920D01*
X129596082Y-116656894D01*
X129402578Y-116521399D01*
X129188492Y-116421570D01*
X129188486Y-116421567D01*
X128975000Y-116364364D01*
X128975000Y-117261988D01*
X128917993Y-117229075D01*
X128790826Y-117195000D01*
X128659174Y-117195000D01*
X128532007Y-117229075D01*
X128475000Y-117261988D01*
X128475000Y-116364364D01*
X128474999Y-116364364D01*
X128261513Y-116421567D01*
X128261507Y-116421570D01*
X128047422Y-116521399D01*
X128047420Y-116521400D01*
X127853926Y-116656886D01*
X127853920Y-116656891D01*
X127686891Y-116823920D01*
X127686886Y-116823926D01*
X127551400Y-117017420D01*
X127551399Y-117017422D01*
X127451570Y-117231507D01*
X127451566Y-117231516D01*
X127390432Y-117459673D01*
X127390430Y-117459683D01*
X127383085Y-117543636D01*
X127357632Y-117608704D01*
X127301041Y-117649682D01*
X127231278Y-117653559D01*
X127171877Y-117620509D01*
X127055916Y-117504548D01*
X127055915Y-117504547D01*
X127055914Y-117504546D01*
X126976846Y-117451715D01*
X126976747Y-117451650D01*
X126932995Y-117422416D01*
X126932994Y-117422415D01*
X126932992Y-117422414D01*
X126796417Y-117365843D01*
X126796407Y-117365840D01*
X126651420Y-117337000D01*
X126651418Y-117337000D01*
X122989768Y-117337000D01*
X122950764Y-117330706D01*
X122887753Y-117309826D01*
X122887751Y-117309825D01*
X122786678Y-117299500D01*
X122213330Y-117299500D01*
X122213312Y-117299501D01*
X122112247Y-117309825D01*
X121948484Y-117364092D01*
X121948481Y-117364093D01*
X121801650Y-117454659D01*
X121705700Y-117550608D01*
X121665475Y-117577485D01*
X121614784Y-117598483D01*
X121614782Y-117598484D01*
X121557009Y-117622414D01*
X121556996Y-117622421D01*
X121507769Y-117655313D01*
X121434088Y-117704544D01*
X121434080Y-117704550D01*
X119925451Y-119213181D01*
X119864128Y-119246666D01*
X119837770Y-119249500D01*
X119599499Y-119249500D01*
X119532460Y-119229815D01*
X119486705Y-119177011D01*
X119475499Y-119125500D01*
X119475499Y-119013330D01*
X119475498Y-119013313D01*
X119465174Y-118912247D01*
X119452285Y-118873351D01*
X119410908Y-118748484D01*
X119320340Y-118601650D01*
X119306371Y-118587681D01*
X119272886Y-118526358D01*
X119277870Y-118456666D01*
X119306371Y-118412319D01*
X119320340Y-118398350D01*
X119410908Y-118251516D01*
X119465174Y-118087753D01*
X119475500Y-117986677D01*
X119475499Y-117288324D01*
X119467121Y-117206312D01*
X119465174Y-117187247D01*
X119446940Y-117132222D01*
X119410908Y-117023484D01*
X119320340Y-116876650D01*
X119198350Y-116754660D01*
X119057547Y-116667812D01*
X119051518Y-116664093D01*
X119051513Y-116664091D01*
X119029770Y-116656886D01*
X118887753Y-116609826D01*
X118887751Y-116609825D01*
X118786678Y-116599500D01*
X118213330Y-116599500D01*
X118213312Y-116599501D01*
X118112247Y-116609825D01*
X117948484Y-116664092D01*
X117948481Y-116664093D01*
X117801648Y-116754661D01*
X117679659Y-116876650D01*
X117647928Y-116928096D01*
X117595980Y-116974821D01*
X117542389Y-116987000D01*
X117005068Y-116987000D01*
X116939096Y-116967994D01*
X116849522Y-116911710D01*
X116849518Y-116911709D01*
X116679262Y-116852133D01*
X116679249Y-116852130D01*
X116500004Y-116831935D01*
X116499996Y-116831935D01*
X116320750Y-116852130D01*
X116320737Y-116852133D01*
X116150481Y-116911709D01*
X116150477Y-116911710D01*
X116060904Y-116967994D01*
X115994932Y-116987000D01*
X114910929Y-116987000D01*
X114785261Y-117011997D01*
X114785255Y-117011999D01*
X114666870Y-117061035D01*
X114560331Y-117132222D01*
X114560324Y-117132228D01*
X114229373Y-117463181D01*
X114168050Y-117496666D01*
X114141692Y-117499500D01*
X113659298Y-117499500D01*
X113622432Y-117502401D01*
X113613069Y-117505121D01*
X113606341Y-117507076D01*
X113571748Y-117512000D01*
X112426771Y-117512000D01*
X112359732Y-117492315D01*
X112325132Y-117457070D01*
X112324821Y-117457317D01*
X112322528Y-117454417D01*
X112321233Y-117453098D01*
X112320340Y-117451650D01*
X112206017Y-117337327D01*
X112172532Y-117276004D01*
X112177516Y-117206312D01*
X112206017Y-117161964D01*
X112319948Y-117048033D01*
X112410448Y-116901311D01*
X112410453Y-116901300D01*
X112464680Y-116737652D01*
X112474999Y-116636654D01*
X112475000Y-116636641D01*
X112475000Y-116587500D01*
X110525001Y-116587500D01*
X110525001Y-116636654D01*
X110535319Y-116737652D01*
X110589546Y-116901300D01*
X110589551Y-116901311D01*
X110680052Y-117048034D01*
X110680055Y-117048038D01*
X110793982Y-117161965D01*
X110827467Y-117223288D01*
X110822483Y-117292980D01*
X110793983Y-117337327D01*
X110679659Y-117451651D01*
X110589093Y-117598481D01*
X110589091Y-117598486D01*
X110570842Y-117653559D01*
X110534826Y-117762247D01*
X110534826Y-117762248D01*
X110534825Y-117762248D01*
X110524500Y-117863315D01*
X110524500Y-118461669D01*
X110524501Y-118461687D01*
X110534825Y-118562752D01*
X110561139Y-118642160D01*
X110582121Y-118705480D01*
X110589092Y-118726515D01*
X110589093Y-118726518D01*
X110590264Y-118728416D01*
X110679660Y-118873350D01*
X110801650Y-118995340D01*
X110948484Y-119085908D01*
X111112247Y-119140174D01*
X111213323Y-119150500D01*
X111786676Y-119150499D01*
X111786684Y-119150498D01*
X111786687Y-119150498D01*
X111842030Y-119144844D01*
X111887753Y-119140174D01*
X112051516Y-119085908D01*
X112198350Y-118995340D01*
X112320340Y-118873350D01*
X112321233Y-118871901D01*
X112322104Y-118871117D01*
X112324821Y-118867683D01*
X112325407Y-118868147D01*
X112373180Y-118825179D01*
X112426771Y-118813000D01*
X113116691Y-118813000D01*
X113183730Y-118832685D01*
X113204372Y-118849319D01*
X113323129Y-118968076D01*
X113323133Y-118968079D01*
X113323135Y-118968081D01*
X113464602Y-119051744D01*
X113490751Y-119059341D01*
X113622426Y-119097597D01*
X113622429Y-119097597D01*
X113622431Y-119097598D01*
X113659306Y-119100500D01*
X114825500Y-119100500D01*
X114892539Y-119120185D01*
X114938294Y-119172989D01*
X114949500Y-119224500D01*
X114949500Y-119275500D01*
X114929815Y-119342539D01*
X114877011Y-119388294D01*
X114825500Y-119399500D01*
X113659298Y-119399500D01*
X113622432Y-119402401D01*
X113622426Y-119402402D01*
X113477267Y-119444576D01*
X113442672Y-119449500D01*
X111326080Y-119449500D01*
X111181092Y-119478340D01*
X111181082Y-119478343D01*
X111044511Y-119534912D01*
X111044499Y-119534919D01*
X111011199Y-119557170D01*
X111011198Y-119557170D01*
X110921585Y-119617046D01*
X110921578Y-119617052D01*
X109925450Y-120613181D01*
X109864127Y-120646666D01*
X109837769Y-120649500D01*
X109074500Y-120649500D01*
X109007461Y-120629815D01*
X108961706Y-120577011D01*
X108950500Y-120525500D01*
X108950500Y-120407052D01*
X108970185Y-120340013D01*
X108986819Y-120319371D01*
X109020340Y-120285850D01*
X109110908Y-120139016D01*
X109165174Y-119975253D01*
X109175500Y-119874177D01*
X109175499Y-119175824D01*
X109175209Y-119172989D01*
X109165174Y-119074747D01*
X109157552Y-119051745D01*
X109110908Y-118910984D01*
X109020340Y-118764150D01*
X109006017Y-118749827D01*
X108972532Y-118688504D01*
X108977516Y-118618812D01*
X109006021Y-118574460D01*
X109019947Y-118560535D01*
X109110448Y-118413811D01*
X109110453Y-118413800D01*
X109164680Y-118250152D01*
X109174999Y-118149154D01*
X109175000Y-118149141D01*
X109175000Y-118050000D01*
X107225001Y-118050000D01*
X107225001Y-118149154D01*
X107235319Y-118250152D01*
X107289546Y-118413800D01*
X107289551Y-118413811D01*
X107380052Y-118560534D01*
X107380055Y-118560538D01*
X107393982Y-118574465D01*
X107427467Y-118635788D01*
X107422483Y-118705480D01*
X107393984Y-118749825D01*
X107379661Y-118764148D01*
X107289093Y-118910981D01*
X107289091Y-118910986D01*
X107270499Y-118967093D01*
X107234826Y-119074747D01*
X107234826Y-119074748D01*
X107234825Y-119074748D01*
X107224500Y-119175815D01*
X107224500Y-119874169D01*
X107224501Y-119874187D01*
X107234825Y-119975252D01*
X107262711Y-120059404D01*
X107289092Y-120139016D01*
X107348295Y-120235000D01*
X107379661Y-120285851D01*
X107413181Y-120319371D01*
X107446666Y-120380694D01*
X107449500Y-120407052D01*
X107449500Y-121037770D01*
X107429815Y-121104809D01*
X107413181Y-121125451D01*
X106370451Y-122168181D01*
X106309128Y-122201666D01*
X106282770Y-122204500D01*
X105587701Y-122204500D01*
X105520662Y-122184815D01*
X105486126Y-122151623D01*
X105438494Y-122083597D01*
X105271402Y-121916506D01*
X105271396Y-121916501D01*
X105085842Y-121786575D01*
X105042217Y-121731998D01*
X105035023Y-121662500D01*
X105066546Y-121600145D01*
X105085842Y-121583425D01*
X105108654Y-121567452D01*
X105271401Y-121453495D01*
X105438495Y-121286401D01*
X105574035Y-121092830D01*
X105673903Y-120878663D01*
X105735063Y-120650408D01*
X105755659Y-120415000D01*
X105735063Y-120179592D01*
X105673903Y-119951337D01*
X105574035Y-119737171D01*
X105513332Y-119650478D01*
X105438496Y-119543600D01*
X105392633Y-119497737D01*
X105316179Y-119421283D01*
X105282696Y-119359963D01*
X105287680Y-119290271D01*
X105329551Y-119234337D01*
X105360529Y-119217422D01*
X105492086Y-119168354D01*
X105492093Y-119168350D01*
X105607187Y-119082190D01*
X105607190Y-119082187D01*
X105693350Y-118967093D01*
X105693354Y-118967086D01*
X105743596Y-118832379D01*
X105743598Y-118832372D01*
X105749999Y-118772844D01*
X105750000Y-118772827D01*
X105750000Y-118125000D01*
X104833012Y-118125000D01*
X104865925Y-118067993D01*
X104900000Y-117940826D01*
X104900000Y-117809174D01*
X104865925Y-117682007D01*
X104833012Y-117625000D01*
X105750000Y-117625000D01*
X105750000Y-117550000D01*
X107225000Y-117550000D01*
X107950000Y-117550000D01*
X107950000Y-116762500D01*
X108450000Y-116762500D01*
X108450000Y-117550000D01*
X109174999Y-117550000D01*
X109174999Y-117450860D01*
X109174998Y-117450845D01*
X109164680Y-117349847D01*
X109110453Y-117186199D01*
X109110448Y-117186188D01*
X109019947Y-117039465D01*
X109019944Y-117039461D01*
X108898038Y-116917555D01*
X108898034Y-116917552D01*
X108751311Y-116827051D01*
X108751300Y-116827046D01*
X108587652Y-116772819D01*
X108486654Y-116762500D01*
X108450000Y-116762500D01*
X107950000Y-116762500D01*
X107913361Y-116762500D01*
X107913343Y-116762501D01*
X107812347Y-116772819D01*
X107648699Y-116827046D01*
X107648688Y-116827051D01*
X107501965Y-116917552D01*
X107501961Y-116917555D01*
X107380055Y-117039461D01*
X107380052Y-117039465D01*
X107289551Y-117186188D01*
X107289546Y-117186199D01*
X107235319Y-117349847D01*
X107225000Y-117450845D01*
X107225000Y-117550000D01*
X105750000Y-117550000D01*
X105750000Y-116977172D01*
X105749999Y-116977155D01*
X105743598Y-116917627D01*
X105743596Y-116917620D01*
X105693354Y-116782913D01*
X105693350Y-116782906D01*
X105607190Y-116667812D01*
X105607187Y-116667809D01*
X105492093Y-116581649D01*
X105492086Y-116581645D01*
X105357379Y-116531403D01*
X105357372Y-116531401D01*
X105297844Y-116525000D01*
X104650000Y-116525000D01*
X104650000Y-117441988D01*
X104592993Y-117409075D01*
X104465826Y-117375000D01*
X104334174Y-117375000D01*
X104207007Y-117409075D01*
X104150000Y-117441988D01*
X104150000Y-116525000D01*
X103502155Y-116525000D01*
X103442627Y-116531401D01*
X103442620Y-116531403D01*
X103307913Y-116581645D01*
X103307906Y-116581649D01*
X103192812Y-116667809D01*
X103192809Y-116667812D01*
X103106649Y-116782906D01*
X103106645Y-116782913D01*
X103056403Y-116917620D01*
X103056401Y-116917627D01*
X103050000Y-116977155D01*
X103050000Y-117625000D01*
X103966988Y-117625000D01*
X103934075Y-117682007D01*
X103900000Y-117809174D01*
X103900000Y-117940826D01*
X103934075Y-118067993D01*
X103966988Y-118125000D01*
X103050000Y-118125000D01*
X103050000Y-118772844D01*
X103056401Y-118832372D01*
X103056403Y-118832379D01*
X103106645Y-118967086D01*
X103106649Y-118967093D01*
X103192809Y-119082187D01*
X103192812Y-119082190D01*
X103307906Y-119168350D01*
X103307913Y-119168354D01*
X103439470Y-119217421D01*
X103495403Y-119259292D01*
X103519821Y-119324756D01*
X103504970Y-119393029D01*
X103483819Y-119421284D01*
X103361503Y-119543600D01*
X103225965Y-119737169D01*
X103225964Y-119737171D01*
X103126098Y-119951335D01*
X103126094Y-119951344D01*
X103064938Y-120179586D01*
X103064936Y-120179596D01*
X103044341Y-120414999D01*
X103044341Y-120415000D01*
X103064936Y-120650403D01*
X103064938Y-120650413D01*
X103126094Y-120878655D01*
X103126096Y-120878659D01*
X103126097Y-120878663D01*
X103182910Y-121000499D01*
X103225965Y-121092830D01*
X103225967Y-121092834D01*
X103361501Y-121286395D01*
X103361506Y-121286402D01*
X103528597Y-121453493D01*
X103528603Y-121453498D01*
X103714158Y-121583425D01*
X103757783Y-121638002D01*
X103764977Y-121707500D01*
X103733454Y-121769855D01*
X103714158Y-121786575D01*
X103528597Y-121916505D01*
X103361506Y-122083596D01*
X103313874Y-122151623D01*
X103259297Y-122195248D01*
X103212299Y-122204500D01*
X103081076Y-122204500D01*
X103052242Y-122210234D01*
X103052243Y-122210235D01*
X102936093Y-122233339D01*
X102936089Y-122233340D01*
X102919865Y-122240061D01*
X102872412Y-122249500D01*
X102362229Y-122249500D01*
X102295190Y-122229815D01*
X102274548Y-122213181D01*
X102036819Y-121975451D01*
X102003334Y-121914128D01*
X102000500Y-121887770D01*
X102000500Y-116087500D01*
X110525000Y-116087500D01*
X111250000Y-116087500D01*
X111250000Y-115350000D01*
X111750000Y-115350000D01*
X111750000Y-116087500D01*
X112474999Y-116087500D01*
X112474999Y-116038360D01*
X112474998Y-116038345D01*
X112464680Y-115937347D01*
X112410453Y-115773699D01*
X112410448Y-115773688D01*
X112319947Y-115626965D01*
X112319944Y-115626961D01*
X112198038Y-115505055D01*
X112198034Y-115505052D01*
X112051311Y-115414551D01*
X112051300Y-115414546D01*
X111887652Y-115360319D01*
X111786654Y-115350000D01*
X111750000Y-115350000D01*
X111250000Y-115350000D01*
X111213361Y-115350000D01*
X111213343Y-115350001D01*
X111112347Y-115360319D01*
X110948699Y-115414546D01*
X110948688Y-115414551D01*
X110801965Y-115505052D01*
X110801961Y-115505055D01*
X110680055Y-115626961D01*
X110680052Y-115626965D01*
X110589551Y-115773688D01*
X110589546Y-115773699D01*
X110535319Y-115937347D01*
X110525000Y-116038345D01*
X110525000Y-116087500D01*
X102000500Y-116087500D01*
X102000500Y-114250000D01*
X105350001Y-114250000D01*
X105350001Y-114286654D01*
X105360319Y-114387652D01*
X105414546Y-114551300D01*
X105414551Y-114551311D01*
X105505052Y-114698034D01*
X105505055Y-114698038D01*
X105626961Y-114819944D01*
X105626965Y-114819947D01*
X105773688Y-114910448D01*
X105773699Y-114910453D01*
X105937347Y-114964680D01*
X106038351Y-114974999D01*
X106125000Y-114974998D01*
X106125000Y-114250000D01*
X105350001Y-114250000D01*
X102000500Y-114250000D01*
X102000500Y-110612229D01*
X102020185Y-110545190D01*
X102036819Y-110524548D01*
X102524548Y-110036819D01*
X102585871Y-110003334D01*
X102612229Y-110000500D01*
X102725500Y-110000500D01*
X102792539Y-110020185D01*
X102838294Y-110072989D01*
X102849500Y-110124500D01*
X102849500Y-111814071D01*
X102869984Y-111917046D01*
X102869984Y-111917047D01*
X102874497Y-111939737D01*
X102874500Y-111939747D01*
X102923532Y-112058123D01*
X102994726Y-112164673D01*
X103585325Y-112755272D01*
X103585332Y-112755278D01*
X103661863Y-112806414D01*
X103661864Y-112806414D01*
X103691873Y-112826465D01*
X103810256Y-112875501D01*
X103810260Y-112875501D01*
X103810261Y-112875502D01*
X103935928Y-112900500D01*
X103935931Y-112900500D01*
X104064069Y-112900500D01*
X105642954Y-112900500D01*
X105709993Y-112920185D01*
X105755748Y-112972989D01*
X105765692Y-113042147D01*
X105736667Y-113105703D01*
X105708051Y-113130038D01*
X105626965Y-113180052D01*
X105626961Y-113180055D01*
X105505055Y-113301961D01*
X105505052Y-113301965D01*
X105414551Y-113448688D01*
X105414546Y-113448699D01*
X105360319Y-113612347D01*
X105350000Y-113713345D01*
X105350000Y-113750000D01*
X106501000Y-113750000D01*
X106568039Y-113769685D01*
X106613794Y-113822489D01*
X106625000Y-113874000D01*
X106625000Y-114974999D01*
X106711640Y-114974999D01*
X106711654Y-114974998D01*
X106812652Y-114964680D01*
X106976300Y-114910453D01*
X106976311Y-114910448D01*
X107123034Y-114819947D01*
X107123037Y-114819945D01*
X107161964Y-114781018D01*
X107223287Y-114747532D01*
X107292978Y-114752516D01*
X107337327Y-114781017D01*
X107376650Y-114820340D01*
X107523484Y-114910908D01*
X107687247Y-114965174D01*
X107788323Y-114975500D01*
X108461676Y-114975499D01*
X108461684Y-114975498D01*
X108461687Y-114975498D01*
X108517030Y-114969844D01*
X108562753Y-114965174D01*
X108726516Y-114910908D01*
X108873350Y-114820340D01*
X108995340Y-114698350D01*
X108995341Y-114698347D01*
X108995344Y-114698345D01*
X108995945Y-114697586D01*
X108996489Y-114697200D01*
X109000447Y-114693243D01*
X109001123Y-114693919D01*
X109052968Y-114657211D01*
X109093208Y-114650500D01*
X109406792Y-114650500D01*
X109473831Y-114670185D01*
X109499415Y-114693380D01*
X109499553Y-114693243D01*
X109502352Y-114696042D01*
X109504055Y-114697586D01*
X109504655Y-114698345D01*
X109504660Y-114698350D01*
X109626650Y-114820340D01*
X109773484Y-114910908D01*
X109937247Y-114965174D01*
X110038323Y-114975500D01*
X110636676Y-114975499D01*
X110636684Y-114975498D01*
X110636687Y-114975498D01*
X110692030Y-114969844D01*
X110737753Y-114965174D01*
X110901516Y-114910908D01*
X111048350Y-114820340D01*
X111162319Y-114706371D01*
X111223642Y-114672886D01*
X111293334Y-114677870D01*
X111337681Y-114706371D01*
X111451650Y-114820340D01*
X111598484Y-114910908D01*
X111762247Y-114965174D01*
X111863323Y-114975500D01*
X112461676Y-114975499D01*
X112461684Y-114975498D01*
X112461687Y-114975498D01*
X112517030Y-114969844D01*
X112562753Y-114965174D01*
X112726516Y-114910908D01*
X112873350Y-114820340D01*
X112995340Y-114698350D01*
X113085908Y-114551516D01*
X113140174Y-114387753D01*
X113150500Y-114286677D01*
X113150499Y-113713324D01*
X113140174Y-113612247D01*
X113085908Y-113448484D01*
X112995340Y-113301650D01*
X112936819Y-113243129D01*
X112903334Y-113181806D01*
X112900500Y-113155448D01*
X112900500Y-112685928D01*
X112875502Y-112560261D01*
X112875501Y-112560260D01*
X112875501Y-112560256D01*
X112826465Y-112441873D01*
X112825042Y-112439744D01*
X112755277Y-112335331D01*
X112755275Y-112335329D01*
X112755273Y-112335326D01*
X112755272Y-112335325D01*
X112482126Y-112062180D01*
X112448641Y-112000857D01*
X112453625Y-111931166D01*
X112495496Y-111875232D01*
X112560961Y-111850815D01*
X112569807Y-111850499D01*
X112747871Y-111850499D01*
X112747872Y-111850499D01*
X112807483Y-111844091D01*
X112942331Y-111793796D01*
X113057546Y-111707546D01*
X113143796Y-111592331D01*
X113194091Y-111457483D01*
X113200500Y-111397873D01*
X113200499Y-110102128D01*
X113194091Y-110042517D01*
X113190524Y-110032954D01*
X113143797Y-109907671D01*
X113143793Y-109907664D01*
X113057547Y-109792455D01*
X113057544Y-109792452D01*
X112942335Y-109706206D01*
X112942328Y-109706202D01*
X112807482Y-109655908D01*
X112807483Y-109655908D01*
X112747883Y-109649501D01*
X112747881Y-109649500D01*
X112747873Y-109649500D01*
X112747865Y-109649500D01*
X112112229Y-109649500D01*
X112045190Y-109629815D01*
X112024548Y-109613181D01*
X111949048Y-109537681D01*
X111915563Y-109476358D01*
X111920547Y-109406666D01*
X111949048Y-109362319D01*
X113382949Y-107928418D01*
X113382951Y-107928416D01*
X113417143Y-107877244D01*
X113465084Y-107805495D01*
X113521658Y-107668913D01*
X113533412Y-107609825D01*
X113550500Y-107523920D01*
X113550500Y-107271030D01*
X113563592Y-107215574D01*
X113567544Y-107207671D01*
X113572459Y-107197841D01*
X113604158Y-107042937D01*
X113594685Y-106885105D01*
X113556863Y-106771639D01*
X113550500Y-106732427D01*
X113550500Y-104926079D01*
X113521659Y-104781092D01*
X113521658Y-104781091D01*
X113521658Y-104781087D01*
X113489185Y-104702690D01*
X113465087Y-104644511D01*
X113465080Y-104644498D01*
X113382951Y-104521584D01*
X113382948Y-104521580D01*
X113373819Y-104512451D01*
X113340334Y-104451128D01*
X113337500Y-104424770D01*
X113337500Y-102712500D01*
X113337499Y-102712499D01*
X113288361Y-102712500D01*
X113288343Y-102712501D01*
X113187347Y-102722819D01*
X113023699Y-102777046D01*
X113023688Y-102777051D01*
X112876965Y-102867552D01*
X112876961Y-102867555D01*
X112755055Y-102989461D01*
X112755052Y-102989465D01*
X112664551Y-103136188D01*
X112664546Y-103136199D01*
X112610319Y-103299847D01*
X112600554Y-103395424D01*
X112574157Y-103460115D01*
X112516976Y-103500266D01*
X112447165Y-103503129D01*
X112386889Y-103467794D01*
X112358119Y-103417415D01*
X112313780Y-103264800D01*
X112313078Y-103263612D01*
X112312810Y-103262558D01*
X112310684Y-103257644D01*
X112311476Y-103257300D01*
X112295895Y-103195888D01*
X112311509Y-103142714D01*
X112311146Y-103142557D01*
X112312420Y-103139612D01*
X112313079Y-103137369D01*
X112314242Y-103135401D01*
X112314244Y-103135398D01*
X112360098Y-102977569D01*
X112363000Y-102940694D01*
X112363000Y-102509306D01*
X112360098Y-102472431D01*
X112360097Y-102472426D01*
X112312645Y-102309095D01*
X112312844Y-102239225D01*
X112350786Y-102180555D01*
X112414425Y-102151712D01*
X112431721Y-102150500D01*
X114638000Y-102150500D01*
X114705039Y-102170185D01*
X114750794Y-102222989D01*
X114762000Y-102274500D01*
X114762000Y-102760728D01*
X114742315Y-102827767D01*
X114707069Y-102862367D01*
X114707316Y-102862679D01*
X114704415Y-102864972D01*
X114703100Y-102866264D01*
X114701654Y-102867155D01*
X114701648Y-102867160D01*
X114587327Y-102981482D01*
X114526004Y-103014967D01*
X114456312Y-103009983D01*
X114411965Y-102981482D01*
X114298038Y-102867555D01*
X114298034Y-102867552D01*
X114151311Y-102777051D01*
X114151300Y-102777046D01*
X113987652Y-102722819D01*
X113886654Y-102712500D01*
X113837500Y-102712500D01*
X113837500Y-104662499D01*
X113886640Y-104662499D01*
X113886654Y-104662498D01*
X113987652Y-104652180D01*
X114151300Y-104597953D01*
X114151311Y-104597948D01*
X114298033Y-104507448D01*
X114411964Y-104393517D01*
X114473287Y-104360032D01*
X114542979Y-104365016D01*
X114587327Y-104393517D01*
X114701650Y-104507840D01*
X114790596Y-104562702D01*
X114837321Y-104614650D01*
X114849500Y-104668241D01*
X114849500Y-105156792D01*
X114829815Y-105223831D01*
X114806619Y-105249415D01*
X114806757Y-105249553D01*
X114803941Y-105252368D01*
X114802407Y-105254061D01*
X114801652Y-105254657D01*
X114679659Y-105376651D01*
X114589093Y-105523481D01*
X114589092Y-105523484D01*
X114534826Y-105687247D01*
X114534826Y-105687248D01*
X114534825Y-105687248D01*
X114524500Y-105788315D01*
X114524500Y-106386669D01*
X114524501Y-106386687D01*
X114534825Y-106487752D01*
X114571109Y-106597249D01*
X114589092Y-106651516D01*
X114679601Y-106798255D01*
X114679661Y-106798351D01*
X114793629Y-106912319D01*
X114827114Y-106973642D01*
X114822130Y-107043334D01*
X114793629Y-107087681D01*
X114679661Y-107201648D01*
X114589093Y-107348481D01*
X114589091Y-107348486D01*
X114571320Y-107402116D01*
X114534826Y-107512247D01*
X114534826Y-107512248D01*
X114534825Y-107512248D01*
X114524500Y-107613315D01*
X114524500Y-108211669D01*
X114524501Y-108211687D01*
X114534825Y-108312752D01*
X114534827Y-108312758D01*
X114537517Y-108320876D01*
X114539919Y-108390704D01*
X114507493Y-108447559D01*
X114394722Y-108560331D01*
X114381609Y-108579957D01*
X114368552Y-108599500D01*
X114352616Y-108623350D01*
X114323534Y-108666873D01*
X114274499Y-108785255D01*
X114274497Y-108785261D01*
X114249500Y-108910928D01*
X114249500Y-109548560D01*
X114229815Y-109615599D01*
X114177011Y-109661354D01*
X114168833Y-109664742D01*
X114057671Y-109706202D01*
X114057664Y-109706206D01*
X113942455Y-109792452D01*
X113942452Y-109792455D01*
X113856206Y-109907664D01*
X113856202Y-109907671D01*
X113805908Y-110042517D01*
X113800306Y-110094628D01*
X113799501Y-110102123D01*
X113799500Y-110102135D01*
X113799500Y-111397870D01*
X113799501Y-111397876D01*
X113805908Y-111457483D01*
X113856202Y-111592328D01*
X113856206Y-111592335D01*
X113942452Y-111707544D01*
X113942455Y-111707547D01*
X114057664Y-111793793D01*
X114057671Y-111793797D01*
X114192517Y-111844091D01*
X114192516Y-111844091D01*
X114199444Y-111844835D01*
X114252127Y-111850500D01*
X115547872Y-111850499D01*
X115607483Y-111844091D01*
X115742331Y-111793796D01*
X115857546Y-111707546D01*
X115943796Y-111592331D01*
X115947960Y-111581165D01*
X115989829Y-111525234D01*
X116055293Y-111500816D01*
X116064141Y-111500500D01*
X117387770Y-111500500D01*
X117454809Y-111520185D01*
X117475451Y-111536819D01*
X118021580Y-112082948D01*
X118021584Y-112082951D01*
X118144498Y-112165080D01*
X118144511Y-112165087D01*
X118281082Y-112221656D01*
X118281087Y-112221658D01*
X118281091Y-112221658D01*
X118281092Y-112221659D01*
X118426079Y-112250500D01*
X118426082Y-112250500D01*
X118573917Y-112250500D01*
X120900500Y-112250500D01*
X120967539Y-112270185D01*
X121013294Y-112322989D01*
X121024500Y-112374500D01*
X121024500Y-112886669D01*
X121024501Y-112886687D01*
X121034825Y-112987752D01*
X121056104Y-113051965D01*
X121089092Y-113151516D01*
X121148284Y-113247482D01*
X121179661Y-113298351D01*
X121293629Y-113412319D01*
X121327114Y-113473642D01*
X121322130Y-113543334D01*
X121293629Y-113587681D01*
X121179661Y-113701648D01*
X121089093Y-113848481D01*
X121089092Y-113848484D01*
X121034826Y-114012247D01*
X121034826Y-114012248D01*
X121034825Y-114012248D01*
X121024500Y-114113315D01*
X121024500Y-114711669D01*
X121024501Y-114711687D01*
X121034825Y-114812752D01*
X121071109Y-114922249D01*
X121089092Y-114976516D01*
X121179660Y-115123350D01*
X121301650Y-115245340D01*
X121448484Y-115335908D01*
X121612247Y-115390174D01*
X121713323Y-115400500D01*
X122021858Y-115400499D01*
X122088897Y-115420183D01*
X122090711Y-115421372D01*
X122191873Y-115488965D01*
X122310256Y-115538001D01*
X122310260Y-115538001D01*
X122310261Y-115538002D01*
X122435928Y-115563000D01*
X122435931Y-115563000D01*
X122564069Y-115563000D01*
X124130059Y-115563000D01*
X124197098Y-115582685D01*
X124242853Y-115635489D01*
X124252797Y-115704647D01*
X124247100Y-115727955D01*
X124214633Y-115820737D01*
X124214630Y-115820750D01*
X124194435Y-115999996D01*
X124194435Y-116000003D01*
X124214630Y-116179249D01*
X124214631Y-116179254D01*
X124274211Y-116349523D01*
X124370184Y-116502262D01*
X124497738Y-116629816D01*
X124650478Y-116725789D01*
X124755392Y-116762500D01*
X124820745Y-116785368D01*
X124820750Y-116785369D01*
X124999996Y-116805565D01*
X125000000Y-116805565D01*
X125000004Y-116805565D01*
X125179249Y-116785369D01*
X125179252Y-116785368D01*
X125179255Y-116785368D01*
X125349522Y-116725789D01*
X125502262Y-116629816D01*
X125629816Y-116502262D01*
X125725789Y-116349522D01*
X125785368Y-116179255D01*
X125787307Y-116162048D01*
X125805565Y-116000003D01*
X125805565Y-115999996D01*
X125785369Y-115820750D01*
X125785366Y-115820737D01*
X125725790Y-115650481D01*
X125725789Y-115650478D01*
X125683192Y-115582685D01*
X125669506Y-115560903D01*
X125650500Y-115494931D01*
X125650500Y-115343207D01*
X125670185Y-115276168D01*
X125693380Y-115250584D01*
X125693243Y-115250447D01*
X125696050Y-115247639D01*
X125697595Y-115245936D01*
X125698339Y-115245346D01*
X125698350Y-115245340D01*
X125820340Y-115123350D01*
X125910908Y-114976516D01*
X125965174Y-114812753D01*
X125975500Y-114711677D01*
X125975499Y-114013324D01*
X125974138Y-114000000D01*
X126350001Y-114000000D01*
X126350001Y-114036654D01*
X126360319Y-114137652D01*
X126414546Y-114301300D01*
X126414551Y-114301311D01*
X126505052Y-114448034D01*
X126505055Y-114448038D01*
X126626961Y-114569944D01*
X126626965Y-114569947D01*
X126773688Y-114660448D01*
X126773699Y-114660453D01*
X126937347Y-114714680D01*
X127038351Y-114724999D01*
X127137500Y-114724998D01*
X127137500Y-114000000D01*
X126350001Y-114000000D01*
X125974138Y-114000000D01*
X125965174Y-113912247D01*
X125910908Y-113748484D01*
X125820340Y-113601650D01*
X125806371Y-113587681D01*
X125772886Y-113526358D01*
X125774771Y-113500000D01*
X126350000Y-113500000D01*
X127137500Y-113500000D01*
X127137500Y-112774999D01*
X127038360Y-112775000D01*
X127038344Y-112775001D01*
X126937347Y-112785319D01*
X126773699Y-112839546D01*
X126773688Y-112839551D01*
X126626965Y-112930052D01*
X126626961Y-112930055D01*
X126505055Y-113051961D01*
X126505052Y-113051965D01*
X126414551Y-113198688D01*
X126414546Y-113198699D01*
X126360319Y-113362347D01*
X126350000Y-113463345D01*
X126350000Y-113500000D01*
X125774771Y-113500000D01*
X125777870Y-113456666D01*
X125806371Y-113412319D01*
X125820340Y-113398350D01*
X125910908Y-113251516D01*
X125965174Y-113087753D01*
X125975500Y-112986677D01*
X125975499Y-112288324D01*
X125965174Y-112187247D01*
X125910908Y-112023484D01*
X125820340Y-111876650D01*
X125772437Y-111828747D01*
X125738953Y-111767425D01*
X125743077Y-111700113D01*
X125780794Y-111592328D01*
X125785367Y-111579259D01*
X125785369Y-111579249D01*
X125805565Y-111400003D01*
X125805565Y-111399996D01*
X125785369Y-111220750D01*
X125785368Y-111220745D01*
X125732882Y-111070750D01*
X125725789Y-111050478D01*
X125629816Y-110897738D01*
X125502262Y-110770184D01*
X125469344Y-110749500D01*
X125349523Y-110674211D01*
X125179254Y-110614631D01*
X125179250Y-110614630D01*
X125012699Y-110595865D01*
X124948285Y-110568798D01*
X124908730Y-110511204D01*
X124906593Y-110441367D01*
X124938899Y-110384967D01*
X125037050Y-110286816D01*
X125098372Y-110253334D01*
X125124729Y-110250500D01*
X125465686Y-110250500D01*
X125465694Y-110250500D01*
X125502569Y-110247598D01*
X125502571Y-110247597D01*
X125502573Y-110247597D01*
X125544191Y-110235505D01*
X125660398Y-110201744D01*
X125801865Y-110118081D01*
X125811947Y-110107999D01*
X125825319Y-110094628D01*
X125886642Y-110061143D01*
X125956334Y-110066127D01*
X126012267Y-110107999D01*
X126036684Y-110173463D01*
X126037000Y-110182309D01*
X126037000Y-110251569D01*
X126054309Y-110338583D01*
X126061999Y-110377244D01*
X126098195Y-110464630D01*
X126111035Y-110495627D01*
X126178011Y-110595865D01*
X126182226Y-110602173D01*
X126182227Y-110602174D01*
X126928277Y-111348223D01*
X126961762Y-111409546D01*
X126963815Y-111422012D01*
X126964630Y-111429246D01*
X126964632Y-111429255D01*
X127024210Y-111599521D01*
X127092086Y-111707544D01*
X127120184Y-111752262D01*
X127247738Y-111879816D01*
X127400478Y-111975789D01*
X127536788Y-112023486D01*
X127570745Y-112035368D01*
X127570750Y-112035369D01*
X127749996Y-112055565D01*
X127750000Y-112055565D01*
X127750004Y-112055565D01*
X127929249Y-112035369D01*
X127929252Y-112035368D01*
X127929255Y-112035368D01*
X128099522Y-111975789D01*
X128252262Y-111879816D01*
X128379816Y-111752262D01*
X128475789Y-111599522D01*
X128535368Y-111429255D01*
X128537814Y-111407546D01*
X128555565Y-111250003D01*
X128555565Y-111249996D01*
X128535369Y-111070750D01*
X128535368Y-111070745D01*
X128475788Y-110900476D01*
X128436582Y-110838080D01*
X128379816Y-110747738D01*
X128252262Y-110620184D01*
X128132910Y-110545190D01*
X128099521Y-110524210D01*
X127929255Y-110464632D01*
X127929246Y-110464630D01*
X127922012Y-110463815D01*
X127857600Y-110436744D01*
X127848223Y-110428277D01*
X127374319Y-109954373D01*
X127340834Y-109893050D01*
X127338000Y-109866692D01*
X127338000Y-109402195D01*
X127357685Y-109335156D01*
X127410489Y-109289401D01*
X127427395Y-109283122D01*
X127535398Y-109251744D01*
X127676865Y-109168081D01*
X127793081Y-109051865D01*
X127876744Y-108910398D01*
X127922598Y-108752569D01*
X127925500Y-108715694D01*
X127925500Y-108284306D01*
X127922598Y-108247431D01*
X127912213Y-108211687D01*
X127876745Y-108089606D01*
X127876744Y-108089603D01*
X127876744Y-108089602D01*
X127793081Y-107948135D01*
X127793079Y-107948133D01*
X127793076Y-107948129D01*
X127676870Y-107831923D01*
X127676862Y-107831917D01*
X127559142Y-107762298D01*
X127535398Y-107748256D01*
X127535397Y-107748255D01*
X127535396Y-107748255D01*
X127535393Y-107748254D01*
X127377573Y-107702402D01*
X127377567Y-107702401D01*
X127340701Y-107699500D01*
X127340694Y-107699500D01*
X126174500Y-107699500D01*
X126107461Y-107679815D01*
X126061706Y-107627011D01*
X126050500Y-107575500D01*
X126050500Y-107334313D01*
X126050499Y-107334298D01*
X126047598Y-107297432D01*
X126047597Y-107297426D01*
X126001745Y-107139606D01*
X126001744Y-107139603D01*
X126001744Y-107139602D01*
X125918081Y-106998135D01*
X125918079Y-106998133D01*
X125918076Y-106998129D01*
X125801870Y-106881923D01*
X125801862Y-106881917D01*
X125698420Y-106820742D01*
X125660398Y-106798256D01*
X125660397Y-106798255D01*
X125660396Y-106798255D01*
X125660393Y-106798254D01*
X125502573Y-106752402D01*
X125502567Y-106752401D01*
X125465701Y-106749500D01*
X125465694Y-106749500D01*
X124220808Y-106749500D01*
X124153769Y-106729815D01*
X124133127Y-106713181D01*
X123849319Y-106429373D01*
X123815834Y-106368050D01*
X123813000Y-106341692D01*
X123813000Y-105426771D01*
X123832685Y-105359732D01*
X123867929Y-105325132D01*
X123867683Y-105324821D01*
X123870582Y-105322528D01*
X123871901Y-105321233D01*
X123873350Y-105320340D01*
X123995340Y-105198350D01*
X123995341Y-105198347D01*
X123995344Y-105198345D01*
X123995945Y-105197586D01*
X123996489Y-105197200D01*
X124000447Y-105193243D01*
X124001123Y-105193919D01*
X124052968Y-105157211D01*
X124093208Y-105150500D01*
X124156792Y-105150500D01*
X124223831Y-105170185D01*
X124249415Y-105193380D01*
X124249553Y-105193243D01*
X124252352Y-105196042D01*
X124254055Y-105197586D01*
X124254655Y-105198345D01*
X124254660Y-105198350D01*
X124376650Y-105320340D01*
X124523484Y-105410908D01*
X124687247Y-105465174D01*
X124788323Y-105475500D01*
X125486676Y-105475499D01*
X125486684Y-105475498D01*
X125486687Y-105475498D01*
X125542030Y-105469844D01*
X125587753Y-105465174D01*
X125751516Y-105410908D01*
X125898350Y-105320340D01*
X125912319Y-105306371D01*
X125973642Y-105272886D01*
X126043334Y-105277870D01*
X126087681Y-105306371D01*
X126101650Y-105320340D01*
X126248484Y-105410908D01*
X126412247Y-105465174D01*
X126513323Y-105475500D01*
X127211676Y-105475499D01*
X127211684Y-105475498D01*
X127211687Y-105475498D01*
X127267030Y-105469844D01*
X127312753Y-105465174D01*
X127476516Y-105410908D01*
X127623350Y-105320340D01*
X127745340Y-105198350D01*
X127835908Y-105051516D01*
X127890174Y-104887753D01*
X127900500Y-104786677D01*
X127900499Y-104213324D01*
X127894030Y-104150000D01*
X127890174Y-104112247D01*
X127877915Y-104075253D01*
X127835908Y-103948484D01*
X127745340Y-103801650D01*
X127623350Y-103679660D01*
X127476516Y-103589092D01*
X127312753Y-103534826D01*
X127312751Y-103534825D01*
X127211678Y-103524500D01*
X126513330Y-103524500D01*
X126513312Y-103524501D01*
X126412247Y-103534825D01*
X126248484Y-103589092D01*
X126248481Y-103589093D01*
X126101648Y-103679661D01*
X126087681Y-103693629D01*
X126026358Y-103727114D01*
X125956666Y-103722130D01*
X125912319Y-103693629D01*
X125898351Y-103679661D01*
X125898350Y-103679660D01*
X125751516Y-103589092D01*
X125587753Y-103534826D01*
X125587751Y-103534825D01*
X125486678Y-103524500D01*
X124788330Y-103524500D01*
X124788312Y-103524501D01*
X124687247Y-103534825D01*
X124523484Y-103589092D01*
X124523481Y-103589093D01*
X124376648Y-103679661D01*
X124254655Y-103801654D01*
X124254055Y-103802414D01*
X124253510Y-103802799D01*
X124249553Y-103806757D01*
X124248876Y-103806080D01*
X124197032Y-103842789D01*
X124156792Y-103849500D01*
X124093208Y-103849500D01*
X124026169Y-103829815D01*
X124000584Y-103806619D01*
X124000447Y-103806757D01*
X123997647Y-103803957D01*
X123995945Y-103802414D01*
X123995344Y-103801654D01*
X123873351Y-103679661D01*
X123873350Y-103679660D01*
X123726516Y-103589092D01*
X123562753Y-103534826D01*
X123562751Y-103534825D01*
X123461678Y-103524500D01*
X122863330Y-103524500D01*
X122863312Y-103524501D01*
X122762247Y-103534825D01*
X122598484Y-103589092D01*
X122598481Y-103589093D01*
X122451648Y-103679661D01*
X122337681Y-103793629D01*
X122276358Y-103827114D01*
X122206666Y-103822130D01*
X122162319Y-103793629D01*
X122048351Y-103679661D01*
X122048350Y-103679660D01*
X121901516Y-103589092D01*
X121737753Y-103534826D01*
X121737751Y-103534825D01*
X121636678Y-103524500D01*
X121038330Y-103524500D01*
X121038312Y-103524501D01*
X120937247Y-103534825D01*
X120773484Y-103589092D01*
X120773481Y-103589093D01*
X120626648Y-103679661D01*
X120504661Y-103801648D01*
X120414093Y-103948481D01*
X120414091Y-103948486D01*
X120405578Y-103974176D01*
X120359826Y-104112247D01*
X120359826Y-104112248D01*
X120359825Y-104112248D01*
X120349500Y-104213315D01*
X120349500Y-104786669D01*
X120349501Y-104786687D01*
X120359825Y-104887752D01*
X120372526Y-104926079D01*
X120408750Y-105035396D01*
X120414092Y-105051515D01*
X120414093Y-105051518D01*
X120448395Y-105107129D01*
X120504660Y-105198350D01*
X120626650Y-105320340D01*
X120628098Y-105321233D01*
X120628882Y-105322104D01*
X120632317Y-105324821D01*
X120631852Y-105325407D01*
X120674821Y-105373180D01*
X120687000Y-105426771D01*
X120687000Y-106379560D01*
X120667315Y-106446599D01*
X120650681Y-106467241D01*
X120620184Y-106497737D01*
X120524211Y-106650476D01*
X120464631Y-106820745D01*
X120464630Y-106820750D01*
X120444435Y-106999996D01*
X120444435Y-107000003D01*
X120464630Y-107179249D01*
X120464631Y-107179254D01*
X120524211Y-107349523D01*
X120557266Y-107402129D01*
X120620184Y-107502262D01*
X120747738Y-107629816D01*
X120900478Y-107725789D01*
X121061114Y-107781998D01*
X121117889Y-107822719D01*
X121143637Y-107887671D01*
X121130181Y-107956233D01*
X121125698Y-107964135D01*
X121089095Y-108023477D01*
X121089091Y-108023486D01*
X121067182Y-108089603D01*
X121034826Y-108187247D01*
X121034826Y-108187248D01*
X121034825Y-108187248D01*
X121024500Y-108288315D01*
X121024500Y-108886669D01*
X121024501Y-108886687D01*
X121034825Y-108987752D01*
X121069626Y-109092773D01*
X121077836Y-109117549D01*
X121089092Y-109151515D01*
X121089093Y-109151518D01*
X121099306Y-109168076D01*
X121179196Y-109297598D01*
X121179661Y-109298351D01*
X121293629Y-109412319D01*
X121327114Y-109473642D01*
X121322130Y-109543334D01*
X121293629Y-109587681D01*
X121179661Y-109701648D01*
X121089093Y-109848481D01*
X121089091Y-109848486D01*
X121069480Y-109907669D01*
X121034826Y-110012247D01*
X121034826Y-110012248D01*
X121034825Y-110012248D01*
X121024502Y-110113298D01*
X121024500Y-110113313D01*
X121024500Y-110113323D01*
X121024500Y-110384963D01*
X121024501Y-110625500D01*
X121004817Y-110692539D01*
X120952013Y-110738294D01*
X120900501Y-110749500D01*
X118874500Y-110749500D01*
X118807461Y-110729815D01*
X118761706Y-110677011D01*
X118750500Y-110625500D01*
X118750500Y-107231057D01*
X118770185Y-107164018D01*
X118809401Y-107125520D01*
X118943656Y-107042712D01*
X119067712Y-106918656D01*
X119159814Y-106769334D01*
X119214999Y-106602797D01*
X119225500Y-106500009D01*
X119225499Y-105899992D01*
X119221739Y-105863188D01*
X119214999Y-105797203D01*
X119214998Y-105797200D01*
X119178563Y-105687247D01*
X119159814Y-105630666D01*
X119067712Y-105481344D01*
X118943656Y-105357288D01*
X118940342Y-105355243D01*
X118938546Y-105353248D01*
X118937989Y-105352807D01*
X118938064Y-105352711D01*
X118893618Y-105303297D01*
X118882397Y-105234334D01*
X118910240Y-105170252D01*
X118940348Y-105144165D01*
X118943342Y-105142318D01*
X119067315Y-105018345D01*
X119159356Y-104869124D01*
X119159358Y-104869119D01*
X119214505Y-104702697D01*
X119214506Y-104702690D01*
X119224999Y-104599986D01*
X119225000Y-104599973D01*
X119225000Y-104550000D01*
X116775001Y-104550000D01*
X116775001Y-104599986D01*
X116785494Y-104702697D01*
X116840641Y-104869119D01*
X116840643Y-104869124D01*
X116932684Y-105018345D01*
X117056655Y-105142316D01*
X117056659Y-105142319D01*
X117059656Y-105144168D01*
X117061279Y-105145972D01*
X117062323Y-105146798D01*
X117062181Y-105146976D01*
X117106381Y-105196116D01*
X117117602Y-105265079D01*
X117089759Y-105329161D01*
X117059661Y-105355241D01*
X117056349Y-105357283D01*
X117056343Y-105357288D01*
X116932289Y-105481342D01*
X116840187Y-105630663D01*
X116840185Y-105630668D01*
X116812349Y-105714670D01*
X116785001Y-105797203D01*
X116785001Y-105797204D01*
X116785000Y-105797204D01*
X116774500Y-105899983D01*
X116774500Y-106500001D01*
X116774501Y-106500019D01*
X116785000Y-106602796D01*
X116785001Y-106602799D01*
X116840185Y-106769331D01*
X116840187Y-106769336D01*
X116871896Y-106820745D01*
X116932288Y-106918656D01*
X117056344Y-107042712D01*
X117190597Y-107125519D01*
X117237321Y-107177465D01*
X117249500Y-107231057D01*
X117249500Y-109875500D01*
X117229815Y-109942539D01*
X117177011Y-109988294D01*
X117125500Y-109999500D01*
X116064141Y-109999500D01*
X115997102Y-109979815D01*
X115951347Y-109927011D01*
X115947969Y-109918859D01*
X115943796Y-109907669D01*
X115943793Y-109907665D01*
X115943793Y-109907664D01*
X115857547Y-109792455D01*
X115857544Y-109792452D01*
X115742335Y-109706206D01*
X115742329Y-109706203D01*
X115631166Y-109664741D01*
X115575233Y-109622869D01*
X115550816Y-109557405D01*
X115550500Y-109548559D01*
X115550500Y-109295806D01*
X115570185Y-109228767D01*
X115586815Y-109208129D01*
X115892426Y-108902517D01*
X115941098Y-108872496D01*
X116051516Y-108835908D01*
X116198350Y-108745340D01*
X116320340Y-108623350D01*
X116410908Y-108476516D01*
X116465174Y-108312753D01*
X116475500Y-108211677D01*
X116475499Y-107613324D01*
X116465174Y-107512247D01*
X116410908Y-107348484D01*
X116320340Y-107201650D01*
X116206371Y-107087681D01*
X116172886Y-107026358D01*
X116177870Y-106956666D01*
X116206371Y-106912319D01*
X116246513Y-106872177D01*
X116320340Y-106798350D01*
X116410908Y-106651516D01*
X116465174Y-106487753D01*
X116475500Y-106386677D01*
X116475499Y-105788324D01*
X116465174Y-105687247D01*
X116410908Y-105523484D01*
X116320340Y-105376650D01*
X116198350Y-105254660D01*
X116198349Y-105254659D01*
X116198347Y-105254657D01*
X116197593Y-105254061D01*
X116197209Y-105253519D01*
X116193243Y-105249553D01*
X116193920Y-105248875D01*
X116157214Y-105197041D01*
X116150500Y-105156792D01*
X116150500Y-104532052D01*
X116170185Y-104465013D01*
X116186819Y-104444371D01*
X116214141Y-104417049D01*
X116245340Y-104385850D01*
X116335908Y-104239016D01*
X116390174Y-104075253D01*
X116392754Y-104050000D01*
X116775000Y-104050000D01*
X117750000Y-104050000D01*
X117750000Y-103300000D01*
X118250000Y-103300000D01*
X118250000Y-104050000D01*
X119224999Y-104050000D01*
X119224999Y-104000028D01*
X119224998Y-104000013D01*
X119214505Y-103897302D01*
X119159358Y-103730880D01*
X119159356Y-103730875D01*
X119067315Y-103581654D01*
X118943345Y-103457684D01*
X118794124Y-103365643D01*
X118794119Y-103365641D01*
X118627697Y-103310494D01*
X118627690Y-103310493D01*
X118524986Y-103300000D01*
X118250000Y-103300000D01*
X117750000Y-103300000D01*
X117475029Y-103300000D01*
X117475012Y-103300001D01*
X117372302Y-103310494D01*
X117205880Y-103365641D01*
X117205875Y-103365643D01*
X117056654Y-103457684D01*
X116932684Y-103581654D01*
X116840643Y-103730875D01*
X116840641Y-103730880D01*
X116785494Y-103897302D01*
X116785494Y-103897307D01*
X116775000Y-104000013D01*
X116775000Y-104050000D01*
X116392754Y-104050000D01*
X116400500Y-103974177D01*
X116400499Y-103400824D01*
X116399947Y-103395424D01*
X116390174Y-103299747D01*
X116335908Y-103135984D01*
X116245340Y-102989150D01*
X116123350Y-102867160D01*
X116123349Y-102867159D01*
X116123346Y-102867156D01*
X116123345Y-102867155D01*
X116121900Y-102866264D01*
X116121117Y-102865393D01*
X116117684Y-102862679D01*
X116118147Y-102862092D01*
X116075177Y-102814315D01*
X116063000Y-102760728D01*
X116063000Y-101848428D01*
X116038002Y-101722761D01*
X116038001Y-101722760D01*
X116038001Y-101722756D01*
X115988965Y-101604373D01*
X115962035Y-101564069D01*
X115962035Y-101564068D01*
X115917775Y-101497828D01*
X115414673Y-100994726D01*
X115414669Y-100994723D01*
X115308127Y-100923535D01*
X115189744Y-100874499D01*
X115189738Y-100874497D01*
X115064071Y-100849500D01*
X115064069Y-100849500D01*
X111435931Y-100849500D01*
X111435929Y-100849500D01*
X111310261Y-100874497D01*
X111310255Y-100874499D01*
X111191874Y-100923534D01*
X111085326Y-100994726D01*
X111085325Y-100994727D01*
X110694725Y-101385328D01*
X110694719Y-101385336D01*
X110660913Y-101435930D01*
X110660914Y-101435931D01*
X110623534Y-101491874D01*
X110574499Y-101610255D01*
X110574497Y-101610261D01*
X110549500Y-101735928D01*
X110549500Y-101844593D01*
X110529815Y-101911632D01*
X110477011Y-101957387D01*
X110460098Y-101963669D01*
X110427102Y-101973255D01*
X110285637Y-102056917D01*
X110285629Y-102056923D01*
X110169423Y-102173129D01*
X110169414Y-102173140D01*
X110169229Y-102173455D01*
X110169019Y-102173650D01*
X110164639Y-102179298D01*
X110163727Y-102178591D01*
X110118157Y-102221136D01*
X110049415Y-102233637D01*
X109984827Y-102206988D01*
X109960643Y-102179078D01*
X109960361Y-102179298D01*
X109956323Y-102174092D01*
X109955771Y-102173455D01*
X109955585Y-102173140D01*
X109955576Y-102173129D01*
X109839370Y-102056923D01*
X109839362Y-102056917D01*
X109697896Y-101973255D01*
X109697893Y-101973254D01*
X109540073Y-101927402D01*
X109540067Y-101927401D01*
X109503201Y-101924500D01*
X109503194Y-101924500D01*
X108346806Y-101924500D01*
X108346798Y-101924500D01*
X108309932Y-101927401D01*
X108309926Y-101927402D01*
X108164767Y-101969576D01*
X108130172Y-101974500D01*
X107401080Y-101974500D01*
X107256092Y-102003340D01*
X107256086Y-102003342D01*
X107119508Y-102059914D01*
X107119496Y-102059921D01*
X107070269Y-102092813D01*
X106996588Y-102142044D01*
X106996580Y-102142050D01*
X106817047Y-102321584D01*
X106817045Y-102321586D01*
X106780381Y-102376462D01*
X106780379Y-102376465D01*
X106734919Y-102444499D01*
X106734912Y-102444511D01*
X106678343Y-102581082D01*
X106678340Y-102581092D01*
X106649500Y-102726079D01*
X106649500Y-102787638D01*
X106629815Y-102854677D01*
X106577011Y-102900432D01*
X106507853Y-102910376D01*
X106444297Y-102881351D01*
X106437819Y-102875319D01*
X106425000Y-102862500D01*
X103975001Y-102862500D01*
X103975001Y-102912486D01*
X103985494Y-103015197D01*
X104040641Y-103181619D01*
X104040643Y-103181624D01*
X104132684Y-103330845D01*
X104256655Y-103454816D01*
X104256659Y-103454819D01*
X104259656Y-103456668D01*
X104261279Y-103458472D01*
X104262323Y-103459298D01*
X104262181Y-103459476D01*
X104306381Y-103508616D01*
X104317602Y-103577579D01*
X104289759Y-103641661D01*
X104259661Y-103667741D01*
X104256349Y-103669783D01*
X104256343Y-103669788D01*
X104132289Y-103793842D01*
X104040187Y-103943163D01*
X104040185Y-103943168D01*
X104021349Y-104000013D01*
X103985001Y-104109703D01*
X103985001Y-104109704D01*
X103985000Y-104109704D01*
X103974500Y-104212483D01*
X103974500Y-104812501D01*
X103974501Y-104812519D01*
X103985000Y-104915296D01*
X103985001Y-104915299D01*
X104030140Y-105051518D01*
X104040186Y-105081834D01*
X104132288Y-105231156D01*
X104256344Y-105355212D01*
X104390597Y-105438019D01*
X104437321Y-105489965D01*
X104449500Y-105543557D01*
X104449500Y-106123920D01*
X104472117Y-106237618D01*
X104474500Y-106261810D01*
X104474500Y-106833023D01*
X104454815Y-106900062D01*
X104402011Y-106945817D01*
X104374865Y-106953266D01*
X104375068Y-106954124D01*
X104367520Y-106955907D01*
X104232671Y-107006202D01*
X104232664Y-107006206D01*
X104117455Y-107092452D01*
X104117452Y-107092455D01*
X104031206Y-107207664D01*
X104031202Y-107207671D01*
X103980908Y-107342517D01*
X103974501Y-107402116D01*
X103974501Y-107402123D01*
X103974500Y-107402135D01*
X103974500Y-108375500D01*
X103954815Y-108442539D01*
X103902011Y-108488294D01*
X103850500Y-108499500D01*
X102176076Y-108499500D01*
X102147242Y-108505234D01*
X102147243Y-108505235D01*
X102031092Y-108528339D01*
X102031086Y-108528341D01*
X101953858Y-108560331D01*
X101894507Y-108584914D01*
X101894498Y-108584919D01*
X101835266Y-108624498D01*
X101771582Y-108667049D01*
X101771579Y-108667052D01*
X100712181Y-109726451D01*
X100650858Y-109759936D01*
X100581166Y-109754952D01*
X100525233Y-109713080D01*
X100500816Y-109647616D01*
X100500500Y-109638770D01*
X100500500Y-102362500D01*
X103975000Y-102362500D01*
X104950000Y-102362500D01*
X104950000Y-101612500D01*
X105450000Y-101612500D01*
X105450000Y-102362500D01*
X106424999Y-102362500D01*
X106424999Y-102312528D01*
X106424998Y-102312513D01*
X106414505Y-102209802D01*
X106359358Y-102043380D01*
X106359356Y-102043375D01*
X106267315Y-101894154D01*
X106143345Y-101770184D01*
X105994124Y-101678143D01*
X105994119Y-101678141D01*
X105827697Y-101622994D01*
X105827690Y-101622993D01*
X105724986Y-101612500D01*
X105450000Y-101612500D01*
X104950000Y-101612500D01*
X104675029Y-101612500D01*
X104675012Y-101612501D01*
X104572302Y-101622994D01*
X104405880Y-101678141D01*
X104405875Y-101678143D01*
X104256654Y-101770184D01*
X104132684Y-101894154D01*
X104040643Y-102043375D01*
X104040641Y-102043380D01*
X103985494Y-102209802D01*
X103985493Y-102209809D01*
X103975000Y-102312513D01*
X103975000Y-102362500D01*
X100500500Y-102362500D01*
X100500500Y-101258676D01*
X100520185Y-101191637D01*
X100536819Y-101170995D01*
X101170995Y-100536819D01*
X101232318Y-100503334D01*
X101258676Y-100500500D01*
X131741324Y-100500500D01*
X131808363Y-100520185D01*
G37*
%TD.AperFunction*%
%TA.AperFunction,Conductor*%
G36*
X126282309Y-118857685D02*
G01*
X126302951Y-118874319D01*
X126831034Y-119402402D01*
X127352130Y-119923497D01*
X127385615Y-119984820D01*
X127387977Y-120021985D01*
X127369341Y-120234997D01*
X127369341Y-120235000D01*
X127389936Y-120470403D01*
X127389938Y-120470413D01*
X127451094Y-120698655D01*
X127451096Y-120698659D01*
X127451097Y-120698663D01*
X127504528Y-120813246D01*
X127550965Y-120912830D01*
X127550967Y-120912834D01*
X127612352Y-121000500D01*
X127686501Y-121106396D01*
X127686506Y-121106402D01*
X127808430Y-121228326D01*
X127841915Y-121289649D01*
X127836931Y-121359341D01*
X127795059Y-121415274D01*
X127764083Y-121432189D01*
X127632669Y-121481203D01*
X127632664Y-121481206D01*
X127517455Y-121567452D01*
X127517452Y-121567455D01*
X127431206Y-121682664D01*
X127431202Y-121682671D01*
X127380908Y-121817517D01*
X127374501Y-121877116D01*
X127374501Y-121877123D01*
X127374500Y-121877135D01*
X127374500Y-123672870D01*
X127374501Y-123672876D01*
X127380908Y-123732483D01*
X127431202Y-123867328D01*
X127431206Y-123867335D01*
X127517452Y-123982544D01*
X127517455Y-123982547D01*
X127632664Y-124068793D01*
X127632671Y-124068797D01*
X127650643Y-124075500D01*
X127767517Y-124119091D01*
X127827127Y-124125500D01*
X127950500Y-124125499D01*
X128017539Y-124145183D01*
X128063294Y-124197987D01*
X128074500Y-124249499D01*
X128074500Y-124704192D01*
X128054815Y-124771231D01*
X128038181Y-124791873D01*
X125116873Y-127713181D01*
X125055550Y-127746666D01*
X125029192Y-127749500D01*
X122120808Y-127749500D01*
X122053769Y-127729815D01*
X122033127Y-127713181D01*
X120502174Y-126182227D01*
X120502173Y-126182226D01*
X120418998Y-126126651D01*
X120395627Y-126111035D01*
X120277244Y-126061999D01*
X120277238Y-126061997D01*
X120151571Y-126037000D01*
X120151569Y-126037000D01*
X119161781Y-126037000D01*
X119094742Y-126017315D01*
X119048987Y-125964511D01*
X119039043Y-125895353D01*
X119068068Y-125831797D01*
X119096684Y-125807462D01*
X119198034Y-125744947D01*
X119198038Y-125744944D01*
X119319944Y-125623038D01*
X119319947Y-125623034D01*
X119410448Y-125476311D01*
X119410453Y-125476300D01*
X119464680Y-125312652D01*
X119474999Y-125211654D01*
X119475000Y-125211641D01*
X119475000Y-125162500D01*
X117525001Y-125162500D01*
X117525001Y-125211654D01*
X117535319Y-125312652D01*
X117589546Y-125476300D01*
X117589551Y-125476311D01*
X117680052Y-125623034D01*
X117680055Y-125623038D01*
X117801961Y-125744944D01*
X117801965Y-125744947D01*
X117903316Y-125807462D01*
X117950041Y-125859410D01*
X117961262Y-125928372D01*
X117933419Y-125992454D01*
X117875350Y-126031310D01*
X117838219Y-126037000D01*
X117343208Y-126037000D01*
X117276169Y-126017315D01*
X117250584Y-125994119D01*
X117250447Y-125994257D01*
X117247647Y-125991457D01*
X117245945Y-125989914D01*
X117245344Y-125989154D01*
X117123351Y-125867161D01*
X117123350Y-125867160D01*
X116990939Y-125785488D01*
X116976518Y-125776593D01*
X116976513Y-125776591D01*
X116975069Y-125776112D01*
X116812753Y-125722326D01*
X116812751Y-125722325D01*
X116711678Y-125712000D01*
X116113330Y-125712000D01*
X116113312Y-125712001D01*
X116012247Y-125722325D01*
X115848484Y-125776592D01*
X115848481Y-125776593D01*
X115701648Y-125867161D01*
X115587681Y-125981129D01*
X115526358Y-126014614D01*
X115456666Y-126009630D01*
X115412319Y-125981129D01*
X115298351Y-125867161D01*
X115298350Y-125867160D01*
X115165939Y-125785488D01*
X115151518Y-125776593D01*
X115151513Y-125776591D01*
X115150069Y-125776112D01*
X114987753Y-125722326D01*
X114987751Y-125722325D01*
X114886678Y-125712000D01*
X114288330Y-125712000D01*
X114288312Y-125712001D01*
X114187247Y-125722325D01*
X114112487Y-125747099D01*
X114023484Y-125776592D01*
X114023481Y-125776593D01*
X114016630Y-125778864D01*
X114015902Y-125776669D01*
X113957820Y-125785488D01*
X113894038Y-125756965D01*
X113855802Y-125698486D01*
X113850500Y-125662615D01*
X113850500Y-125112500D01*
X120525001Y-125112500D01*
X120525001Y-125211654D01*
X120535319Y-125312652D01*
X120589546Y-125476300D01*
X120589551Y-125476311D01*
X120680052Y-125623034D01*
X120680055Y-125623038D01*
X120801961Y-125744944D01*
X120801965Y-125744947D01*
X120948688Y-125835448D01*
X120948699Y-125835453D01*
X121112347Y-125889680D01*
X121213352Y-125899999D01*
X121250000Y-125899999D01*
X121250000Y-125112500D01*
X120525001Y-125112500D01*
X113850500Y-125112500D01*
X113850500Y-122735928D01*
X113825502Y-122610261D01*
X113825501Y-122610260D01*
X113825501Y-122610256D01*
X113776465Y-122491873D01*
X113764212Y-122473535D01*
X113705276Y-122385330D01*
X113705274Y-122385327D01*
X113286818Y-121966871D01*
X113253333Y-121905548D01*
X113250499Y-121879190D01*
X113250499Y-121102129D01*
X113250498Y-121102121D01*
X113248954Y-121087752D01*
X113261361Y-121018993D01*
X113308973Y-120967857D01*
X113372244Y-120950500D01*
X113442672Y-120950500D01*
X113477267Y-120955424D01*
X113622426Y-120997597D01*
X113622429Y-120997597D01*
X113622431Y-120997598D01*
X113659306Y-121000500D01*
X113659314Y-121000500D01*
X114965686Y-121000500D01*
X114965694Y-121000500D01*
X115002569Y-120997598D01*
X115002571Y-120997597D01*
X115002573Y-120997597D01*
X115056429Y-120981950D01*
X115160398Y-120951744D01*
X115301865Y-120868081D01*
X115418081Y-120751865D01*
X115501744Y-120610398D01*
X115547598Y-120452569D01*
X115550500Y-120415694D01*
X115550500Y-120174500D01*
X115570185Y-120107461D01*
X115622989Y-120061706D01*
X115674500Y-120050500D01*
X116840686Y-120050500D01*
X116840694Y-120050500D01*
X116877569Y-120047598D01*
X116877571Y-120047597D01*
X116877573Y-120047597D01*
X117022733Y-120005424D01*
X117057328Y-120000500D01*
X117534679Y-120000500D01*
X117601718Y-120020185D01*
X117640216Y-120059402D01*
X117662064Y-120094822D01*
X117679659Y-120123349D01*
X117713181Y-120156871D01*
X117746666Y-120218194D01*
X117749500Y-120244552D01*
X117749500Y-122255448D01*
X117729815Y-122322487D01*
X117713181Y-122343129D01*
X117679661Y-122376648D01*
X117589093Y-122523481D01*
X117589091Y-122523486D01*
X117568858Y-122584546D01*
X117534826Y-122687247D01*
X117534826Y-122687248D01*
X117534825Y-122687248D01*
X117524500Y-122788315D01*
X117524500Y-123386669D01*
X117524501Y-123386687D01*
X117534825Y-123487752D01*
X117566372Y-123582951D01*
X117586380Y-123643333D01*
X117589092Y-123651515D01*
X117589093Y-123651518D01*
X117602263Y-123672870D01*
X117677760Y-123795270D01*
X117679661Y-123798351D01*
X117793982Y-123912672D01*
X117827467Y-123973995D01*
X117822483Y-124043687D01*
X117793983Y-124088034D01*
X117680052Y-124201965D01*
X117589551Y-124348688D01*
X117589546Y-124348699D01*
X117535319Y-124512347D01*
X117525000Y-124613345D01*
X117525000Y-124662500D01*
X119474999Y-124662500D01*
X119474999Y-124613360D01*
X119474998Y-124613345D01*
X119464680Y-124512347D01*
X119410453Y-124348699D01*
X119410448Y-124348688D01*
X119319947Y-124201965D01*
X119319944Y-124201961D01*
X119206017Y-124088034D01*
X119172532Y-124026711D01*
X119177516Y-123957019D01*
X119206013Y-123912676D01*
X119320340Y-123798350D01*
X119410908Y-123651516D01*
X119465174Y-123487753D01*
X119475500Y-123386677D01*
X119475499Y-122788324D01*
X119471424Y-122748436D01*
X119465174Y-122687247D01*
X119449386Y-122639602D01*
X119410908Y-122523484D01*
X119320340Y-122376650D01*
X119286819Y-122343129D01*
X119253334Y-122281806D01*
X119250500Y-122255448D01*
X119250500Y-120874500D01*
X119270185Y-120807461D01*
X119322989Y-120761706D01*
X119374500Y-120750500D01*
X120273920Y-120750500D01*
X120371462Y-120731096D01*
X120418913Y-120721658D01*
X120555495Y-120665084D01*
X120608277Y-120629816D01*
X120678416Y-120582952D01*
X121312821Y-119948545D01*
X121374142Y-119915062D01*
X121443833Y-119920046D01*
X121499767Y-119961917D01*
X121524184Y-120027382D01*
X121524500Y-120036228D01*
X121524500Y-120411669D01*
X121524501Y-120411687D01*
X121534825Y-120512752D01*
X121568105Y-120613181D01*
X121589092Y-120676516D01*
X121679660Y-120823350D01*
X121801650Y-120945340D01*
X121801656Y-120945343D01*
X121802405Y-120945936D01*
X121802790Y-120946480D01*
X121806757Y-120950447D01*
X121806079Y-120951124D01*
X121842785Y-121002956D01*
X121849500Y-121043207D01*
X121849500Y-121975500D01*
X121829815Y-122042539D01*
X121777011Y-122088294D01*
X121725500Y-122099500D01*
X121213330Y-122099500D01*
X121213312Y-122099501D01*
X121112247Y-122109825D01*
X120948484Y-122164092D01*
X120948481Y-122164093D01*
X120801648Y-122254661D01*
X120679661Y-122376648D01*
X120589093Y-122523481D01*
X120589091Y-122523486D01*
X120568858Y-122584546D01*
X120534826Y-122687247D01*
X120534826Y-122687248D01*
X120534825Y-122687248D01*
X120524500Y-122788315D01*
X120524500Y-123486669D01*
X120524501Y-123486687D01*
X120534825Y-123587752D01*
X120563029Y-123672864D01*
X120587738Y-123747431D01*
X120589092Y-123751515D01*
X120589093Y-123751518D01*
X120623395Y-123807129D01*
X120679659Y-123898349D01*
X120679661Y-123898351D01*
X120693982Y-123912672D01*
X120727467Y-123973995D01*
X120722483Y-124043687D01*
X120693985Y-124088032D01*
X120680052Y-124101965D01*
X120589551Y-124248688D01*
X120589546Y-124248699D01*
X120535319Y-124412347D01*
X120525000Y-124513345D01*
X120525000Y-124612500D01*
X121626000Y-124612500D01*
X121693039Y-124632185D01*
X121738794Y-124684989D01*
X121750000Y-124736500D01*
X121750000Y-125899999D01*
X121786640Y-125899999D01*
X121786654Y-125899998D01*
X121887652Y-125889680D01*
X122051300Y-125835453D01*
X122051311Y-125835448D01*
X122198034Y-125744947D01*
X122198038Y-125744944D01*
X122319944Y-125623038D01*
X122319947Y-125623034D01*
X122410448Y-125476311D01*
X122410454Y-125476298D01*
X122425976Y-125429456D01*
X122465748Y-125372011D01*
X122530264Y-125345187D01*
X122599039Y-125357502D01*
X122650240Y-125405044D01*
X122650414Y-125405338D01*
X122707315Y-125501553D01*
X122707321Y-125501561D01*
X122823438Y-125617678D01*
X122823447Y-125617685D01*
X122964803Y-125701282D01*
X122964806Y-125701283D01*
X123122504Y-125747099D01*
X123122510Y-125747100D01*
X123159350Y-125749999D01*
X123159366Y-125750000D01*
X123562500Y-125750000D01*
X123562500Y-125200000D01*
X124062500Y-125200000D01*
X124062500Y-125750000D01*
X124465634Y-125750000D01*
X124465649Y-125749999D01*
X124502489Y-125747100D01*
X124502495Y-125747099D01*
X124660193Y-125701283D01*
X124660196Y-125701282D01*
X124801552Y-125617685D01*
X124801561Y-125617678D01*
X124917678Y-125501561D01*
X124917685Y-125501552D01*
X125001281Y-125360198D01*
X125047100Y-125202486D01*
X125047295Y-125200001D01*
X125047295Y-125200000D01*
X124062500Y-125200000D01*
X123562500Y-125200000D01*
X123562500Y-124150000D01*
X123159350Y-124150000D01*
X123122510Y-124152899D01*
X123122504Y-124152900D01*
X122964806Y-124198716D01*
X122964803Y-124198717D01*
X122823447Y-124282314D01*
X122823438Y-124282321D01*
X122707321Y-124398438D01*
X122707317Y-124398444D01*
X122687579Y-124431819D01*
X122636509Y-124479502D01*
X122567767Y-124492005D01*
X122503178Y-124465359D01*
X122463248Y-124408023D01*
X122463141Y-124407701D01*
X122410453Y-124248699D01*
X122410448Y-124248688D01*
X122319947Y-124101965D01*
X122319944Y-124101961D01*
X122306017Y-124088034D01*
X122272532Y-124026711D01*
X122277516Y-123957019D01*
X122306017Y-123912672D01*
X122320340Y-123898350D01*
X122406043Y-123759402D01*
X122457991Y-123712679D01*
X122511582Y-123700500D01*
X122564069Y-123700500D01*
X122759484Y-123700500D01*
X122822605Y-123717768D01*
X122872755Y-123747426D01*
X122964602Y-123801744D01*
X123006224Y-123813836D01*
X123122426Y-123847597D01*
X123122429Y-123847597D01*
X123122431Y-123847598D01*
X123159306Y-123850500D01*
X124325500Y-123850500D01*
X124392539Y-123870185D01*
X124438294Y-123922989D01*
X124449500Y-123974500D01*
X124449500Y-124026000D01*
X124429815Y-124093039D01*
X124377011Y-124138794D01*
X124325500Y-124150000D01*
X124062500Y-124150000D01*
X124062500Y-124700000D01*
X124718185Y-124700000D01*
X124781306Y-124717268D01*
X124839602Y-124751744D01*
X124852716Y-124755554D01*
X124997426Y-124797597D01*
X124997429Y-124797597D01*
X124997431Y-124797598D01*
X125034306Y-124800500D01*
X125034314Y-124800500D01*
X126340686Y-124800500D01*
X126340694Y-124800500D01*
X126377569Y-124797598D01*
X126377571Y-124797597D01*
X126377573Y-124797597D01*
X126419191Y-124785505D01*
X126535398Y-124751744D01*
X126676865Y-124668081D01*
X126793081Y-124551865D01*
X126876744Y-124410398D01*
X126922598Y-124252569D01*
X126925500Y-124215694D01*
X126925500Y-123784306D01*
X126922598Y-123747431D01*
X126918255Y-123732483D01*
X126876745Y-123589606D01*
X126876744Y-123589603D01*
X126876744Y-123589602D01*
X126793081Y-123448135D01*
X126793079Y-123448133D01*
X126793076Y-123448129D01*
X126676870Y-123331923D01*
X126676862Y-123331917D01*
X126535396Y-123248255D01*
X126535393Y-123248253D01*
X126427405Y-123216880D01*
X126368519Y-123179274D01*
X126339313Y-123115801D01*
X126338000Y-123097804D01*
X126338000Y-120623428D01*
X126313002Y-120497761D01*
X126313001Y-120497760D01*
X126313001Y-120497756D01*
X126263965Y-120379373D01*
X126248010Y-120355494D01*
X126244020Y-120349523D01*
X126192775Y-120272828D01*
X126192772Y-120272825D01*
X125821722Y-119901776D01*
X125788237Y-119840453D01*
X125786182Y-119827973D01*
X125785368Y-119820745D01*
X125725789Y-119650478D01*
X125629816Y-119497738D01*
X125502262Y-119370184D01*
X125485995Y-119359963D01*
X125349523Y-119274211D01*
X125179254Y-119214631D01*
X125179249Y-119214630D01*
X125000004Y-119194435D01*
X124999996Y-119194435D01*
X124820750Y-119214630D01*
X124820745Y-119214631D01*
X124650476Y-119274211D01*
X124497737Y-119370184D01*
X124370184Y-119497737D01*
X124274211Y-119650476D01*
X124214631Y-119820745D01*
X124214630Y-119820750D01*
X124194435Y-119999996D01*
X124194435Y-120000003D01*
X124214630Y-120179249D01*
X124214631Y-120179254D01*
X124274211Y-120349523D01*
X124338960Y-120452569D01*
X124370184Y-120502262D01*
X124497738Y-120629816D01*
X124572056Y-120676513D01*
X124643903Y-120721658D01*
X124650478Y-120725789D01*
X124820745Y-120785368D01*
X124827974Y-120786182D01*
X124892388Y-120813246D01*
X124901776Y-120821722D01*
X125000681Y-120920627D01*
X125034166Y-120981950D01*
X125037000Y-121008308D01*
X125037000Y-122317691D01*
X125017315Y-122384730D01*
X124964511Y-122430485D01*
X124895353Y-122440429D01*
X124831797Y-122411404D01*
X124825319Y-122405372D01*
X124801870Y-122381923D01*
X124801862Y-122381917D01*
X124712290Y-122328945D01*
X124660398Y-122298256D01*
X124660397Y-122298255D01*
X124660396Y-122298255D01*
X124660393Y-122298254D01*
X124502573Y-122252402D01*
X124502567Y-122252401D01*
X124465701Y-122249500D01*
X124465694Y-122249500D01*
X123274500Y-122249500D01*
X123207461Y-122229815D01*
X123161706Y-122177011D01*
X123150500Y-122125500D01*
X123150500Y-121043207D01*
X123170185Y-120976168D01*
X123193380Y-120950584D01*
X123193243Y-120950447D01*
X123196050Y-120947639D01*
X123197595Y-120945936D01*
X123198339Y-120945346D01*
X123198350Y-120945340D01*
X123320340Y-120823350D01*
X123410908Y-120676516D01*
X123465174Y-120512753D01*
X123475500Y-120411677D01*
X123475499Y-119813324D01*
X123465174Y-119712247D01*
X123410908Y-119548484D01*
X123320340Y-119401650D01*
X123206371Y-119287681D01*
X123172886Y-119226358D01*
X123177870Y-119156666D01*
X123206371Y-119112319D01*
X123259349Y-119059341D01*
X123320340Y-118998350D01*
X123343318Y-118961097D01*
X123382914Y-118896903D01*
X123434862Y-118850178D01*
X123488452Y-118838000D01*
X126215270Y-118838000D01*
X126282309Y-118857685D01*
G37*
%TD.AperFunction*%
%TD*%
M02*
