M48
; DRILL file {KiCad 8.0.0} date 2024-05-14T19:01:33+0900
; FORMAT={-:-/ absolute / metric / decimal}
; #@! TF.CreationDate,2024-05-14T19:01:33+09:00
; #@! TF.GenerationSoftware,Kicad,Pcbnew,8.0.0
; #@! TF.FileFunction,Plated,1,2,PTH
FMAT,2
METRIC
; #@! TA.AperFunction,Plated,PTH,ViaDrill
T1C0.300
; #@! TA.AperFunction,Plated,PTH,ComponentDrill
T2C1.000
; #@! TA.AperFunction,Plated,PTH,ComponentDrill
T3C1.100
%
G90
G05
T1
X102.25Y-105.0
X102.5Y-110.75
X102.5Y-111.75
X102.5Y-113.75
X107.0Y-101.25
X112.5Y-102.25
X112.5Y-103.675
X116.5Y-117.637
X117.6Y-115.6
X119.75Y-104.0
X119.75Y-109.8
X120.1Y-115.6
X121.125Y-116.625
X121.125Y-126.375
X121.25Y-107.0
X121.75Y-127.0
X125.0Y-111.4
X125.0Y-116.0
X125.0Y-120.0
X127.75Y-111.25
T2
X104.4Y-117.875
X104.4Y-120.415
X104.4Y-122.955
X104.4Y-125.495
X104.4Y-128.035
X104.4Y-130.575
X128.725Y-117.695
X128.725Y-120.235
X128.725Y-122.775
T3
X109.25Y-131.75
X109.25Y-136.25
X115.75Y-131.75
X115.75Y-136.25
X120.75Y-131.75
X120.75Y-136.25
X127.25Y-131.75
X127.25Y-136.25
M30
