%TF.GenerationSoftware,KiCad,Pcbnew,8.0.0*%
%TF.CreationDate,2024-05-28T16:54:30+09:00*%
%TF.ProjectId,TINY202_PROG.kicad_240516_single2_pcb,54494e59-3230-4325-9f50-524f472e6b69,rev?*%
%TF.SameCoordinates,Original*%
%TF.FileFunction,OtherDrawing,Comment*%
%FSLAX46Y46*%
G04 Gerber Fmt 4.6, Leading zero omitted, Abs format (unit mm)*
G04 Created by KiCad (PCBNEW 8.0.0) date 2024-05-28 16:54:30*
%MOMM*%
%LPD*%
G01*
G04 APERTURE LIST*
%ADD10C,0.150000*%
%ADD11C,0.100000*%
G04 APERTURE END LIST*
D10*
X111833334Y-91304819D02*
X112452381Y-91304819D01*
X112452381Y-91304819D02*
X112119048Y-91685771D01*
X112119048Y-91685771D02*
X112261905Y-91685771D01*
X112261905Y-91685771D02*
X112357143Y-91733390D01*
X112357143Y-91733390D02*
X112404762Y-91781009D01*
X112404762Y-91781009D02*
X112452381Y-91876247D01*
X112452381Y-91876247D02*
X112452381Y-92114342D01*
X112452381Y-92114342D02*
X112404762Y-92209580D01*
X112404762Y-92209580D02*
X112357143Y-92257200D01*
X112357143Y-92257200D02*
X112261905Y-92304819D01*
X112261905Y-92304819D02*
X111976191Y-92304819D01*
X111976191Y-92304819D02*
X111880953Y-92257200D01*
X111880953Y-92257200D02*
X111833334Y-92209580D01*
X112785715Y-91304819D02*
X113404762Y-91304819D01*
X113404762Y-91304819D02*
X113071429Y-91685771D01*
X113071429Y-91685771D02*
X113214286Y-91685771D01*
X113214286Y-91685771D02*
X113309524Y-91733390D01*
X113309524Y-91733390D02*
X113357143Y-91781009D01*
X113357143Y-91781009D02*
X113404762Y-91876247D01*
X113404762Y-91876247D02*
X113404762Y-92114342D01*
X113404762Y-92114342D02*
X113357143Y-92209580D01*
X113357143Y-92209580D02*
X113309524Y-92257200D01*
X113309524Y-92257200D02*
X113214286Y-92304819D01*
X113214286Y-92304819D02*
X112928572Y-92304819D01*
X112928572Y-92304819D02*
X112833334Y-92257200D01*
X112833334Y-92257200D02*
X112785715Y-92209580D01*
X113833334Y-92209580D02*
X113880953Y-92257200D01*
X113880953Y-92257200D02*
X113833334Y-92304819D01*
X113833334Y-92304819D02*
X113785715Y-92257200D01*
X113785715Y-92257200D02*
X113833334Y-92209580D01*
X113833334Y-92209580D02*
X113833334Y-92304819D01*
X114500000Y-91304819D02*
X114595238Y-91304819D01*
X114595238Y-91304819D02*
X114690476Y-91352438D01*
X114690476Y-91352438D02*
X114738095Y-91400057D01*
X114738095Y-91400057D02*
X114785714Y-91495295D01*
X114785714Y-91495295D02*
X114833333Y-91685771D01*
X114833333Y-91685771D02*
X114833333Y-91923866D01*
X114833333Y-91923866D02*
X114785714Y-92114342D01*
X114785714Y-92114342D02*
X114738095Y-92209580D01*
X114738095Y-92209580D02*
X114690476Y-92257200D01*
X114690476Y-92257200D02*
X114595238Y-92304819D01*
X114595238Y-92304819D02*
X114500000Y-92304819D01*
X114500000Y-92304819D02*
X114404762Y-92257200D01*
X114404762Y-92257200D02*
X114357143Y-92209580D01*
X114357143Y-92209580D02*
X114309524Y-92114342D01*
X114309524Y-92114342D02*
X114261905Y-91923866D01*
X114261905Y-91923866D02*
X114261905Y-91685771D01*
X114261905Y-91685771D02*
X114309524Y-91495295D01*
X114309524Y-91495295D02*
X114357143Y-91400057D01*
X114357143Y-91400057D02*
X114404762Y-91352438D01*
X114404762Y-91352438D02*
X114500000Y-91304819D01*
X115452381Y-91304819D02*
X115547619Y-91304819D01*
X115547619Y-91304819D02*
X115642857Y-91352438D01*
X115642857Y-91352438D02*
X115690476Y-91400057D01*
X115690476Y-91400057D02*
X115738095Y-91495295D01*
X115738095Y-91495295D02*
X115785714Y-91685771D01*
X115785714Y-91685771D02*
X115785714Y-91923866D01*
X115785714Y-91923866D02*
X115738095Y-92114342D01*
X115738095Y-92114342D02*
X115690476Y-92209580D01*
X115690476Y-92209580D02*
X115642857Y-92257200D01*
X115642857Y-92257200D02*
X115547619Y-92304819D01*
X115547619Y-92304819D02*
X115452381Y-92304819D01*
X115452381Y-92304819D02*
X115357143Y-92257200D01*
X115357143Y-92257200D02*
X115309524Y-92209580D01*
X115309524Y-92209580D02*
X115261905Y-92114342D01*
X115261905Y-92114342D02*
X115214286Y-91923866D01*
X115214286Y-91923866D02*
X115214286Y-91685771D01*
X115214286Y-91685771D02*
X115261905Y-91495295D01*
X115261905Y-91495295D02*
X115309524Y-91400057D01*
X115309524Y-91400057D02*
X115357143Y-91352438D01*
X115357143Y-91352438D02*
X115452381Y-91304819D01*
X116404762Y-91304819D02*
X116500000Y-91304819D01*
X116500000Y-91304819D02*
X116595238Y-91352438D01*
X116595238Y-91352438D02*
X116642857Y-91400057D01*
X116642857Y-91400057D02*
X116690476Y-91495295D01*
X116690476Y-91495295D02*
X116738095Y-91685771D01*
X116738095Y-91685771D02*
X116738095Y-91923866D01*
X116738095Y-91923866D02*
X116690476Y-92114342D01*
X116690476Y-92114342D02*
X116642857Y-92209580D01*
X116642857Y-92209580D02*
X116595238Y-92257200D01*
X116595238Y-92257200D02*
X116500000Y-92304819D01*
X116500000Y-92304819D02*
X116404762Y-92304819D01*
X116404762Y-92304819D02*
X116309524Y-92257200D01*
X116309524Y-92257200D02*
X116261905Y-92209580D01*
X116261905Y-92209580D02*
X116214286Y-92114342D01*
X116214286Y-92114342D02*
X116166667Y-91923866D01*
X116166667Y-91923866D02*
X116166667Y-91685771D01*
X116166667Y-91685771D02*
X116214286Y-91495295D01*
X116214286Y-91495295D02*
X116261905Y-91400057D01*
X116261905Y-91400057D02*
X116309524Y-91352438D01*
X116309524Y-91352438D02*
X116404762Y-91304819D01*
X117357143Y-91304819D02*
X117452381Y-91304819D01*
X117452381Y-91304819D02*
X117547619Y-91352438D01*
X117547619Y-91352438D02*
X117595238Y-91400057D01*
X117595238Y-91400057D02*
X117642857Y-91495295D01*
X117642857Y-91495295D02*
X117690476Y-91685771D01*
X117690476Y-91685771D02*
X117690476Y-91923866D01*
X117690476Y-91923866D02*
X117642857Y-92114342D01*
X117642857Y-92114342D02*
X117595238Y-92209580D01*
X117595238Y-92209580D02*
X117547619Y-92257200D01*
X117547619Y-92257200D02*
X117452381Y-92304819D01*
X117452381Y-92304819D02*
X117357143Y-92304819D01*
X117357143Y-92304819D02*
X117261905Y-92257200D01*
X117261905Y-92257200D02*
X117214286Y-92209580D01*
X117214286Y-92209580D02*
X117166667Y-92114342D01*
X117166667Y-92114342D02*
X117119048Y-91923866D01*
X117119048Y-91923866D02*
X117119048Y-91685771D01*
X117119048Y-91685771D02*
X117166667Y-91495295D01*
X117166667Y-91495295D02*
X117214286Y-91400057D01*
X117214286Y-91400057D02*
X117261905Y-91352438D01*
X117261905Y-91352438D02*
X117357143Y-91304819D01*
X118880953Y-92304819D02*
X118880953Y-91638152D01*
X118880953Y-91733390D02*
X118928572Y-91685771D01*
X118928572Y-91685771D02*
X119023810Y-91638152D01*
X119023810Y-91638152D02*
X119166667Y-91638152D01*
X119166667Y-91638152D02*
X119261905Y-91685771D01*
X119261905Y-91685771D02*
X119309524Y-91781009D01*
X119309524Y-91781009D02*
X119309524Y-92304819D01*
X119309524Y-91781009D02*
X119357143Y-91685771D01*
X119357143Y-91685771D02*
X119452381Y-91638152D01*
X119452381Y-91638152D02*
X119595238Y-91638152D01*
X119595238Y-91638152D02*
X119690477Y-91685771D01*
X119690477Y-91685771D02*
X119738096Y-91781009D01*
X119738096Y-91781009D02*
X119738096Y-92304819D01*
X120214286Y-92304819D02*
X120214286Y-91638152D01*
X120214286Y-91733390D02*
X120261905Y-91685771D01*
X120261905Y-91685771D02*
X120357143Y-91638152D01*
X120357143Y-91638152D02*
X120500000Y-91638152D01*
X120500000Y-91638152D02*
X120595238Y-91685771D01*
X120595238Y-91685771D02*
X120642857Y-91781009D01*
X120642857Y-91781009D02*
X120642857Y-92304819D01*
X120642857Y-91781009D02*
X120690476Y-91685771D01*
X120690476Y-91685771D02*
X120785714Y-91638152D01*
X120785714Y-91638152D02*
X120928571Y-91638152D01*
X120928571Y-91638152D02*
X121023810Y-91685771D01*
X121023810Y-91685771D02*
X121071429Y-91781009D01*
X121071429Y-91781009D02*
X121071429Y-92304819D01*
D11*
X100000000Y-100500000D02*
X100000000Y-92413580D01*
X133000000Y-100500000D02*
X133000000Y-92413580D01*
X100000000Y-93000000D02*
X133000000Y-93000000D01*
X100000000Y-93000000D02*
X133000000Y-93000000D01*
X100000000Y-93000000D02*
X101126504Y-92413579D01*
X100000000Y-93000000D02*
X101126504Y-93586421D01*
X133000000Y-93000000D02*
X131873496Y-93586421D01*
X133000000Y-93000000D02*
X131873496Y-92413579D01*
D10*
X91138152Y-124142856D02*
X91804819Y-124142856D01*
X90757200Y-124380951D02*
X91471485Y-124619046D01*
X91471485Y-124619046D02*
X91471485Y-123999999D01*
X90804819Y-123428570D02*
X90804819Y-123333332D01*
X90804819Y-123333332D02*
X90852438Y-123238094D01*
X90852438Y-123238094D02*
X90900057Y-123190475D01*
X90900057Y-123190475D02*
X90995295Y-123142856D01*
X90995295Y-123142856D02*
X91185771Y-123095237D01*
X91185771Y-123095237D02*
X91423866Y-123095237D01*
X91423866Y-123095237D02*
X91614342Y-123142856D01*
X91614342Y-123142856D02*
X91709580Y-123190475D01*
X91709580Y-123190475D02*
X91757200Y-123238094D01*
X91757200Y-123238094D02*
X91804819Y-123333332D01*
X91804819Y-123333332D02*
X91804819Y-123428570D01*
X91804819Y-123428570D02*
X91757200Y-123523808D01*
X91757200Y-123523808D02*
X91709580Y-123571427D01*
X91709580Y-123571427D02*
X91614342Y-123619046D01*
X91614342Y-123619046D02*
X91423866Y-123666665D01*
X91423866Y-123666665D02*
X91185771Y-123666665D01*
X91185771Y-123666665D02*
X90995295Y-123619046D01*
X90995295Y-123619046D02*
X90900057Y-123571427D01*
X90900057Y-123571427D02*
X90852438Y-123523808D01*
X90852438Y-123523808D02*
X90804819Y-123428570D01*
X91709580Y-122666665D02*
X91757200Y-122619046D01*
X91757200Y-122619046D02*
X91804819Y-122666665D01*
X91804819Y-122666665D02*
X91757200Y-122714284D01*
X91757200Y-122714284D02*
X91709580Y-122666665D01*
X91709580Y-122666665D02*
X91804819Y-122666665D01*
X90804819Y-121999999D02*
X90804819Y-121904761D01*
X90804819Y-121904761D02*
X90852438Y-121809523D01*
X90852438Y-121809523D02*
X90900057Y-121761904D01*
X90900057Y-121761904D02*
X90995295Y-121714285D01*
X90995295Y-121714285D02*
X91185771Y-121666666D01*
X91185771Y-121666666D02*
X91423866Y-121666666D01*
X91423866Y-121666666D02*
X91614342Y-121714285D01*
X91614342Y-121714285D02*
X91709580Y-121761904D01*
X91709580Y-121761904D02*
X91757200Y-121809523D01*
X91757200Y-121809523D02*
X91804819Y-121904761D01*
X91804819Y-121904761D02*
X91804819Y-121999999D01*
X91804819Y-121999999D02*
X91757200Y-122095237D01*
X91757200Y-122095237D02*
X91709580Y-122142856D01*
X91709580Y-122142856D02*
X91614342Y-122190475D01*
X91614342Y-122190475D02*
X91423866Y-122238094D01*
X91423866Y-122238094D02*
X91185771Y-122238094D01*
X91185771Y-122238094D02*
X90995295Y-122190475D01*
X90995295Y-122190475D02*
X90900057Y-122142856D01*
X90900057Y-122142856D02*
X90852438Y-122095237D01*
X90852438Y-122095237D02*
X90804819Y-121999999D01*
X90804819Y-121047618D02*
X90804819Y-120952380D01*
X90804819Y-120952380D02*
X90852438Y-120857142D01*
X90852438Y-120857142D02*
X90900057Y-120809523D01*
X90900057Y-120809523D02*
X90995295Y-120761904D01*
X90995295Y-120761904D02*
X91185771Y-120714285D01*
X91185771Y-120714285D02*
X91423866Y-120714285D01*
X91423866Y-120714285D02*
X91614342Y-120761904D01*
X91614342Y-120761904D02*
X91709580Y-120809523D01*
X91709580Y-120809523D02*
X91757200Y-120857142D01*
X91757200Y-120857142D02*
X91804819Y-120952380D01*
X91804819Y-120952380D02*
X91804819Y-121047618D01*
X91804819Y-121047618D02*
X91757200Y-121142856D01*
X91757200Y-121142856D02*
X91709580Y-121190475D01*
X91709580Y-121190475D02*
X91614342Y-121238094D01*
X91614342Y-121238094D02*
X91423866Y-121285713D01*
X91423866Y-121285713D02*
X91185771Y-121285713D01*
X91185771Y-121285713D02*
X90995295Y-121238094D01*
X90995295Y-121238094D02*
X90900057Y-121190475D01*
X90900057Y-121190475D02*
X90852438Y-121142856D01*
X90852438Y-121142856D02*
X90804819Y-121047618D01*
X90804819Y-120095237D02*
X90804819Y-119999999D01*
X90804819Y-119999999D02*
X90852438Y-119904761D01*
X90852438Y-119904761D02*
X90900057Y-119857142D01*
X90900057Y-119857142D02*
X90995295Y-119809523D01*
X90995295Y-119809523D02*
X91185771Y-119761904D01*
X91185771Y-119761904D02*
X91423866Y-119761904D01*
X91423866Y-119761904D02*
X91614342Y-119809523D01*
X91614342Y-119809523D02*
X91709580Y-119857142D01*
X91709580Y-119857142D02*
X91757200Y-119904761D01*
X91757200Y-119904761D02*
X91804819Y-119999999D01*
X91804819Y-119999999D02*
X91804819Y-120095237D01*
X91804819Y-120095237D02*
X91757200Y-120190475D01*
X91757200Y-120190475D02*
X91709580Y-120238094D01*
X91709580Y-120238094D02*
X91614342Y-120285713D01*
X91614342Y-120285713D02*
X91423866Y-120333332D01*
X91423866Y-120333332D02*
X91185771Y-120333332D01*
X91185771Y-120333332D02*
X90995295Y-120285713D01*
X90995295Y-120285713D02*
X90900057Y-120238094D01*
X90900057Y-120238094D02*
X90852438Y-120190475D01*
X90852438Y-120190475D02*
X90804819Y-120095237D01*
X90804819Y-119142856D02*
X90804819Y-119047618D01*
X90804819Y-119047618D02*
X90852438Y-118952380D01*
X90852438Y-118952380D02*
X90900057Y-118904761D01*
X90900057Y-118904761D02*
X90995295Y-118857142D01*
X90995295Y-118857142D02*
X91185771Y-118809523D01*
X91185771Y-118809523D02*
X91423866Y-118809523D01*
X91423866Y-118809523D02*
X91614342Y-118857142D01*
X91614342Y-118857142D02*
X91709580Y-118904761D01*
X91709580Y-118904761D02*
X91757200Y-118952380D01*
X91757200Y-118952380D02*
X91804819Y-119047618D01*
X91804819Y-119047618D02*
X91804819Y-119142856D01*
X91804819Y-119142856D02*
X91757200Y-119238094D01*
X91757200Y-119238094D02*
X91709580Y-119285713D01*
X91709580Y-119285713D02*
X91614342Y-119333332D01*
X91614342Y-119333332D02*
X91423866Y-119380951D01*
X91423866Y-119380951D02*
X91185771Y-119380951D01*
X91185771Y-119380951D02*
X90995295Y-119333332D01*
X90995295Y-119333332D02*
X90900057Y-119285713D01*
X90900057Y-119285713D02*
X90852438Y-119238094D01*
X90852438Y-119238094D02*
X90804819Y-119142856D01*
X91804819Y-117619046D02*
X91138152Y-117619046D01*
X91233390Y-117619046D02*
X91185771Y-117571427D01*
X91185771Y-117571427D02*
X91138152Y-117476189D01*
X91138152Y-117476189D02*
X91138152Y-117333332D01*
X91138152Y-117333332D02*
X91185771Y-117238094D01*
X91185771Y-117238094D02*
X91281009Y-117190475D01*
X91281009Y-117190475D02*
X91804819Y-117190475D01*
X91281009Y-117190475D02*
X91185771Y-117142856D01*
X91185771Y-117142856D02*
X91138152Y-117047618D01*
X91138152Y-117047618D02*
X91138152Y-116904761D01*
X91138152Y-116904761D02*
X91185771Y-116809522D01*
X91185771Y-116809522D02*
X91281009Y-116761903D01*
X91281009Y-116761903D02*
X91804819Y-116761903D01*
X91804819Y-116285713D02*
X91138152Y-116285713D01*
X91233390Y-116285713D02*
X91185771Y-116238094D01*
X91185771Y-116238094D02*
X91138152Y-116142856D01*
X91138152Y-116142856D02*
X91138152Y-115999999D01*
X91138152Y-115999999D02*
X91185771Y-115904761D01*
X91185771Y-115904761D02*
X91281009Y-115857142D01*
X91281009Y-115857142D02*
X91804819Y-115857142D01*
X91281009Y-115857142D02*
X91185771Y-115809523D01*
X91185771Y-115809523D02*
X91138152Y-115714285D01*
X91138152Y-115714285D02*
X91138152Y-115571428D01*
X91138152Y-115571428D02*
X91185771Y-115476189D01*
X91185771Y-115476189D02*
X91281009Y-115428570D01*
X91281009Y-115428570D02*
X91804819Y-115428570D01*
D11*
X100500000Y-100000000D02*
X91913580Y-100000000D01*
X100500000Y-140000000D02*
X91913580Y-140000000D01*
X92500000Y-100000000D02*
X92500000Y-140000000D01*
X92500000Y-100000000D02*
X92500000Y-140000000D01*
X92500000Y-100000000D02*
X93086421Y-101126504D01*
X92500000Y-100000000D02*
X91913579Y-101126504D01*
X92500000Y-140000000D02*
X91913579Y-138873496D01*
X92500000Y-140000000D02*
X93086421Y-138873496D01*
M02*
