%TF.GenerationSoftware,KiCad,Pcbnew,8.0.0*%
%TF.CreationDate,2024-05-28T16:54:52+09:00*%
%TF.ProjectId,TINY202_PROG.kicad_240516_single2_pcb,54494e59-3230-4325-9f50-524f472e6b69,rev?*%
%TF.SameCoordinates,Original*%
%TF.FileFunction,Drillmap*%
%TF.FilePolarity,Positive*%
%FSLAX45Y45*%
G04 Gerber Fmt 4.5, Leading zero omitted, Abs format (unit mm)*
G04 Created by KiCad (PCBNEW 8.0.0) date 2024-05-28 16:54:52*
%MOMM*%
%LPD*%
G01*
G04 APERTURE LIST*
%ADD10C,0.200000*%
%ADD11C,0.050000*%
%ADD12C,0.100000*%
%ADD13C,0.110000*%
G04 APERTURE END LIST*
D10*
X13200000Y-10000000D02*
X13300000Y-10100000D01*
X10000000Y-13900000D02*
X10100000Y-14000000D01*
D11*
X10100000Y-14000000D02*
X13200000Y-14000000D01*
X13300000Y-10100000D02*
X13300000Y-13900000D01*
X10100000Y-10000000D02*
X13200000Y-10000000D01*
D10*
X10000000Y-10100000D02*
X10100000Y-10000000D01*
D11*
X10000000Y-10100000D02*
X10000000Y-13900000D01*
D10*
X13300000Y-13900000D02*
X13200000Y-14000000D01*
D12*
X10210000Y-10485000D02*
X10240000Y-10515000D01*
X10240000Y-10485000D02*
X10210000Y-10515000D01*
X10235000Y-11060000D02*
X10265000Y-11090000D01*
X10265000Y-11060000D02*
X10235000Y-11090000D01*
X10235000Y-11160000D02*
X10265000Y-11190000D01*
X10265000Y-11160000D02*
X10235000Y-11190000D01*
X10235000Y-11360000D02*
X10265000Y-11390000D01*
X10265000Y-11360000D02*
X10235000Y-11390000D01*
X10685000Y-10110000D02*
X10715000Y-10140000D01*
X10715000Y-10110000D02*
X10685000Y-10140000D01*
X11235000Y-10210000D02*
X11265000Y-10240000D01*
X11265000Y-10210000D02*
X11235000Y-10240000D01*
X11235000Y-10352500D02*
X11265000Y-10382500D01*
X11265000Y-10352500D02*
X11235000Y-10382500D01*
X11635000Y-11748750D02*
X11665000Y-11778750D01*
X11665000Y-11748750D02*
X11635000Y-11778750D01*
X11745000Y-11545000D02*
X11775000Y-11575000D01*
X11775000Y-11545000D02*
X11745000Y-11575000D01*
X11960000Y-10385000D02*
X11990000Y-10415000D01*
X11990000Y-10385000D02*
X11960000Y-10415000D01*
X11960000Y-10965000D02*
X11990000Y-10995000D01*
X11990000Y-10965000D02*
X11960000Y-10995000D01*
X11995000Y-11545000D02*
X12025000Y-11575000D01*
X12025000Y-11545000D02*
X11995000Y-11575000D01*
X12097500Y-11647500D02*
X12127500Y-11677500D01*
X12127500Y-11647500D02*
X12097500Y-11677500D01*
X12097500Y-12622500D02*
X12127500Y-12652500D01*
X12127500Y-12622500D02*
X12097500Y-12652500D01*
X12110000Y-10685000D02*
X12140000Y-10715000D01*
X12140000Y-10685000D02*
X12110000Y-10715000D01*
X12160000Y-12685000D02*
X12190000Y-12715000D01*
X12190000Y-12685000D02*
X12160000Y-12715000D01*
X12485000Y-11125000D02*
X12515000Y-11155000D01*
X12515000Y-11125000D02*
X12485000Y-11155000D01*
X12485000Y-11585000D02*
X12515000Y-11615000D01*
X12515000Y-11585000D02*
X12485000Y-11615000D01*
X12485000Y-11985000D02*
X12515000Y-12015000D01*
X12515000Y-11985000D02*
X12485000Y-12015000D01*
X12760000Y-11110000D02*
X12790000Y-11140000D01*
X12790000Y-11110000D02*
X12760000Y-11140000D01*
X10490000Y-11787500D02*
G75*
G02*
X10390000Y-11787500I-50000J0D01*
G01*
X10390000Y-11787500D02*
G75*
G02*
X10490000Y-11787500I50000J0D01*
G01*
X10490000Y-12041500D02*
G75*
G02*
X10390000Y-12041500I-50000J0D01*
G01*
X10390000Y-12041500D02*
G75*
G02*
X10490000Y-12041500I50000J0D01*
G01*
X10490000Y-12295500D02*
G75*
G02*
X10390000Y-12295500I-50000J0D01*
G01*
X10390000Y-12295500D02*
G75*
G02*
X10490000Y-12295500I50000J0D01*
G01*
X10490000Y-12549500D02*
G75*
G02*
X10390000Y-12549500I-50000J0D01*
G01*
X10390000Y-12549500D02*
G75*
G02*
X10490000Y-12549500I50000J0D01*
G01*
X10490000Y-12803500D02*
G75*
G02*
X10390000Y-12803500I-50000J0D01*
G01*
X10390000Y-12803500D02*
G75*
G02*
X10490000Y-12803500I50000J0D01*
G01*
X10490000Y-13057500D02*
G75*
G02*
X10390000Y-13057500I-50000J0D01*
G01*
X10390000Y-13057500D02*
G75*
G02*
X10490000Y-13057500I50000J0D01*
G01*
X12922500Y-11769500D02*
G75*
G02*
X12822500Y-11769500I-50000J0D01*
G01*
X12822500Y-11769500D02*
G75*
G02*
X12922500Y-11769500I50000J0D01*
G01*
X12922500Y-12023500D02*
G75*
G02*
X12822500Y-12023500I-50000J0D01*
G01*
X12822500Y-12023500D02*
G75*
G02*
X12922500Y-12023500I50000J0D01*
G01*
X12922500Y-12277500D02*
G75*
G02*
X12822500Y-12277500I-50000J0D01*
G01*
X12822500Y-12277500D02*
G75*
G02*
X12922500Y-12277500I50000J0D01*
G01*
D13*
X10925000Y-13120000D02*
X10925000Y-13230000D01*
X10870000Y-13175000D02*
X10980000Y-13175000D01*
X10925000Y-13570000D02*
X10925000Y-13680000D01*
X10870000Y-13625000D02*
X10980000Y-13625000D01*
X11575000Y-13120000D02*
X11575000Y-13230000D01*
X11520000Y-13175000D02*
X11630000Y-13175000D01*
X11575000Y-13570000D02*
X11575000Y-13680000D01*
X11520000Y-13625000D02*
X11630000Y-13625000D01*
X12075000Y-13120000D02*
X12075000Y-13230000D01*
X12020000Y-13175000D02*
X12130000Y-13175000D01*
X12075000Y-13570000D02*
X12075000Y-13680000D01*
X12020000Y-13625000D02*
X12130000Y-13625000D01*
X12725000Y-13120000D02*
X12725000Y-13230000D01*
X12670000Y-13175000D02*
X12780000Y-13175000D01*
X12725000Y-13570000D02*
X12725000Y-13680000D01*
X12670000Y-13625000D02*
X12780000Y-13625000D01*
D10*
X10250777Y-14321484D02*
X10250777Y-14121484D01*
X10250777Y-14121484D02*
X10298396Y-14121484D01*
X10298396Y-14121484D02*
X10326967Y-14131008D01*
X10326967Y-14131008D02*
X10346015Y-14150055D01*
X10346015Y-14150055D02*
X10355539Y-14169103D01*
X10355539Y-14169103D02*
X10365063Y-14207198D01*
X10365063Y-14207198D02*
X10365063Y-14235769D01*
X10365063Y-14235769D02*
X10355539Y-14273865D01*
X10355539Y-14273865D02*
X10346015Y-14292912D01*
X10346015Y-14292912D02*
X10326967Y-14311960D01*
X10326967Y-14311960D02*
X10298396Y-14321484D01*
X10298396Y-14321484D02*
X10250777Y-14321484D01*
X10450777Y-14321484D02*
X10450777Y-14188150D01*
X10450777Y-14226246D02*
X10460301Y-14207198D01*
X10460301Y-14207198D02*
X10469824Y-14197674D01*
X10469824Y-14197674D02*
X10488872Y-14188150D01*
X10488872Y-14188150D02*
X10507920Y-14188150D01*
X10574586Y-14321484D02*
X10574586Y-14188150D01*
X10574586Y-14121484D02*
X10565063Y-14131008D01*
X10565063Y-14131008D02*
X10574586Y-14140531D01*
X10574586Y-14140531D02*
X10584110Y-14131008D01*
X10584110Y-14131008D02*
X10574586Y-14121484D01*
X10574586Y-14121484D02*
X10574586Y-14140531D01*
X10698396Y-14321484D02*
X10679348Y-14311960D01*
X10679348Y-14311960D02*
X10669824Y-14292912D01*
X10669824Y-14292912D02*
X10669824Y-14121484D01*
X10803158Y-14321484D02*
X10784110Y-14311960D01*
X10784110Y-14311960D02*
X10774586Y-14292912D01*
X10774586Y-14292912D02*
X10774586Y-14121484D01*
X11031729Y-14321484D02*
X11031729Y-14121484D01*
X11031729Y-14121484D02*
X11098396Y-14264341D01*
X11098396Y-14264341D02*
X11165063Y-14121484D01*
X11165063Y-14121484D02*
X11165063Y-14321484D01*
X11346015Y-14321484D02*
X11346015Y-14216722D01*
X11346015Y-14216722D02*
X11336491Y-14197674D01*
X11336491Y-14197674D02*
X11317443Y-14188150D01*
X11317443Y-14188150D02*
X11279348Y-14188150D01*
X11279348Y-14188150D02*
X11260301Y-14197674D01*
X11346015Y-14311960D02*
X11326967Y-14321484D01*
X11326967Y-14321484D02*
X11279348Y-14321484D01*
X11279348Y-14321484D02*
X11260301Y-14311960D01*
X11260301Y-14311960D02*
X11250777Y-14292912D01*
X11250777Y-14292912D02*
X11250777Y-14273865D01*
X11250777Y-14273865D02*
X11260301Y-14254817D01*
X11260301Y-14254817D02*
X11279348Y-14245293D01*
X11279348Y-14245293D02*
X11326967Y-14245293D01*
X11326967Y-14245293D02*
X11346015Y-14235769D01*
X11441253Y-14188150D02*
X11441253Y-14388150D01*
X11441253Y-14197674D02*
X11460301Y-14188150D01*
X11460301Y-14188150D02*
X11498396Y-14188150D01*
X11498396Y-14188150D02*
X11517443Y-14197674D01*
X11517443Y-14197674D02*
X11526967Y-14207198D01*
X11526967Y-14207198D02*
X11536491Y-14226246D01*
X11536491Y-14226246D02*
X11536491Y-14283388D01*
X11536491Y-14283388D02*
X11526967Y-14302436D01*
X11526967Y-14302436D02*
X11517443Y-14311960D01*
X11517443Y-14311960D02*
X11498396Y-14321484D01*
X11498396Y-14321484D02*
X11460301Y-14321484D01*
X11460301Y-14321484D02*
X11441253Y-14311960D01*
X11622205Y-14302436D02*
X11631729Y-14311960D01*
X11631729Y-14311960D02*
X11622205Y-14321484D01*
X11622205Y-14321484D02*
X11612682Y-14311960D01*
X11612682Y-14311960D02*
X11622205Y-14302436D01*
X11622205Y-14302436D02*
X11622205Y-14321484D01*
X11622205Y-14197674D02*
X11631729Y-14207198D01*
X11631729Y-14207198D02*
X11622205Y-14216722D01*
X11622205Y-14216722D02*
X11612682Y-14207198D01*
X11612682Y-14207198D02*
X11622205Y-14197674D01*
X11622205Y-14197674D02*
X11622205Y-14216722D01*
D12*
X9960000Y-14635000D02*
X9990000Y-14665000D01*
X9990000Y-14635000D02*
X9960000Y-14665000D01*
D10*
X10288872Y-14541484D02*
X10307920Y-14541484D01*
X10307920Y-14541484D02*
X10326967Y-14551008D01*
X10326967Y-14551008D02*
X10336491Y-14560531D01*
X10336491Y-14560531D02*
X10346015Y-14579579D01*
X10346015Y-14579579D02*
X10355539Y-14617674D01*
X10355539Y-14617674D02*
X10355539Y-14665293D01*
X10355539Y-14665293D02*
X10346015Y-14703388D01*
X10346015Y-14703388D02*
X10336491Y-14722436D01*
X10336491Y-14722436D02*
X10326967Y-14731960D01*
X10326967Y-14731960D02*
X10307920Y-14741484D01*
X10307920Y-14741484D02*
X10288872Y-14741484D01*
X10288872Y-14741484D02*
X10269824Y-14731960D01*
X10269824Y-14731960D02*
X10260301Y-14722436D01*
X10260301Y-14722436D02*
X10250777Y-14703388D01*
X10250777Y-14703388D02*
X10241253Y-14665293D01*
X10241253Y-14665293D02*
X10241253Y-14617674D01*
X10241253Y-14617674D02*
X10250777Y-14579579D01*
X10250777Y-14579579D02*
X10260301Y-14560531D01*
X10260301Y-14560531D02*
X10269824Y-14551008D01*
X10269824Y-14551008D02*
X10288872Y-14541484D01*
X10441253Y-14722436D02*
X10450777Y-14731960D01*
X10450777Y-14731960D02*
X10441253Y-14741484D01*
X10441253Y-14741484D02*
X10431729Y-14731960D01*
X10431729Y-14731960D02*
X10441253Y-14722436D01*
X10441253Y-14722436D02*
X10441253Y-14741484D01*
X10517444Y-14541484D02*
X10641253Y-14541484D01*
X10641253Y-14541484D02*
X10574586Y-14617674D01*
X10574586Y-14617674D02*
X10603158Y-14617674D01*
X10603158Y-14617674D02*
X10622205Y-14627198D01*
X10622205Y-14627198D02*
X10631729Y-14636722D01*
X10631729Y-14636722D02*
X10641253Y-14655769D01*
X10641253Y-14655769D02*
X10641253Y-14703388D01*
X10641253Y-14703388D02*
X10631729Y-14722436D01*
X10631729Y-14722436D02*
X10622205Y-14731960D01*
X10622205Y-14731960D02*
X10603158Y-14741484D01*
X10603158Y-14741484D02*
X10546015Y-14741484D01*
X10546015Y-14741484D02*
X10526967Y-14731960D01*
X10526967Y-14731960D02*
X10517444Y-14722436D01*
X10765063Y-14541484D02*
X10784110Y-14541484D01*
X10784110Y-14541484D02*
X10803158Y-14551008D01*
X10803158Y-14551008D02*
X10812682Y-14560531D01*
X10812682Y-14560531D02*
X10822205Y-14579579D01*
X10822205Y-14579579D02*
X10831729Y-14617674D01*
X10831729Y-14617674D02*
X10831729Y-14665293D01*
X10831729Y-14665293D02*
X10822205Y-14703388D01*
X10822205Y-14703388D02*
X10812682Y-14722436D01*
X10812682Y-14722436D02*
X10803158Y-14731960D01*
X10803158Y-14731960D02*
X10784110Y-14741484D01*
X10784110Y-14741484D02*
X10765063Y-14741484D01*
X10765063Y-14741484D02*
X10746015Y-14731960D01*
X10746015Y-14731960D02*
X10736491Y-14722436D01*
X10736491Y-14722436D02*
X10726967Y-14703388D01*
X10726967Y-14703388D02*
X10717444Y-14665293D01*
X10717444Y-14665293D02*
X10717444Y-14617674D01*
X10717444Y-14617674D02*
X10726967Y-14579579D01*
X10726967Y-14579579D02*
X10736491Y-14560531D01*
X10736491Y-14560531D02*
X10746015Y-14551008D01*
X10746015Y-14551008D02*
X10765063Y-14541484D01*
X10955539Y-14541484D02*
X10974586Y-14541484D01*
X10974586Y-14541484D02*
X10993634Y-14551008D01*
X10993634Y-14551008D02*
X11003158Y-14560531D01*
X11003158Y-14560531D02*
X11012682Y-14579579D01*
X11012682Y-14579579D02*
X11022205Y-14617674D01*
X11022205Y-14617674D02*
X11022205Y-14665293D01*
X11022205Y-14665293D02*
X11012682Y-14703388D01*
X11012682Y-14703388D02*
X11003158Y-14722436D01*
X11003158Y-14722436D02*
X10993634Y-14731960D01*
X10993634Y-14731960D02*
X10974586Y-14741484D01*
X10974586Y-14741484D02*
X10955539Y-14741484D01*
X10955539Y-14741484D02*
X10936491Y-14731960D01*
X10936491Y-14731960D02*
X10926967Y-14722436D01*
X10926967Y-14722436D02*
X10917444Y-14703388D01*
X10917444Y-14703388D02*
X10907920Y-14665293D01*
X10907920Y-14665293D02*
X10907920Y-14617674D01*
X10907920Y-14617674D02*
X10917444Y-14579579D01*
X10917444Y-14579579D02*
X10926967Y-14560531D01*
X10926967Y-14560531D02*
X10936491Y-14551008D01*
X10936491Y-14551008D02*
X10955539Y-14541484D01*
X11107920Y-14741484D02*
X11107920Y-14608150D01*
X11107920Y-14627198D02*
X11117444Y-14617674D01*
X11117444Y-14617674D02*
X11136491Y-14608150D01*
X11136491Y-14608150D02*
X11165063Y-14608150D01*
X11165063Y-14608150D02*
X11184110Y-14617674D01*
X11184110Y-14617674D02*
X11193634Y-14636722D01*
X11193634Y-14636722D02*
X11193634Y-14741484D01*
X11193634Y-14636722D02*
X11203158Y-14617674D01*
X11203158Y-14617674D02*
X11222205Y-14608150D01*
X11222205Y-14608150D02*
X11250777Y-14608150D01*
X11250777Y-14608150D02*
X11269824Y-14617674D01*
X11269824Y-14617674D02*
X11279348Y-14636722D01*
X11279348Y-14636722D02*
X11279348Y-14741484D01*
X11374586Y-14741484D02*
X11374586Y-14608150D01*
X11374586Y-14627198D02*
X11384110Y-14617674D01*
X11384110Y-14617674D02*
X11403158Y-14608150D01*
X11403158Y-14608150D02*
X11431729Y-14608150D01*
X11431729Y-14608150D02*
X11450777Y-14617674D01*
X11450777Y-14617674D02*
X11460301Y-14636722D01*
X11460301Y-14636722D02*
X11460301Y-14741484D01*
X11460301Y-14636722D02*
X11469824Y-14617674D01*
X11469824Y-14617674D02*
X11488872Y-14608150D01*
X11488872Y-14608150D02*
X11517443Y-14608150D01*
X11517443Y-14608150D02*
X11536491Y-14617674D01*
X11536491Y-14617674D02*
X11546015Y-14636722D01*
X11546015Y-14636722D02*
X11546015Y-14741484D01*
X11936491Y-14531960D02*
X11765063Y-14789103D01*
X12193634Y-14541484D02*
X12212682Y-14541484D01*
X12212682Y-14541484D02*
X12231729Y-14551008D01*
X12231729Y-14551008D02*
X12241253Y-14560531D01*
X12241253Y-14560531D02*
X12250777Y-14579579D01*
X12250777Y-14579579D02*
X12260301Y-14617674D01*
X12260301Y-14617674D02*
X12260301Y-14665293D01*
X12260301Y-14665293D02*
X12250777Y-14703388D01*
X12250777Y-14703388D02*
X12241253Y-14722436D01*
X12241253Y-14722436D02*
X12231729Y-14731960D01*
X12231729Y-14731960D02*
X12212682Y-14741484D01*
X12212682Y-14741484D02*
X12193634Y-14741484D01*
X12193634Y-14741484D02*
X12174586Y-14731960D01*
X12174586Y-14731960D02*
X12165063Y-14722436D01*
X12165063Y-14722436D02*
X12155539Y-14703388D01*
X12155539Y-14703388D02*
X12146015Y-14665293D01*
X12146015Y-14665293D02*
X12146015Y-14617674D01*
X12146015Y-14617674D02*
X12155539Y-14579579D01*
X12155539Y-14579579D02*
X12165063Y-14560531D01*
X12165063Y-14560531D02*
X12174586Y-14551008D01*
X12174586Y-14551008D02*
X12193634Y-14541484D01*
X12346015Y-14722436D02*
X12355539Y-14731960D01*
X12355539Y-14731960D02*
X12346015Y-14741484D01*
X12346015Y-14741484D02*
X12336491Y-14731960D01*
X12336491Y-14731960D02*
X12346015Y-14722436D01*
X12346015Y-14722436D02*
X12346015Y-14741484D01*
X12479348Y-14541484D02*
X12498396Y-14541484D01*
X12498396Y-14541484D02*
X12517444Y-14551008D01*
X12517444Y-14551008D02*
X12526967Y-14560531D01*
X12526967Y-14560531D02*
X12536491Y-14579579D01*
X12536491Y-14579579D02*
X12546015Y-14617674D01*
X12546015Y-14617674D02*
X12546015Y-14665293D01*
X12546015Y-14665293D02*
X12536491Y-14703388D01*
X12536491Y-14703388D02*
X12526967Y-14722436D01*
X12526967Y-14722436D02*
X12517444Y-14731960D01*
X12517444Y-14731960D02*
X12498396Y-14741484D01*
X12498396Y-14741484D02*
X12479348Y-14741484D01*
X12479348Y-14741484D02*
X12460301Y-14731960D01*
X12460301Y-14731960D02*
X12450777Y-14722436D01*
X12450777Y-14722436D02*
X12441253Y-14703388D01*
X12441253Y-14703388D02*
X12431729Y-14665293D01*
X12431729Y-14665293D02*
X12431729Y-14617674D01*
X12431729Y-14617674D02*
X12441253Y-14579579D01*
X12441253Y-14579579D02*
X12450777Y-14560531D01*
X12450777Y-14560531D02*
X12460301Y-14551008D01*
X12460301Y-14551008D02*
X12479348Y-14541484D01*
X12736491Y-14741484D02*
X12622206Y-14741484D01*
X12679348Y-14741484D02*
X12679348Y-14541484D01*
X12679348Y-14541484D02*
X12660301Y-14570055D01*
X12660301Y-14570055D02*
X12641253Y-14589103D01*
X12641253Y-14589103D02*
X12622206Y-14598627D01*
X12926967Y-14741484D02*
X12812682Y-14741484D01*
X12869825Y-14741484D02*
X12869825Y-14541484D01*
X12869825Y-14541484D02*
X12850777Y-14570055D01*
X12850777Y-14570055D02*
X12831729Y-14589103D01*
X12831729Y-14589103D02*
X12812682Y-14598627D01*
X13041253Y-14627198D02*
X13022206Y-14617674D01*
X13022206Y-14617674D02*
X13012682Y-14608150D01*
X13012682Y-14608150D02*
X13003158Y-14589103D01*
X13003158Y-14589103D02*
X13003158Y-14579579D01*
X13003158Y-14579579D02*
X13012682Y-14560531D01*
X13012682Y-14560531D02*
X13022206Y-14551008D01*
X13022206Y-14551008D02*
X13041253Y-14541484D01*
X13041253Y-14541484D02*
X13079348Y-14541484D01*
X13079348Y-14541484D02*
X13098396Y-14551008D01*
X13098396Y-14551008D02*
X13107920Y-14560531D01*
X13107920Y-14560531D02*
X13117444Y-14579579D01*
X13117444Y-14579579D02*
X13117444Y-14589103D01*
X13117444Y-14589103D02*
X13107920Y-14608150D01*
X13107920Y-14608150D02*
X13098396Y-14617674D01*
X13098396Y-14617674D02*
X13079348Y-14627198D01*
X13079348Y-14627198D02*
X13041253Y-14627198D01*
X13041253Y-14627198D02*
X13022206Y-14636722D01*
X13022206Y-14636722D02*
X13012682Y-14646246D01*
X13012682Y-14646246D02*
X13003158Y-14665293D01*
X13003158Y-14665293D02*
X13003158Y-14703388D01*
X13003158Y-14703388D02*
X13012682Y-14722436D01*
X13012682Y-14722436D02*
X13022206Y-14731960D01*
X13022206Y-14731960D02*
X13041253Y-14741484D01*
X13041253Y-14741484D02*
X13079348Y-14741484D01*
X13079348Y-14741484D02*
X13098396Y-14731960D01*
X13098396Y-14731960D02*
X13107920Y-14722436D01*
X13107920Y-14722436D02*
X13117444Y-14703388D01*
X13117444Y-14703388D02*
X13117444Y-14665293D01*
X13117444Y-14665293D02*
X13107920Y-14646246D01*
X13107920Y-14646246D02*
X13098396Y-14636722D01*
X13098396Y-14636722D02*
X13079348Y-14627198D01*
X13193634Y-14541484D02*
X13193634Y-14579579D01*
X13269825Y-14541484D02*
X13269825Y-14579579D01*
X13565063Y-14817674D02*
X13555539Y-14808150D01*
X13555539Y-14808150D02*
X13536491Y-14779579D01*
X13536491Y-14779579D02*
X13526968Y-14760531D01*
X13526968Y-14760531D02*
X13517444Y-14731960D01*
X13517444Y-14731960D02*
X13507920Y-14684341D01*
X13507920Y-14684341D02*
X13507920Y-14646246D01*
X13507920Y-14646246D02*
X13517444Y-14598627D01*
X13517444Y-14598627D02*
X13526968Y-14570055D01*
X13526968Y-14570055D02*
X13536491Y-14551008D01*
X13536491Y-14551008D02*
X13555539Y-14522436D01*
X13555539Y-14522436D02*
X13565063Y-14512912D01*
X13631729Y-14560531D02*
X13641253Y-14551008D01*
X13641253Y-14551008D02*
X13660301Y-14541484D01*
X13660301Y-14541484D02*
X13707920Y-14541484D01*
X13707920Y-14541484D02*
X13726968Y-14551008D01*
X13726968Y-14551008D02*
X13736491Y-14560531D01*
X13736491Y-14560531D02*
X13746015Y-14579579D01*
X13746015Y-14579579D02*
X13746015Y-14598627D01*
X13746015Y-14598627D02*
X13736491Y-14627198D01*
X13736491Y-14627198D02*
X13622206Y-14741484D01*
X13622206Y-14741484D02*
X13746015Y-14741484D01*
X13869825Y-14541484D02*
X13888872Y-14541484D01*
X13888872Y-14541484D02*
X13907920Y-14551008D01*
X13907920Y-14551008D02*
X13917444Y-14560531D01*
X13917444Y-14560531D02*
X13926968Y-14579579D01*
X13926968Y-14579579D02*
X13936491Y-14617674D01*
X13936491Y-14617674D02*
X13936491Y-14665293D01*
X13936491Y-14665293D02*
X13926968Y-14703388D01*
X13926968Y-14703388D02*
X13917444Y-14722436D01*
X13917444Y-14722436D02*
X13907920Y-14731960D01*
X13907920Y-14731960D02*
X13888872Y-14741484D01*
X13888872Y-14741484D02*
X13869825Y-14741484D01*
X13869825Y-14741484D02*
X13850777Y-14731960D01*
X13850777Y-14731960D02*
X13841253Y-14722436D01*
X13841253Y-14722436D02*
X13831729Y-14703388D01*
X13831729Y-14703388D02*
X13822206Y-14665293D01*
X13822206Y-14665293D02*
X13822206Y-14617674D01*
X13822206Y-14617674D02*
X13831729Y-14579579D01*
X13831729Y-14579579D02*
X13841253Y-14560531D01*
X13841253Y-14560531D02*
X13850777Y-14551008D01*
X13850777Y-14551008D02*
X13869825Y-14541484D01*
X14174587Y-14741484D02*
X14174587Y-14541484D01*
X14260301Y-14741484D02*
X14260301Y-14636722D01*
X14260301Y-14636722D02*
X14250777Y-14617674D01*
X14250777Y-14617674D02*
X14231730Y-14608150D01*
X14231730Y-14608150D02*
X14203158Y-14608150D01*
X14203158Y-14608150D02*
X14184110Y-14617674D01*
X14184110Y-14617674D02*
X14174587Y-14627198D01*
X14384110Y-14741484D02*
X14365063Y-14731960D01*
X14365063Y-14731960D02*
X14355539Y-14722436D01*
X14355539Y-14722436D02*
X14346015Y-14703388D01*
X14346015Y-14703388D02*
X14346015Y-14646246D01*
X14346015Y-14646246D02*
X14355539Y-14627198D01*
X14355539Y-14627198D02*
X14365063Y-14617674D01*
X14365063Y-14617674D02*
X14384110Y-14608150D01*
X14384110Y-14608150D02*
X14412682Y-14608150D01*
X14412682Y-14608150D02*
X14431730Y-14617674D01*
X14431730Y-14617674D02*
X14441253Y-14627198D01*
X14441253Y-14627198D02*
X14450777Y-14646246D01*
X14450777Y-14646246D02*
X14450777Y-14703388D01*
X14450777Y-14703388D02*
X14441253Y-14722436D01*
X14441253Y-14722436D02*
X14431730Y-14731960D01*
X14431730Y-14731960D02*
X14412682Y-14741484D01*
X14412682Y-14741484D02*
X14384110Y-14741484D01*
X14565063Y-14741484D02*
X14546015Y-14731960D01*
X14546015Y-14731960D02*
X14536491Y-14712912D01*
X14536491Y-14712912D02*
X14536491Y-14541484D01*
X14717444Y-14731960D02*
X14698396Y-14741484D01*
X14698396Y-14741484D02*
X14660301Y-14741484D01*
X14660301Y-14741484D02*
X14641253Y-14731960D01*
X14641253Y-14731960D02*
X14631730Y-14712912D01*
X14631730Y-14712912D02*
X14631730Y-14636722D01*
X14631730Y-14636722D02*
X14641253Y-14617674D01*
X14641253Y-14617674D02*
X14660301Y-14608150D01*
X14660301Y-14608150D02*
X14698396Y-14608150D01*
X14698396Y-14608150D02*
X14717444Y-14617674D01*
X14717444Y-14617674D02*
X14726968Y-14636722D01*
X14726968Y-14636722D02*
X14726968Y-14655769D01*
X14726968Y-14655769D02*
X14631730Y-14674817D01*
X14803158Y-14731960D02*
X14822206Y-14741484D01*
X14822206Y-14741484D02*
X14860301Y-14741484D01*
X14860301Y-14741484D02*
X14879349Y-14731960D01*
X14879349Y-14731960D02*
X14888872Y-14712912D01*
X14888872Y-14712912D02*
X14888872Y-14703388D01*
X14888872Y-14703388D02*
X14879349Y-14684341D01*
X14879349Y-14684341D02*
X14860301Y-14674817D01*
X14860301Y-14674817D02*
X14831730Y-14674817D01*
X14831730Y-14674817D02*
X14812682Y-14665293D01*
X14812682Y-14665293D02*
X14803158Y-14646246D01*
X14803158Y-14646246D02*
X14803158Y-14636722D01*
X14803158Y-14636722D02*
X14812682Y-14617674D01*
X14812682Y-14617674D02*
X14831730Y-14608150D01*
X14831730Y-14608150D02*
X14860301Y-14608150D01*
X14860301Y-14608150D02*
X14879349Y-14617674D01*
X14955539Y-14817674D02*
X14965063Y-14808150D01*
X14965063Y-14808150D02*
X14984111Y-14779579D01*
X14984111Y-14779579D02*
X14993634Y-14760531D01*
X14993634Y-14760531D02*
X15003158Y-14731960D01*
X15003158Y-14731960D02*
X15012682Y-14684341D01*
X15012682Y-14684341D02*
X15012682Y-14646246D01*
X15012682Y-14646246D02*
X15003158Y-14598627D01*
X15003158Y-14598627D02*
X14993634Y-14570055D01*
X14993634Y-14570055D02*
X14984111Y-14551008D01*
X14984111Y-14551008D02*
X14965063Y-14522436D01*
X14965063Y-14522436D02*
X14955539Y-14512912D01*
D12*
X9990000Y-14914000D02*
G75*
G02*
X9890000Y-14914000I-50000J0D01*
G01*
X9890000Y-14914000D02*
G75*
G02*
X9990000Y-14914000I50000J0D01*
G01*
D10*
X10355539Y-15005484D02*
X10241253Y-15005484D01*
X10298396Y-15005484D02*
X10298396Y-14805484D01*
X10298396Y-14805484D02*
X10279348Y-14834055D01*
X10279348Y-14834055D02*
X10260301Y-14853103D01*
X10260301Y-14853103D02*
X10241253Y-14862627D01*
X10441253Y-14986436D02*
X10450777Y-14995960D01*
X10450777Y-14995960D02*
X10441253Y-15005484D01*
X10441253Y-15005484D02*
X10431729Y-14995960D01*
X10431729Y-14995960D02*
X10441253Y-14986436D01*
X10441253Y-14986436D02*
X10441253Y-15005484D01*
X10574586Y-14805484D02*
X10593634Y-14805484D01*
X10593634Y-14805484D02*
X10612682Y-14815008D01*
X10612682Y-14815008D02*
X10622205Y-14824531D01*
X10622205Y-14824531D02*
X10631729Y-14843579D01*
X10631729Y-14843579D02*
X10641253Y-14881674D01*
X10641253Y-14881674D02*
X10641253Y-14929293D01*
X10641253Y-14929293D02*
X10631729Y-14967388D01*
X10631729Y-14967388D02*
X10622205Y-14986436D01*
X10622205Y-14986436D02*
X10612682Y-14995960D01*
X10612682Y-14995960D02*
X10593634Y-15005484D01*
X10593634Y-15005484D02*
X10574586Y-15005484D01*
X10574586Y-15005484D02*
X10555539Y-14995960D01*
X10555539Y-14995960D02*
X10546015Y-14986436D01*
X10546015Y-14986436D02*
X10536491Y-14967388D01*
X10536491Y-14967388D02*
X10526967Y-14929293D01*
X10526967Y-14929293D02*
X10526967Y-14881674D01*
X10526967Y-14881674D02*
X10536491Y-14843579D01*
X10536491Y-14843579D02*
X10546015Y-14824531D01*
X10546015Y-14824531D02*
X10555539Y-14815008D01*
X10555539Y-14815008D02*
X10574586Y-14805484D01*
X10765063Y-14805484D02*
X10784110Y-14805484D01*
X10784110Y-14805484D02*
X10803158Y-14815008D01*
X10803158Y-14815008D02*
X10812682Y-14824531D01*
X10812682Y-14824531D02*
X10822205Y-14843579D01*
X10822205Y-14843579D02*
X10831729Y-14881674D01*
X10831729Y-14881674D02*
X10831729Y-14929293D01*
X10831729Y-14929293D02*
X10822205Y-14967388D01*
X10822205Y-14967388D02*
X10812682Y-14986436D01*
X10812682Y-14986436D02*
X10803158Y-14995960D01*
X10803158Y-14995960D02*
X10784110Y-15005484D01*
X10784110Y-15005484D02*
X10765063Y-15005484D01*
X10765063Y-15005484D02*
X10746015Y-14995960D01*
X10746015Y-14995960D02*
X10736491Y-14986436D01*
X10736491Y-14986436D02*
X10726967Y-14967388D01*
X10726967Y-14967388D02*
X10717444Y-14929293D01*
X10717444Y-14929293D02*
X10717444Y-14881674D01*
X10717444Y-14881674D02*
X10726967Y-14843579D01*
X10726967Y-14843579D02*
X10736491Y-14824531D01*
X10736491Y-14824531D02*
X10746015Y-14815008D01*
X10746015Y-14815008D02*
X10765063Y-14805484D01*
X10955539Y-14805484D02*
X10974586Y-14805484D01*
X10974586Y-14805484D02*
X10993634Y-14815008D01*
X10993634Y-14815008D02*
X11003158Y-14824531D01*
X11003158Y-14824531D02*
X11012682Y-14843579D01*
X11012682Y-14843579D02*
X11022205Y-14881674D01*
X11022205Y-14881674D02*
X11022205Y-14929293D01*
X11022205Y-14929293D02*
X11012682Y-14967388D01*
X11012682Y-14967388D02*
X11003158Y-14986436D01*
X11003158Y-14986436D02*
X10993634Y-14995960D01*
X10993634Y-14995960D02*
X10974586Y-15005484D01*
X10974586Y-15005484D02*
X10955539Y-15005484D01*
X10955539Y-15005484D02*
X10936491Y-14995960D01*
X10936491Y-14995960D02*
X10926967Y-14986436D01*
X10926967Y-14986436D02*
X10917444Y-14967388D01*
X10917444Y-14967388D02*
X10907920Y-14929293D01*
X10907920Y-14929293D02*
X10907920Y-14881674D01*
X10907920Y-14881674D02*
X10917444Y-14843579D01*
X10917444Y-14843579D02*
X10926967Y-14824531D01*
X10926967Y-14824531D02*
X10936491Y-14815008D01*
X10936491Y-14815008D02*
X10955539Y-14805484D01*
X11107920Y-15005484D02*
X11107920Y-14872150D01*
X11107920Y-14891198D02*
X11117444Y-14881674D01*
X11117444Y-14881674D02*
X11136491Y-14872150D01*
X11136491Y-14872150D02*
X11165063Y-14872150D01*
X11165063Y-14872150D02*
X11184110Y-14881674D01*
X11184110Y-14881674D02*
X11193634Y-14900722D01*
X11193634Y-14900722D02*
X11193634Y-15005484D01*
X11193634Y-14900722D02*
X11203158Y-14881674D01*
X11203158Y-14881674D02*
X11222205Y-14872150D01*
X11222205Y-14872150D02*
X11250777Y-14872150D01*
X11250777Y-14872150D02*
X11269824Y-14881674D01*
X11269824Y-14881674D02*
X11279348Y-14900722D01*
X11279348Y-14900722D02*
X11279348Y-15005484D01*
X11374586Y-15005484D02*
X11374586Y-14872150D01*
X11374586Y-14891198D02*
X11384110Y-14881674D01*
X11384110Y-14881674D02*
X11403158Y-14872150D01*
X11403158Y-14872150D02*
X11431729Y-14872150D01*
X11431729Y-14872150D02*
X11450777Y-14881674D01*
X11450777Y-14881674D02*
X11460301Y-14900722D01*
X11460301Y-14900722D02*
X11460301Y-15005484D01*
X11460301Y-14900722D02*
X11469824Y-14881674D01*
X11469824Y-14881674D02*
X11488872Y-14872150D01*
X11488872Y-14872150D02*
X11517443Y-14872150D01*
X11517443Y-14872150D02*
X11536491Y-14881674D01*
X11536491Y-14881674D02*
X11546015Y-14900722D01*
X11546015Y-14900722D02*
X11546015Y-15005484D01*
X11936491Y-14795960D02*
X11765063Y-15053103D01*
X12193634Y-14805484D02*
X12212682Y-14805484D01*
X12212682Y-14805484D02*
X12231729Y-14815008D01*
X12231729Y-14815008D02*
X12241253Y-14824531D01*
X12241253Y-14824531D02*
X12250777Y-14843579D01*
X12250777Y-14843579D02*
X12260301Y-14881674D01*
X12260301Y-14881674D02*
X12260301Y-14929293D01*
X12260301Y-14929293D02*
X12250777Y-14967388D01*
X12250777Y-14967388D02*
X12241253Y-14986436D01*
X12241253Y-14986436D02*
X12231729Y-14995960D01*
X12231729Y-14995960D02*
X12212682Y-15005484D01*
X12212682Y-15005484D02*
X12193634Y-15005484D01*
X12193634Y-15005484D02*
X12174586Y-14995960D01*
X12174586Y-14995960D02*
X12165063Y-14986436D01*
X12165063Y-14986436D02*
X12155539Y-14967388D01*
X12155539Y-14967388D02*
X12146015Y-14929293D01*
X12146015Y-14929293D02*
X12146015Y-14881674D01*
X12146015Y-14881674D02*
X12155539Y-14843579D01*
X12155539Y-14843579D02*
X12165063Y-14824531D01*
X12165063Y-14824531D02*
X12174586Y-14815008D01*
X12174586Y-14815008D02*
X12193634Y-14805484D01*
X12346015Y-14986436D02*
X12355539Y-14995960D01*
X12355539Y-14995960D02*
X12346015Y-15005484D01*
X12346015Y-15005484D02*
X12336491Y-14995960D01*
X12336491Y-14995960D02*
X12346015Y-14986436D01*
X12346015Y-14986436D02*
X12346015Y-15005484D01*
X12479348Y-14805484D02*
X12498396Y-14805484D01*
X12498396Y-14805484D02*
X12517444Y-14815008D01*
X12517444Y-14815008D02*
X12526967Y-14824531D01*
X12526967Y-14824531D02*
X12536491Y-14843579D01*
X12536491Y-14843579D02*
X12546015Y-14881674D01*
X12546015Y-14881674D02*
X12546015Y-14929293D01*
X12546015Y-14929293D02*
X12536491Y-14967388D01*
X12536491Y-14967388D02*
X12526967Y-14986436D01*
X12526967Y-14986436D02*
X12517444Y-14995960D01*
X12517444Y-14995960D02*
X12498396Y-15005484D01*
X12498396Y-15005484D02*
X12479348Y-15005484D01*
X12479348Y-15005484D02*
X12460301Y-14995960D01*
X12460301Y-14995960D02*
X12450777Y-14986436D01*
X12450777Y-14986436D02*
X12441253Y-14967388D01*
X12441253Y-14967388D02*
X12431729Y-14929293D01*
X12431729Y-14929293D02*
X12431729Y-14881674D01*
X12431729Y-14881674D02*
X12441253Y-14843579D01*
X12441253Y-14843579D02*
X12450777Y-14824531D01*
X12450777Y-14824531D02*
X12460301Y-14815008D01*
X12460301Y-14815008D02*
X12479348Y-14805484D01*
X12612682Y-14805484D02*
X12736491Y-14805484D01*
X12736491Y-14805484D02*
X12669825Y-14881674D01*
X12669825Y-14881674D02*
X12698396Y-14881674D01*
X12698396Y-14881674D02*
X12717444Y-14891198D01*
X12717444Y-14891198D02*
X12726967Y-14900722D01*
X12726967Y-14900722D02*
X12736491Y-14919769D01*
X12736491Y-14919769D02*
X12736491Y-14967388D01*
X12736491Y-14967388D02*
X12726967Y-14986436D01*
X12726967Y-14986436D02*
X12717444Y-14995960D01*
X12717444Y-14995960D02*
X12698396Y-15005484D01*
X12698396Y-15005484D02*
X12641253Y-15005484D01*
X12641253Y-15005484D02*
X12622206Y-14995960D01*
X12622206Y-14995960D02*
X12612682Y-14986436D01*
X12831729Y-15005484D02*
X12869825Y-15005484D01*
X12869825Y-15005484D02*
X12888872Y-14995960D01*
X12888872Y-14995960D02*
X12898396Y-14986436D01*
X12898396Y-14986436D02*
X12917444Y-14957865D01*
X12917444Y-14957865D02*
X12926967Y-14919769D01*
X12926967Y-14919769D02*
X12926967Y-14843579D01*
X12926967Y-14843579D02*
X12917444Y-14824531D01*
X12917444Y-14824531D02*
X12907920Y-14815008D01*
X12907920Y-14815008D02*
X12888872Y-14805484D01*
X12888872Y-14805484D02*
X12850777Y-14805484D01*
X12850777Y-14805484D02*
X12831729Y-14815008D01*
X12831729Y-14815008D02*
X12822206Y-14824531D01*
X12822206Y-14824531D02*
X12812682Y-14843579D01*
X12812682Y-14843579D02*
X12812682Y-14891198D01*
X12812682Y-14891198D02*
X12822206Y-14910246D01*
X12822206Y-14910246D02*
X12831729Y-14919769D01*
X12831729Y-14919769D02*
X12850777Y-14929293D01*
X12850777Y-14929293D02*
X12888872Y-14929293D01*
X12888872Y-14929293D02*
X12907920Y-14919769D01*
X12907920Y-14919769D02*
X12917444Y-14910246D01*
X12917444Y-14910246D02*
X12926967Y-14891198D01*
X13098396Y-14872150D02*
X13098396Y-15005484D01*
X13050777Y-14795960D02*
X13003158Y-14938817D01*
X13003158Y-14938817D02*
X13126967Y-14938817D01*
X13193634Y-14805484D02*
X13193634Y-14843579D01*
X13269825Y-14805484D02*
X13269825Y-14843579D01*
X13565063Y-15081674D02*
X13555539Y-15072150D01*
X13555539Y-15072150D02*
X13536491Y-15043579D01*
X13536491Y-15043579D02*
X13526968Y-15024531D01*
X13526968Y-15024531D02*
X13517444Y-14995960D01*
X13517444Y-14995960D02*
X13507920Y-14948341D01*
X13507920Y-14948341D02*
X13507920Y-14910246D01*
X13507920Y-14910246D02*
X13517444Y-14862627D01*
X13517444Y-14862627D02*
X13526968Y-14834055D01*
X13526968Y-14834055D02*
X13536491Y-14815008D01*
X13536491Y-14815008D02*
X13555539Y-14786436D01*
X13555539Y-14786436D02*
X13565063Y-14776912D01*
X13650777Y-15005484D02*
X13688872Y-15005484D01*
X13688872Y-15005484D02*
X13707920Y-14995960D01*
X13707920Y-14995960D02*
X13717444Y-14986436D01*
X13717444Y-14986436D02*
X13736491Y-14957865D01*
X13736491Y-14957865D02*
X13746015Y-14919769D01*
X13746015Y-14919769D02*
X13746015Y-14843579D01*
X13746015Y-14843579D02*
X13736491Y-14824531D01*
X13736491Y-14824531D02*
X13726968Y-14815008D01*
X13726968Y-14815008D02*
X13707920Y-14805484D01*
X13707920Y-14805484D02*
X13669825Y-14805484D01*
X13669825Y-14805484D02*
X13650777Y-14815008D01*
X13650777Y-14815008D02*
X13641253Y-14824531D01*
X13641253Y-14824531D02*
X13631729Y-14843579D01*
X13631729Y-14843579D02*
X13631729Y-14891198D01*
X13631729Y-14891198D02*
X13641253Y-14910246D01*
X13641253Y-14910246D02*
X13650777Y-14919769D01*
X13650777Y-14919769D02*
X13669825Y-14929293D01*
X13669825Y-14929293D02*
X13707920Y-14929293D01*
X13707920Y-14929293D02*
X13726968Y-14919769D01*
X13726968Y-14919769D02*
X13736491Y-14910246D01*
X13736491Y-14910246D02*
X13746015Y-14891198D01*
X13984110Y-15005484D02*
X13984110Y-14805484D01*
X14069825Y-15005484D02*
X14069825Y-14900722D01*
X14069825Y-14900722D02*
X14060301Y-14881674D01*
X14060301Y-14881674D02*
X14041253Y-14872150D01*
X14041253Y-14872150D02*
X14012682Y-14872150D01*
X14012682Y-14872150D02*
X13993634Y-14881674D01*
X13993634Y-14881674D02*
X13984110Y-14891198D01*
X14193634Y-15005484D02*
X14174587Y-14995960D01*
X14174587Y-14995960D02*
X14165063Y-14986436D01*
X14165063Y-14986436D02*
X14155539Y-14967388D01*
X14155539Y-14967388D02*
X14155539Y-14910246D01*
X14155539Y-14910246D02*
X14165063Y-14891198D01*
X14165063Y-14891198D02*
X14174587Y-14881674D01*
X14174587Y-14881674D02*
X14193634Y-14872150D01*
X14193634Y-14872150D02*
X14222206Y-14872150D01*
X14222206Y-14872150D02*
X14241253Y-14881674D01*
X14241253Y-14881674D02*
X14250777Y-14891198D01*
X14250777Y-14891198D02*
X14260301Y-14910246D01*
X14260301Y-14910246D02*
X14260301Y-14967388D01*
X14260301Y-14967388D02*
X14250777Y-14986436D01*
X14250777Y-14986436D02*
X14241253Y-14995960D01*
X14241253Y-14995960D02*
X14222206Y-15005484D01*
X14222206Y-15005484D02*
X14193634Y-15005484D01*
X14374587Y-15005484D02*
X14355539Y-14995960D01*
X14355539Y-14995960D02*
X14346015Y-14976912D01*
X14346015Y-14976912D02*
X14346015Y-14805484D01*
X14526968Y-14995960D02*
X14507920Y-15005484D01*
X14507920Y-15005484D02*
X14469825Y-15005484D01*
X14469825Y-15005484D02*
X14450777Y-14995960D01*
X14450777Y-14995960D02*
X14441253Y-14976912D01*
X14441253Y-14976912D02*
X14441253Y-14900722D01*
X14441253Y-14900722D02*
X14450777Y-14881674D01*
X14450777Y-14881674D02*
X14469825Y-14872150D01*
X14469825Y-14872150D02*
X14507920Y-14872150D01*
X14507920Y-14872150D02*
X14526968Y-14881674D01*
X14526968Y-14881674D02*
X14536491Y-14900722D01*
X14536491Y-14900722D02*
X14536491Y-14919769D01*
X14536491Y-14919769D02*
X14441253Y-14938817D01*
X14612682Y-14995960D02*
X14631730Y-15005484D01*
X14631730Y-15005484D02*
X14669825Y-15005484D01*
X14669825Y-15005484D02*
X14688872Y-14995960D01*
X14688872Y-14995960D02*
X14698396Y-14976912D01*
X14698396Y-14976912D02*
X14698396Y-14967388D01*
X14698396Y-14967388D02*
X14688872Y-14948341D01*
X14688872Y-14948341D02*
X14669825Y-14938817D01*
X14669825Y-14938817D02*
X14641253Y-14938817D01*
X14641253Y-14938817D02*
X14622206Y-14929293D01*
X14622206Y-14929293D02*
X14612682Y-14910246D01*
X14612682Y-14910246D02*
X14612682Y-14900722D01*
X14612682Y-14900722D02*
X14622206Y-14881674D01*
X14622206Y-14881674D02*
X14641253Y-14872150D01*
X14641253Y-14872150D02*
X14669825Y-14872150D01*
X14669825Y-14872150D02*
X14688872Y-14881674D01*
X14765063Y-15081674D02*
X14774587Y-15072150D01*
X14774587Y-15072150D02*
X14793634Y-15043579D01*
X14793634Y-15043579D02*
X14803158Y-15024531D01*
X14803158Y-15024531D02*
X14812682Y-14995960D01*
X14812682Y-14995960D02*
X14822206Y-14948341D01*
X14822206Y-14948341D02*
X14822206Y-14910246D01*
X14822206Y-14910246D02*
X14812682Y-14862627D01*
X14812682Y-14862627D02*
X14803158Y-14834055D01*
X14803158Y-14834055D02*
X14793634Y-14815008D01*
X14793634Y-14815008D02*
X14774587Y-14786436D01*
X14774587Y-14786436D02*
X14765063Y-14776912D01*
D13*
X9935000Y-15123000D02*
X9935000Y-15233000D01*
X9880000Y-15178000D02*
X9990000Y-15178000D01*
D10*
X10355539Y-15269484D02*
X10241253Y-15269484D01*
X10298396Y-15269484D02*
X10298396Y-15069484D01*
X10298396Y-15069484D02*
X10279348Y-15098055D01*
X10279348Y-15098055D02*
X10260301Y-15117103D01*
X10260301Y-15117103D02*
X10241253Y-15126627D01*
X10441253Y-15250436D02*
X10450777Y-15259960D01*
X10450777Y-15259960D02*
X10441253Y-15269484D01*
X10441253Y-15269484D02*
X10431729Y-15259960D01*
X10431729Y-15259960D02*
X10441253Y-15250436D01*
X10441253Y-15250436D02*
X10441253Y-15269484D01*
X10641253Y-15269484D02*
X10526967Y-15269484D01*
X10584110Y-15269484D02*
X10584110Y-15069484D01*
X10584110Y-15069484D02*
X10565063Y-15098055D01*
X10565063Y-15098055D02*
X10546015Y-15117103D01*
X10546015Y-15117103D02*
X10526967Y-15126627D01*
X10765063Y-15069484D02*
X10784110Y-15069484D01*
X10784110Y-15069484D02*
X10803158Y-15079008D01*
X10803158Y-15079008D02*
X10812682Y-15088531D01*
X10812682Y-15088531D02*
X10822205Y-15107579D01*
X10822205Y-15107579D02*
X10831729Y-15145674D01*
X10831729Y-15145674D02*
X10831729Y-15193293D01*
X10831729Y-15193293D02*
X10822205Y-15231388D01*
X10822205Y-15231388D02*
X10812682Y-15250436D01*
X10812682Y-15250436D02*
X10803158Y-15259960D01*
X10803158Y-15259960D02*
X10784110Y-15269484D01*
X10784110Y-15269484D02*
X10765063Y-15269484D01*
X10765063Y-15269484D02*
X10746015Y-15259960D01*
X10746015Y-15259960D02*
X10736491Y-15250436D01*
X10736491Y-15250436D02*
X10726967Y-15231388D01*
X10726967Y-15231388D02*
X10717444Y-15193293D01*
X10717444Y-15193293D02*
X10717444Y-15145674D01*
X10717444Y-15145674D02*
X10726967Y-15107579D01*
X10726967Y-15107579D02*
X10736491Y-15088531D01*
X10736491Y-15088531D02*
X10746015Y-15079008D01*
X10746015Y-15079008D02*
X10765063Y-15069484D01*
X10955539Y-15069484D02*
X10974586Y-15069484D01*
X10974586Y-15069484D02*
X10993634Y-15079008D01*
X10993634Y-15079008D02*
X11003158Y-15088531D01*
X11003158Y-15088531D02*
X11012682Y-15107579D01*
X11012682Y-15107579D02*
X11022205Y-15145674D01*
X11022205Y-15145674D02*
X11022205Y-15193293D01*
X11022205Y-15193293D02*
X11012682Y-15231388D01*
X11012682Y-15231388D02*
X11003158Y-15250436D01*
X11003158Y-15250436D02*
X10993634Y-15259960D01*
X10993634Y-15259960D02*
X10974586Y-15269484D01*
X10974586Y-15269484D02*
X10955539Y-15269484D01*
X10955539Y-15269484D02*
X10936491Y-15259960D01*
X10936491Y-15259960D02*
X10926967Y-15250436D01*
X10926967Y-15250436D02*
X10917444Y-15231388D01*
X10917444Y-15231388D02*
X10907920Y-15193293D01*
X10907920Y-15193293D02*
X10907920Y-15145674D01*
X10907920Y-15145674D02*
X10917444Y-15107579D01*
X10917444Y-15107579D02*
X10926967Y-15088531D01*
X10926967Y-15088531D02*
X10936491Y-15079008D01*
X10936491Y-15079008D02*
X10955539Y-15069484D01*
X11107920Y-15269484D02*
X11107920Y-15136150D01*
X11107920Y-15155198D02*
X11117444Y-15145674D01*
X11117444Y-15145674D02*
X11136491Y-15136150D01*
X11136491Y-15136150D02*
X11165063Y-15136150D01*
X11165063Y-15136150D02*
X11184110Y-15145674D01*
X11184110Y-15145674D02*
X11193634Y-15164722D01*
X11193634Y-15164722D02*
X11193634Y-15269484D01*
X11193634Y-15164722D02*
X11203158Y-15145674D01*
X11203158Y-15145674D02*
X11222205Y-15136150D01*
X11222205Y-15136150D02*
X11250777Y-15136150D01*
X11250777Y-15136150D02*
X11269824Y-15145674D01*
X11269824Y-15145674D02*
X11279348Y-15164722D01*
X11279348Y-15164722D02*
X11279348Y-15269484D01*
X11374586Y-15269484D02*
X11374586Y-15136150D01*
X11374586Y-15155198D02*
X11384110Y-15145674D01*
X11384110Y-15145674D02*
X11403158Y-15136150D01*
X11403158Y-15136150D02*
X11431729Y-15136150D01*
X11431729Y-15136150D02*
X11450777Y-15145674D01*
X11450777Y-15145674D02*
X11460301Y-15164722D01*
X11460301Y-15164722D02*
X11460301Y-15269484D01*
X11460301Y-15164722D02*
X11469824Y-15145674D01*
X11469824Y-15145674D02*
X11488872Y-15136150D01*
X11488872Y-15136150D02*
X11517443Y-15136150D01*
X11517443Y-15136150D02*
X11536491Y-15145674D01*
X11536491Y-15145674D02*
X11546015Y-15164722D01*
X11546015Y-15164722D02*
X11546015Y-15269484D01*
X11936491Y-15059960D02*
X11765063Y-15317103D01*
X12193634Y-15069484D02*
X12212682Y-15069484D01*
X12212682Y-15069484D02*
X12231729Y-15079008D01*
X12231729Y-15079008D02*
X12241253Y-15088531D01*
X12241253Y-15088531D02*
X12250777Y-15107579D01*
X12250777Y-15107579D02*
X12260301Y-15145674D01*
X12260301Y-15145674D02*
X12260301Y-15193293D01*
X12260301Y-15193293D02*
X12250777Y-15231388D01*
X12250777Y-15231388D02*
X12241253Y-15250436D01*
X12241253Y-15250436D02*
X12231729Y-15259960D01*
X12231729Y-15259960D02*
X12212682Y-15269484D01*
X12212682Y-15269484D02*
X12193634Y-15269484D01*
X12193634Y-15269484D02*
X12174586Y-15259960D01*
X12174586Y-15259960D02*
X12165063Y-15250436D01*
X12165063Y-15250436D02*
X12155539Y-15231388D01*
X12155539Y-15231388D02*
X12146015Y-15193293D01*
X12146015Y-15193293D02*
X12146015Y-15145674D01*
X12146015Y-15145674D02*
X12155539Y-15107579D01*
X12155539Y-15107579D02*
X12165063Y-15088531D01*
X12165063Y-15088531D02*
X12174586Y-15079008D01*
X12174586Y-15079008D02*
X12193634Y-15069484D01*
X12346015Y-15250436D02*
X12355539Y-15259960D01*
X12355539Y-15259960D02*
X12346015Y-15269484D01*
X12346015Y-15269484D02*
X12336491Y-15259960D01*
X12336491Y-15259960D02*
X12346015Y-15250436D01*
X12346015Y-15250436D02*
X12346015Y-15269484D01*
X12479348Y-15069484D02*
X12498396Y-15069484D01*
X12498396Y-15069484D02*
X12517444Y-15079008D01*
X12517444Y-15079008D02*
X12526967Y-15088531D01*
X12526967Y-15088531D02*
X12536491Y-15107579D01*
X12536491Y-15107579D02*
X12546015Y-15145674D01*
X12546015Y-15145674D02*
X12546015Y-15193293D01*
X12546015Y-15193293D02*
X12536491Y-15231388D01*
X12536491Y-15231388D02*
X12526967Y-15250436D01*
X12526967Y-15250436D02*
X12517444Y-15259960D01*
X12517444Y-15259960D02*
X12498396Y-15269484D01*
X12498396Y-15269484D02*
X12479348Y-15269484D01*
X12479348Y-15269484D02*
X12460301Y-15259960D01*
X12460301Y-15259960D02*
X12450777Y-15250436D01*
X12450777Y-15250436D02*
X12441253Y-15231388D01*
X12441253Y-15231388D02*
X12431729Y-15193293D01*
X12431729Y-15193293D02*
X12431729Y-15145674D01*
X12431729Y-15145674D02*
X12441253Y-15107579D01*
X12441253Y-15107579D02*
X12450777Y-15088531D01*
X12450777Y-15088531D02*
X12460301Y-15079008D01*
X12460301Y-15079008D02*
X12479348Y-15069484D01*
X12717444Y-15136150D02*
X12717444Y-15269484D01*
X12669825Y-15059960D02*
X12622206Y-15202817D01*
X12622206Y-15202817D02*
X12746015Y-15202817D01*
X12803158Y-15069484D02*
X12926967Y-15069484D01*
X12926967Y-15069484D02*
X12860301Y-15145674D01*
X12860301Y-15145674D02*
X12888872Y-15145674D01*
X12888872Y-15145674D02*
X12907920Y-15155198D01*
X12907920Y-15155198D02*
X12917444Y-15164722D01*
X12917444Y-15164722D02*
X12926967Y-15183769D01*
X12926967Y-15183769D02*
X12926967Y-15231388D01*
X12926967Y-15231388D02*
X12917444Y-15250436D01*
X12917444Y-15250436D02*
X12907920Y-15259960D01*
X12907920Y-15259960D02*
X12888872Y-15269484D01*
X12888872Y-15269484D02*
X12831729Y-15269484D01*
X12831729Y-15269484D02*
X12812682Y-15259960D01*
X12812682Y-15259960D02*
X12803158Y-15250436D01*
X12993634Y-15069484D02*
X13117444Y-15069484D01*
X13117444Y-15069484D02*
X13050777Y-15145674D01*
X13050777Y-15145674D02*
X13079348Y-15145674D01*
X13079348Y-15145674D02*
X13098396Y-15155198D01*
X13098396Y-15155198D02*
X13107920Y-15164722D01*
X13107920Y-15164722D02*
X13117444Y-15183769D01*
X13117444Y-15183769D02*
X13117444Y-15231388D01*
X13117444Y-15231388D02*
X13107920Y-15250436D01*
X13107920Y-15250436D02*
X13098396Y-15259960D01*
X13098396Y-15259960D02*
X13079348Y-15269484D01*
X13079348Y-15269484D02*
X13022206Y-15269484D01*
X13022206Y-15269484D02*
X13003158Y-15259960D01*
X13003158Y-15259960D02*
X12993634Y-15250436D01*
X13193634Y-15069484D02*
X13193634Y-15107579D01*
X13269825Y-15069484D02*
X13269825Y-15107579D01*
X13565063Y-15345674D02*
X13555539Y-15336150D01*
X13555539Y-15336150D02*
X13536491Y-15307579D01*
X13536491Y-15307579D02*
X13526968Y-15288531D01*
X13526968Y-15288531D02*
X13517444Y-15259960D01*
X13517444Y-15259960D02*
X13507920Y-15212341D01*
X13507920Y-15212341D02*
X13507920Y-15174246D01*
X13507920Y-15174246D02*
X13517444Y-15126627D01*
X13517444Y-15126627D02*
X13526968Y-15098055D01*
X13526968Y-15098055D02*
X13536491Y-15079008D01*
X13536491Y-15079008D02*
X13555539Y-15050436D01*
X13555539Y-15050436D02*
X13565063Y-15040912D01*
X13669825Y-15155198D02*
X13650777Y-15145674D01*
X13650777Y-15145674D02*
X13641253Y-15136150D01*
X13641253Y-15136150D02*
X13631729Y-15117103D01*
X13631729Y-15117103D02*
X13631729Y-15107579D01*
X13631729Y-15107579D02*
X13641253Y-15088531D01*
X13641253Y-15088531D02*
X13650777Y-15079008D01*
X13650777Y-15079008D02*
X13669825Y-15069484D01*
X13669825Y-15069484D02*
X13707920Y-15069484D01*
X13707920Y-15069484D02*
X13726968Y-15079008D01*
X13726968Y-15079008D02*
X13736491Y-15088531D01*
X13736491Y-15088531D02*
X13746015Y-15107579D01*
X13746015Y-15107579D02*
X13746015Y-15117103D01*
X13746015Y-15117103D02*
X13736491Y-15136150D01*
X13736491Y-15136150D02*
X13726968Y-15145674D01*
X13726968Y-15145674D02*
X13707920Y-15155198D01*
X13707920Y-15155198D02*
X13669825Y-15155198D01*
X13669825Y-15155198D02*
X13650777Y-15164722D01*
X13650777Y-15164722D02*
X13641253Y-15174246D01*
X13641253Y-15174246D02*
X13631729Y-15193293D01*
X13631729Y-15193293D02*
X13631729Y-15231388D01*
X13631729Y-15231388D02*
X13641253Y-15250436D01*
X13641253Y-15250436D02*
X13650777Y-15259960D01*
X13650777Y-15259960D02*
X13669825Y-15269484D01*
X13669825Y-15269484D02*
X13707920Y-15269484D01*
X13707920Y-15269484D02*
X13726968Y-15259960D01*
X13726968Y-15259960D02*
X13736491Y-15250436D01*
X13736491Y-15250436D02*
X13746015Y-15231388D01*
X13746015Y-15231388D02*
X13746015Y-15193293D01*
X13746015Y-15193293D02*
X13736491Y-15174246D01*
X13736491Y-15174246D02*
X13726968Y-15164722D01*
X13726968Y-15164722D02*
X13707920Y-15155198D01*
X13984110Y-15269484D02*
X13984110Y-15069484D01*
X14069825Y-15269484D02*
X14069825Y-15164722D01*
X14069825Y-15164722D02*
X14060301Y-15145674D01*
X14060301Y-15145674D02*
X14041253Y-15136150D01*
X14041253Y-15136150D02*
X14012682Y-15136150D01*
X14012682Y-15136150D02*
X13993634Y-15145674D01*
X13993634Y-15145674D02*
X13984110Y-15155198D01*
X14193634Y-15269484D02*
X14174587Y-15259960D01*
X14174587Y-15259960D02*
X14165063Y-15250436D01*
X14165063Y-15250436D02*
X14155539Y-15231388D01*
X14155539Y-15231388D02*
X14155539Y-15174246D01*
X14155539Y-15174246D02*
X14165063Y-15155198D01*
X14165063Y-15155198D02*
X14174587Y-15145674D01*
X14174587Y-15145674D02*
X14193634Y-15136150D01*
X14193634Y-15136150D02*
X14222206Y-15136150D01*
X14222206Y-15136150D02*
X14241253Y-15145674D01*
X14241253Y-15145674D02*
X14250777Y-15155198D01*
X14250777Y-15155198D02*
X14260301Y-15174246D01*
X14260301Y-15174246D02*
X14260301Y-15231388D01*
X14260301Y-15231388D02*
X14250777Y-15250436D01*
X14250777Y-15250436D02*
X14241253Y-15259960D01*
X14241253Y-15259960D02*
X14222206Y-15269484D01*
X14222206Y-15269484D02*
X14193634Y-15269484D01*
X14374587Y-15269484D02*
X14355539Y-15259960D01*
X14355539Y-15259960D02*
X14346015Y-15240912D01*
X14346015Y-15240912D02*
X14346015Y-15069484D01*
X14526968Y-15259960D02*
X14507920Y-15269484D01*
X14507920Y-15269484D02*
X14469825Y-15269484D01*
X14469825Y-15269484D02*
X14450777Y-15259960D01*
X14450777Y-15259960D02*
X14441253Y-15240912D01*
X14441253Y-15240912D02*
X14441253Y-15164722D01*
X14441253Y-15164722D02*
X14450777Y-15145674D01*
X14450777Y-15145674D02*
X14469825Y-15136150D01*
X14469825Y-15136150D02*
X14507920Y-15136150D01*
X14507920Y-15136150D02*
X14526968Y-15145674D01*
X14526968Y-15145674D02*
X14536491Y-15164722D01*
X14536491Y-15164722D02*
X14536491Y-15183769D01*
X14536491Y-15183769D02*
X14441253Y-15202817D01*
X14612682Y-15259960D02*
X14631730Y-15269484D01*
X14631730Y-15269484D02*
X14669825Y-15269484D01*
X14669825Y-15269484D02*
X14688872Y-15259960D01*
X14688872Y-15259960D02*
X14698396Y-15240912D01*
X14698396Y-15240912D02*
X14698396Y-15231388D01*
X14698396Y-15231388D02*
X14688872Y-15212341D01*
X14688872Y-15212341D02*
X14669825Y-15202817D01*
X14669825Y-15202817D02*
X14641253Y-15202817D01*
X14641253Y-15202817D02*
X14622206Y-15193293D01*
X14622206Y-15193293D02*
X14612682Y-15174246D01*
X14612682Y-15174246D02*
X14612682Y-15164722D01*
X14612682Y-15164722D02*
X14622206Y-15145674D01*
X14622206Y-15145674D02*
X14641253Y-15136150D01*
X14641253Y-15136150D02*
X14669825Y-15136150D01*
X14669825Y-15136150D02*
X14688872Y-15145674D01*
X14765063Y-15345674D02*
X14774587Y-15336150D01*
X14774587Y-15336150D02*
X14793634Y-15307579D01*
X14793634Y-15307579D02*
X14803158Y-15288531D01*
X14803158Y-15288531D02*
X14812682Y-15259960D01*
X14812682Y-15259960D02*
X14822206Y-15212341D01*
X14822206Y-15212341D02*
X14822206Y-15174246D01*
X14822206Y-15174246D02*
X14812682Y-15126627D01*
X14812682Y-15126627D02*
X14803158Y-15098055D01*
X14803158Y-15098055D02*
X14793634Y-15079008D01*
X14793634Y-15079008D02*
X14774587Y-15050436D01*
X14774587Y-15050436D02*
X14765063Y-15040912D01*
M02*
